<svg xmlns="http://www.w3.org/2000/svg" width="745" height="480"><defs><clipPath id="a"><path fill="none" d="M0 0h189v124H0z"/></clipPath><clipPath id="b"><path fill="none" d="M0 0h179v5H0z"/></clipPath><clipPath id="c"><path fill="none" d="M0 0h7v127H0z"/></clipPath></defs><g transform="translate(-11549 236)"><g transform="translate(11604 -236)" fill="#e8e8e8" stroke="#707070"><rect width="634" height="445" rx="15" stroke="none"/><rect x=".5" y=".5" width="633" height="444" rx="14.5" fill="none"/></g><g transform="translate(11609 -231)" stroke="#707070"><rect width="624" height="435" rx="15" stroke="none"/><rect x=".5" y=".5" width="623" height="434" rx="14.5" fill="none"/></g><path d="M11624-211h579a15 15 0 0115 15v365a15 15 0 01-15 15h-579v-395z" fill="#fff"/><path fill="#f4f4f4" d="M11624-211h594v38h-594z"/><path fill="#6f99e3" d="M11624-173h118v357h-118z"/><path fill="#8bb1f4" d="M11624-116h118v23h-118z"/><rect width="104" height="23" rx="11.5" transform="translate(11631 -32)" fill="#e37ab0"/><text transform="translate(11655 -17)" fill="#fff" font-size="8" font-family="TsukuARdGothic-Bold, Tsukushi A Round Gothic" font-weight="700"><tspan x="0" y="0">学習データ投稿</tspan></text><text transform="translate(11648 -125)" fill="#fff" font-size="8" font-family="TsukuARdGothic-Bold, Tsukushi A Round Gothic" font-weight="700"><tspan x="0" y="0">学習内容</tspan></text><text transform="translate(11648 -102)" fill="#fff" font-size="8" font-family="TsukuARdGothic-Bold, Tsukushi A Round Gothic" font-weight="700"><tspan x="0" y="0">学習状況</tspan></text><text transform="translate(11648 -79)" fill="#fff" font-size="8" font-family="TsukuARdGothic-Bold, Tsukushi A Round Gothic" font-weight="700"><tspan x="0" y="0">学習最適化</tspan></text><g fill="#fff" stroke="#d1d1d1"><path d="M12075 38h123a5 5 0 015 5v141h-133V43a5 5 0 015-5z" stroke="none"/><path d="M12075 38.5h123a4.5 4.5 0 014.5 4.5v140a.5.5 0 01-.5.5h-131a.5.5 0 01-.5-.5V43a4.5 4.5 0 014.5-4.5z" fill="none"/></g><g fill="#fff" stroke="#e5e5e5" stroke-width=".5"><path d="M12076 49h121v34h-121z" stroke="none"/><path fill="none" d="M12076.25 49.25h120.5v33.5h-120.5z"/></g><g font-family="TsukuARdGothic-Regular, Tsukushi A Round Gothic"><text transform="translate(12081 54)" font-size="6"><tspan x="0" y="5">ここには学習内容が入ります。ここには</tspan><tspan x="0" y="15">学習内容が入ります。</tspan></text><text transform="translate(12081 77)" font-size="4"><tspan x="0" y="0">2021/01/01</tspan></text></g><g fill="#fff" stroke="#e5e5e5" stroke-width=".5"><path d="M12076 88h121v34h-121z" stroke="none"/><path fill="none" d="M12076.25 88.25h120.5v33.5h-120.5z"/></g><g font-family="TsukuARdGothic-Regular, Tsukushi A Round Gothic"><text transform="translate(12081 93)" font-size="6"><tspan x="0" y="5">ここには学習内容が入ります。ここには</tspan><tspan x="0" y="15">学習内容が入ります。</tspan></text><text transform="translate(12081 116)" font-size="4"><tspan x="0" y="0">2021/01/01</tspan></text></g><g fill="#fff" stroke="#e5e5e5" stroke-width=".5"><path d="M12076 127h121v34h-121z" stroke="none"/><path fill="none" d="M12076.25 127.25h120.5v33.5h-120.5z"/></g><g font-family="TsukuARdGothic-Regular, Tsukushi A Round Gothic"><text transform="translate(12081 132)" font-size="6"><tspan x="0" y="5">ここには学習内容が入ります。ここには</tspan><tspan x="0" y="15">学習内容が入ります。</tspan></text><text transform="translate(12081 155)" font-size="4"><tspan x="0" y="0">2021/01/01</tspan></text></g><g fill="#fff" stroke="#e5e5e5" stroke-width=".5"><path d="M12076 166h121v18h-121z" stroke="none"/><path fill="none" d="M12076.25 166.25h120.5v17.5h-120.5z"/></g><text transform="translate(12081 171)" font-size="6" font-family="TsukuARdGothic-Regular, Tsukushi A Round Gothic"><tspan x="0" y="5">ここには学習内容が入ります。ここには</tspan></text><text transform="translate(11648 -56)" fill="#fff" font-size="8" font-family="TsukuARdGothic-Bold, Tsukushi A Round Gothic" font-weight="700"><tspan x="0" y="0">振り返り</tspan></text><text transform="translate(11648 123)" fill="#fff" font-size="8" font-family="TsukuARdGothic-Bold, Tsukushi A Round Gothic" font-weight="700"><tspan x="0" y="0">設定</tspan></text><g fill="#fff" stroke="#d1d1d1"><path d="M11922 38h123a5 5 0 015 5v141h-133V43a5 5 0 015-5z" stroke="none"/><path d="M11922 38.5h123a4.5 4.5 0 014.5 4.5v140a.5.5 0 01-.5.5h-131a.5.5 0 01-.5-.5V43a4.5 4.5 0 014.5-4.5z" fill="none"/></g><g fill="#fff" stroke="#e5e5e5" stroke-width=".5"><path d="M11923 49h121v34h-121z" stroke="none"/><path fill="none" d="M11923.25 49.25h120.5v33.5h-120.5z"/></g><g font-family="TsukuARdGothic-Regular, Tsukushi A Round Gothic"><text transform="translate(11928 54)" font-size="6"><tspan x="0" y="5">ここには学習内容が入ります。ここには</tspan><tspan x="0" y="15">学習内容が入ります。</tspan></text><text transform="translate(11928 77)" font-size="4"><tspan x="0" y="0">2021/01/01</tspan></text></g><g fill="#fff" stroke="#e5e5e5" stroke-width=".5"><path d="M11923 88h121v34h-121z" stroke="none"/><path fill="none" d="M11923.25 88.25h120.5v33.5h-120.5z"/></g><g font-family="TsukuARdGothic-Regular, Tsukushi A Round Gothic"><text transform="translate(11928 93)" font-size="6"><tspan x="0" y="5">ここには学習内容が入ります。ここには</tspan><tspan x="0" y="15">学習内容が入ります。</tspan></text><text transform="translate(11928 116)" font-size="4"><tspan x="0" y="0">2021/01/01</tspan></text></g><g fill="#fff" stroke="#e5e5e5" stroke-width=".5"><path d="M11923 127h121v34h-121z" stroke="none"/><path fill="none" d="M11923.25 127.25h120.5v33.5h-120.5z"/></g><g font-family="TsukuARdGothic-Regular, Tsukushi A Round Gothic"><text transform="translate(11928 132)" font-size="6"><tspan x="0" y="5">ここには学習内容が入ります。ここには</tspan><tspan x="0" y="15">学習内容が入ります。</tspan></text><text transform="translate(11928 155)" font-size="4"><tspan x="0" y="0">2021/01/01</tspan></text></g><g fill="#fff" stroke="#e5e5e5" stroke-width=".5"><path d="M11923 166h121v18h-121z" stroke="none"/><path fill="none" d="M11923.25 166.25h120.5v17.5h-120.5z"/></g><text transform="translate(11928 171)" font-size="6" font-family="TsukuARdGothic-Regular, Tsukushi A Round Gothic"><tspan x="0" y="5">ここには学習内容が入ります。ここには</tspan></text><text transform="translate(11648 146)" fill="#fff" font-size="8" font-family="TsukuARdGothic-Bold, Tsukushi A Round Gothic" font-weight="700"><tspan x="0" y="0">ヘルプ</tspan></text><text transform="translate(11648 100)" fill="#fff" font-size="8" font-family="TsukuARdGothic-Bold, Tsukushi A Round Gothic" font-weight="700"><tspan x="0" y="0">プロフィール</tspan></text><text transform="translate(12118 -188)" font-size="10" font-family="TsukuARdGothic-Bold, Tsukushi A Round Gothic" font-weight="700"><tspan x="0" y="0">山田太郎さん</tspan></text><circle cx="10.5" cy="10.5" r="10.5" transform="translate(12090 -202)" fill="#fff"/><g transform="translate(12091.588 -200.499)" fill="none"><path d="M0 0h16.911v16.911H0z"/><circle cx="2.5" cy="2.5" r="2.5" transform="translate(6.412 2.499)" stroke="#2c3e50" stroke-linecap="round" stroke-linejoin="round" stroke-width="1.5"/><path d="M4.712 14.797v-1.41a2.818 2.818 0 012.818-2.818h2.818a2.818 2.818 0 012.818 2.818v1.409" stroke="#2c3e50" stroke-linecap="round" stroke-linejoin="round" stroke-width="1.5"/></g><path d="M12066 167h132a5 5 0 015 5v12h-142v-12a5 5 0 015-5z" fill="#e37ab0"/><text transform="translate(12099 178)" fill="#fff" font-size="6" font-family="TsukuARdGothic-Bold, Tsukushi A Round Gothic" font-weight="700"><tspan x="0" y="0">何かお困りではありませんか?</tspan></text><g transform="translate(12084.689 171)" fill="none"><path d="M0 0h10v10H0z"/><circle cx="3" cy="3" r="3" transform="translate(1.311 1)" stroke="#fff" stroke-linecap="round" stroke-linejoin="round"/><path d="M9.48 8.75l-2.5-2.5m-2.813-.833v.004m0-1.254a.625.625 0 10-.475-1.031" stroke="#fff" stroke-linecap="round" stroke-linejoin="round"/></g><g fill="#fff"><path d="M11642.483 140.464a5 5 0 101.465 3.536 4.987 4.987 0 00-1.465-3.536zm-.735.736a3.963 3.963 0 11-2.8-1.163 3.948 3.948 0 012.8 1.163z"/><path d="M11638.689 145.428a.5.5 0 10.5.505.505.505 0 00-.5-.505zm-1.148-3.035l.344.276a.186.186 0 00.238 0 .467.467 0 01.175-.152 1.1 1.1 0 01.564-.137.856.856 0 01.555.2.623.623 0 01.147.179.326.326 0 01.042.149.617.617 0 01-.063.291.589.589 0 01-.112.151 1.258 1.258 0 01-.274.2c-.108.061-.224.114-.341.179a1.055 1.055 0 00-.38.34.921.921 0 00-.119.264 1.124 1.124 0 00-.038.3v.2a.186.186 0 00.186.186h.447a.186.186 0 00.186-.186v-.2a.305.305 0 01.009-.081.1.1 0 01.024-.045.316.316 0 01.083-.061c.067-.038.175-.089.3-.155a1.976 1.976 0 00.593-.46 1.369 1.369 0 00.233-.4 1.485 1.485 0 00.088-.516 1.141 1.141 0 00-.135-.529 1.492 1.492 0 00-.568-.584 1.691 1.691 0 00-.859-.232 1.926 1.926 0 00-.97.244 1.084 1.084 0 00-.356.307.186.186 0 00.005.286z"/></g><path d="M11643.755 119.1l-1.091-.05a.256.256 0 01-.226-.158l-.225-.541a.257.257 0 01.048-.272l.735-.806a.258.258 0 00-.008-.355l-.907-.907a.258.258 0 00-.354-.011l-.807.736a.257.257 0 01-.272.048l-.541-.224a.256.256 0 01-.158-.226l-.053-1.089a.257.257 0 00-.254-.245h-1.283a.257.257 0 00-.257.245l-.05 1.09a.256.256 0 01-.158.226l-.541.224a.257.257 0 01-.272-.048l-.808-.737a.258.258 0 00-.355.008l-.907.907a.257.257 0 00-.008.355l.736.807a.256.256 0 01.047.272l-.224.541a.257.257 0 01-.226.158l-1.091.052a.257.257 0 00-.249.259v1.283a.257.257 0 00.249.258l1.09.05a.257.257 0 01.226.158l.224.541a.256.256 0 01-.047.272l-.736.807a.257.257 0 00.008.355l.908.907a.257.257 0 00.355.01l.807-.736a.257.257 0 01.272-.048l.541.224a.257.257 0 01.158.226l.05 1.09a.258.258 0 00.257.244h1.284a.257.257 0 00.254-.245l.051-1.09a.257.257 0 01.158-.226l.541-.224a.257.257 0 01.272.048l.809.737a.258.258 0 00.355-.008l.907-.907a.258.258 0 00.007-.358l-.734-.807a.257.257 0 01-.048-.272l.225-.541a.256.256 0 01.226-.158l1.09-.049a.257.257 0 00.241-.258v-1.283a.257.257 0 00-.241-.259zm-4.759 2.533a1.633 1.633 0 111.637-1.633 1.633 1.633 0 01-1.637 1.633zm1.955-22.355c-.423-.258-.574-.232-.574-.748v-.825c.232-.258.316-.226.513-1.237.4 0 .371-.516.558-.973.153-.372.025-.523-.1-.585.103-1.357.103-2.292-1.438-2.582a2.144 2.144 0 00-1.8-.236 2.05 2.05 0 01-.759 0l.069.643c-.584.7-.292 1.636-.386 2.183-.123.067-.233.221-.087.577.187.457.161.973.558.973.2 1.012.281.98.513 1.237v.825c0 .516-.175.524-.574.748-.963.538-2.217.851-2.442 2.532-.041.308 1.725.643 4.2.644s4.237-.337 4.2-.644c-.233-1.682-1.499-1.952-2.451-2.532z" fill="#fff"/><g fill="#fff"><path d="M11637.638-83.67h.709v.717h.867v-.711h.717v-.862h-.709v-.717h-.867v.71h-.717zm-.174-.086v-.829h-3.044v.833zm2.082 1.89v-.832h-4.7v.833zm-.003 1.057h-4.7v.833h4.7z"/><path d="M11641.387-87H11633v9.99h6.122l2.268-2.26zm-7.444.943h6.5v6.787h-1.33v1.324h-5.181v-8.111z"/></g><g fill="#fff"><path d="M11640.811-109.975c-1.974.272-3.865 3.976-4.795 5.691-.234.431.174.655.415.243.173-.3.594-1.157.822-1.112 1.088.181 1.669-.528 1.257-.975 1.384.028 2.071-.733 1.678-1.2a2.073 2.073 0 001.55-.178 1.325 1.325 0 00-.927-2.469z"/><path d="M11640.573-106.254a2.8 2.8 0 01-.769.515v3.832a.3.3 0 01-.3.3h-5.294a.3.3 0 01-.3-.3v-5.292a.3.3 0 01.3-.3h2.968c.208-.317.421-.621.638-.907h-3.606a1.21 1.21 0 00-1.211 1.207v5.292a1.21 1.21 0 001.21 1.21h5.29a1.21 1.21 0 001.21-1.21v-4.366s-.047-.062-.136.019z"/></g><path d="M11642.3-130.518a.272.272 0 00-.133-.133 2.694 2.694 0 00-.422-.148 5.686 5.686 0 00-.81-.148 8.684 8.684 0 00-.974-.053 8.2 8.2 0 00-1.266.093 5.085 5.085 0 00-.519.108 3.009 3.009 0 00-.308.1 2.985 2.985 0 00-.309-.1 5.674 5.674 0 00-.81-.148 8.693 8.693 0 00-.975-.053 8.2 8.2 0 00-1.266.093 5.092 5.092 0 00-.519.108 2.71 2.71 0 00-.422.148.271.271 0 00-.132.133c-.206.051-.44.148-.44.319v4.961a.863.863 0 00.863.863h3.485v.037a.169.169 0 00.169.17h.722a.169.169 0 00.166-.17v-.045h3.482a.863.863 0 00.863-.863v-4.953c0-.171-.234-.267-.445-.319zm-4.7 5.158l-.038-.011a5.632 5.632 0 00-.81-.148 8.693 8.693 0 00-.975-.053 8.233 8.233 0 00-1.266.093 5.092 5.092 0 00-.519.108l-.038.011v-4.861q.082-.029.179-.055a5.076 5.076 0 01.731-.133 8.058 8.058 0 01.913-.05 7.71 7.71 0 011.181.086 4.5 4.5 0 01.462.1q.1.026.179.055zm4.186 0l-.038-.011a5.644 5.644 0 00-.81-.148 8.684 8.684 0 00-.974-.053 8.233 8.233 0 00-1.266.093 5.082 5.082 0 00-.519.108l-.038.011v-4.861q.082-.029.179-.055a5.057 5.057 0 01.73-.133 8.063 8.063 0 01.913-.05 7.716 7.716 0 011.181.086 4.514 4.514 0 01.462.1 3 3 0 01.179.055zm.469 65.456v-.783a3.57 3.57 0 00-3.826-3.314 3.816 3.816 0 00-1.429.278 2.088 2.088 0 00-2.618.725 2.19 2.19 0 00-1.682 2.085 1.937 1.937 0 00.034 3.005 1.945 1.945 0 002.661 1.751v1.733h4.483v-.82a3.843 3.843 0 002.055-2.008l1-.081a.181.181 0 00.158-.232zm-8.279 2.636a.989.989 0 01-.291-.7 1 1 0 01.009-.122l.038-.315-.275-.158a1 1 0 01-.362-.357.988.988 0 01-.007-.994 1 1 0 01.345-.355l.258-.158-.032-.3c0-.047-.007-.091-.007-.134a1.24 1.24 0 011.085-1.229l.25-.031.113-.223a1.152 1.152 0 01.413-.446 1.138 1.138 0 011.7 1.273l-.086.313.26.2a.988.988 0 01.4.792.977.977 0 01-.187.568 1 1 0 01-.467.358l-.459.169.179.455a.991.991 0 01-.923 1.355 1 1 0 01-.2-.02l-.23-.047-.178.154a.989.989 0 01-1.35-.048zm9.263-4.577a.4.4 0 00-.4.4v1.835a.4.4 0 10.8 0v-1.836a.4.4 0 00-.4-.399z" fill="#fff"/><g fill="#fff" stroke="#d1d1d1"><path d="M11764-140h209.5V5H11764z" stroke="none"/><path fill="none" d="M11764.5-139.5h208.5v144h-208.5z"/></g><text transform="translate(11764 -147)" font-size="12" font-family="TsukuARdGothic-Bold, Tsukushi A Round Gothic" font-weight="700"><tspan x="0" y="0">学習状況</tspan></text><text transform="translate(11764 31)" font-size="12" font-family="TsukuARdGothic-Bold, Tsukushi A Round Gothic" font-weight="700"><tspan x="0" y="0">学習ボード</tspan></text><g fill="#fff" stroke="#d1d1d1"><path d="M11769 38h123a5 5 0 015 5v141h-133V43a5 5 0 015-5z" stroke="none"/><path d="M11769 38.5h123a4.5 4.5 0 014.5 4.5v140a.5.5 0 01-.5.5h-131a.5.5 0 01-.5-.5V43a4.5 4.5 0 014.5-4.5z" fill="none"/></g><g fill="#fff" stroke="#e5e5e5" stroke-width=".5"><path d="M11770 49h121v34h-121z" stroke="none"/><path fill="none" d="M11770.25 49.25h120.5v33.5h-120.5z"/></g><g font-family="TsukuARdGothic-Regular, Tsukushi A Round Gothic"><text transform="translate(11775 54)" font-size="6"><tspan x="0" y="5">ここには学習内容が入ります。ここには</tspan><tspan x="0" y="15">学習内容が入ります。</tspan></text><text transform="translate(11775 77)" font-size="4"><tspan x="0" y="0">2021/01/01</tspan></text></g><g fill="#fff" stroke="#e5e5e5" stroke-width=".5"><path d="M11770 88h121v34h-121z" stroke="none"/><path fill="none" d="M11770.25 88.25h120.5v33.5h-120.5z"/></g><g font-family="TsukuARdGothic-Regular, Tsukushi A Round Gothic"><text transform="translate(11775 93)" font-size="6"><tspan x="0" y="5">ここには学習内容が入ります。ここには</tspan><tspan x="0" y="15">学習内容が入ります。</tspan></text><text transform="translate(11775 116)" font-size="4"><tspan x="0" y="0">2021/01/01</tspan></text></g><g fill="#fff" stroke="#e5e5e5" stroke-width=".5"><path d="M11770 127h121v34h-121z" stroke="none"/><path fill="none" d="M11770.25 127.25h120.5v33.5h-120.5z"/></g><g font-family="TsukuARdGothic-Regular, Tsukushi A Round Gothic"><text transform="translate(11775 132)" font-size="6"><tspan x="0" y="5">ここには学習内容が入ります。ここには</tspan><tspan x="0" y="15">学習内容が入ります。</tspan></text><text transform="translate(11775 155)" font-size="4"><tspan x="0" y="0">2021/01/01</tspan></text></g><g fill="#fff" stroke="#e5e5e5" stroke-width=".5"><path d="M11770 166h121v18h-121z" stroke="none"/><path fill="none" d="M11770.25 166.25h120.5v17.5h-120.5z"/></g><text transform="translate(11775 171)" font-size="6" font-family="TsukuARdGothic-Regular, Tsukushi A Round Gothic"><tspan x="0" y="5">ここには学習内容が入ります。ここには</tspan></text><g transform="translate(11774.5 -129)" clip-path="url(#a)"><path fill="none" stroke="#f2f2f2" stroke-width=".5" d="M0 .5h189M0 11.5h189M0 22.5h189M0 33.5h189M0 44.5h189M0 55.5h189M0 66.5h189M0 77.5h189M0 88.5h189M0 99.5h189m-189 11h189m-189 11h189"/></g><path fill="#6f99e3" d="M11804-51h13v43h-13zm-20 11h13v32h-13zm40-33h13v65h-13zm20-11h13v76h-13zm20-11h13v87h-13zm20-22h13V-8h-13zm20 22h13v87h-13zm20-29h13V-8h-13zm20 0h13V-8h-13z"/><g fill="#fff" stroke="#d1d1d1"><path d="M11994-140h209.5V5H11994z" stroke="none"/><path fill="none" d="M11994.5-139.5h208.5v144h-208.5z"/></g><g transform="translate(12004.5 -129)" clip-path="url(#a)"><path fill="none" stroke="#f2f2f2" stroke-width=".5" d="M0 .5h189M0 11.5h189M0 22.5h189M0 33.5h189M0 44.5h189M0 55.5h189M0 66.5h189M0 77.5h189M0 88.5h189M0 99.5h189m-189 11h189m-189 11h189"/></g><path fill="#6f99e3" d="M12034-51h13v43h-13zm-20 11h13v32h-13zm40-33h13v65h-13zm20 0h13v65h-13zm20-22h13v87h-13zm20 0h13v87h-13zm20 0h13v87h-13zm20-10h13v97h-13zm20-19h13V-8h-13z"/><g transform="translate(11783 -5)" clip-path="url(#b)" font-size="4" font-family="TsukuARdGothic-Regular, Tsukushi A Round Gothic"><text transform="translate(0 4)"><tspan x="0" y="0">2020/01</tspan></text><text transform="translate(20 4)"><tspan x="0" y="0">2020/02</tspan></text><text transform="translate(40 4)"><tspan x="0" y="0">2020/03</tspan></text><text transform="translate(60 4)"><tspan x="0" y="0">2020/04</tspan></text><text transform="translate(80 4)"><tspan x="0" y="0">2020/05</tspan></text><text transform="translate(100 4)"><tspan x="0" y="0">2020/06</tspan></text><text transform="translate(120 4)"><tspan x="0" y="0">2020/07</tspan></text><text transform="translate(140 4)"><tspan x="0" y="0">2020/08</tspan></text><text transform="translate(160 4)"><tspan x="0" y="0">2020/09</tspan></text></g><g transform="translate(12013 -5)" clip-path="url(#b)" font-size="4" font-family="TsukuARdGothic-Regular, Tsukushi A Round Gothic"><text transform="translate(0 4)"><tspan x="0" y="0">2020/01</tspan></text><text transform="translate(20 4)"><tspan x="0" y="0">2020/02</tspan></text><text transform="translate(40 4)"><tspan x="0" y="0">2020/03</tspan></text><text transform="translate(60 4)"><tspan x="0" y="0">2020/04</tspan></text><text transform="translate(80 4)"><tspan x="0" y="0">2020/05</tspan></text><text transform="translate(100 4)"><tspan x="0" y="0">2020/06</tspan></text><text transform="translate(120 4)"><tspan x="0" y="0">2020/07</tspan></text><text transform="translate(140 4)"><tspan x="0" y="0">2020/08</tspan></text><text transform="translate(160 4)"><tspan x="0" y="0">2020/09</tspan></text></g><g transform="translate(11996 -132)" clip-path="url(#c)" font-size="4" font-family="TsukuARdGothic-Regular, Tsukushi A Round Gothic"><text transform="translate(0 4)"><tspan x="0" y="0">11h</tspan></text><text transform="translate(0 15)"><tspan x="0" y="0">10h</tspan></text><text transform="translate(0 26)"><tspan x="0" y="0">9h</tspan></text><text transform="translate(0 37)"><tspan x="0" y="0">8h</tspan></text><text transform="translate(0 48)"><tspan x="0" y="0">7h</tspan></text><text transform="translate(0 59)"><tspan x="0" y="0">6h</tspan></text><text transform="translate(0 70)"><tspan x="0" y="0">5h</tspan></text><text transform="translate(0 81)"><tspan x="0" y="0">4h</tspan></text><text transform="translate(0 92)"><tspan x="0" y="0">3h</tspan></text><text transform="translate(0 103)"><tspan x="0" y="0">2h</tspan></text><text transform="translate(0 114)"><tspan x="0" y="0">1h</tspan></text><text transform="translate(0 125)"><tspan x="0" y="0">0</tspan></text></g><g transform="translate(11766 -131)" clip-path="url(#c)" font-size="4" font-family="TsukuARdGothic-Regular, Tsukushi A Round Gothic"><text transform="translate(0 4)"><tspan x="0" y="0">11h</tspan></text><text transform="translate(0 15)"><tspan x="0" y="0">10h</tspan></text><text transform="translate(0 26)"><tspan x="0" y="0">9h</tspan></text><text transform="translate(0 37)"><tspan x="0" y="0">8h</tspan></text><text transform="translate(0 48)"><tspan x="0" y="0">7h</tspan></text><text transform="translate(0 59)"><tspan x="0" y="0">6h</tspan></text><text transform="translate(0 70)"><tspan x="0" y="0">5h</tspan></text><text transform="translate(0 81)"><tspan x="0" y="0">4h</tspan></text><text transform="translate(0 92)"><tspan x="0" y="0">3h</tspan></text><text transform="translate(0 103)"><tspan x="0" y="0">2h</tspan></text><text transform="translate(0 114)"><tspan x="0" y="0">1h</tspan></text><text transform="translate(0 125)"><tspan x="0" y="0">0</tspan></text></g><text transform="translate(11651 -186)" fill="#e37ab0" font-size="16" font-family="TsukuARdGothic-Bold, Tsukushi A Round Gothic" font-weight="700"><tspan x="0" y="0">Learn</tspan></text><g transform="translate(11632 -199)" fill="#e37ab0" stroke="#e37ab0"><rect width="15" height="15" rx="3" stroke="none"/><rect x=".5" y=".5" width="14" height="14" rx="2.5" fill="none"/></g><path d="M11636.483-195.174c-.418.446-3.336 6.885-1.24 7.818s8.777.612 9.041.135.465-1.307-.129-1.35-5.2 1.119-6.4.8c-.617-.165-2.137-1.223-.229-2.976 1.665-1.53 6.75-3.755 6.625-4.128-.261-.772-3.4-1.831-4.982-1.5a4.745 4.745 0 00-2.686 1.201z" fill="#fff"/><rect width="745" height="18" rx="2" transform="translate(11549 209)" fill="#e8e8e8"/><path d="M11549 227h745v9a8 8 0 01-8 8h-729a8 8 0 01-8-8v-9z" fill="#e2e2e2"/></g></svg>