<svg xmlns="http://www.w3.org/2000/svg" width="100" height="100"><path fill="none" d="M0 0h100v100H0z"/><path d="M95.505 19.923a2.777 2.777 0 00-1.354-1.361 27.517 27.517 0 00-4.306-1.512 58.063 58.063 0 00-8.275-1.509 88.671 88.671 0 00-9.949-.544 83.689 83.689 0 00-12.928.948 51.907 51.907 0 00-5.3 1.106 30.71 30.71 0 00-3.149 1.026 30.479 30.479 0 00-3.156-1.024 57.938 57.938 0 00-8.272-1.509A88.767 88.767 0 0028.864 15a83.689 83.689 0 00-12.928.948 51.966 51.966 0 00-5.3 1.105 27.667 27.667 0 00-4.302 1.509 2.772 2.772 0 00-1.351 1.357c-2.102.529-4.495 1.513-4.495 3.259v50.615a8.817 8.817 0 008.816 8.816h35.528v.458a1.727 1.727 0 001.725 1.731h7.374a1.727 1.727 0 001.725-1.731v-.458h35.532a8.817 8.817 0 008.816-8.816V23.178c-.004-1.746-2.397-2.73-4.499-3.255zM47.48 72.597c-.131-.037-.255-.076-.389-.115a57.51 57.51 0 00-8.272-1.509 88.761 88.761 0 00-9.952-.544 84.077 84.077 0 00-12.928.947 52.006 52.006 0 00-5.3 1.105c-.134.039-.258.079-.389.115V22.95q.838-.292 1.828-.559a51.846 51.846 0 017.462-1.354 82.284 82.284 0 019.323-.507 78.739 78.739 0 0112.062.878 45.928 45.928 0 014.722.984q.993.269 1.828.559zm42.75 0c-.131-.037-.252-.076-.386-.115a57.634 57.634 0 00-8.275-1.509 88.666 88.666 0 00-9.949-.544 84.077 84.077 0 00-12.928.947 51.907 51.907 0 00-5.3 1.105c-.131.039-.255.079-.386.115V22.95q.834-.292 1.828-.559a51.647 51.647 0 017.459-1.354 82.337 82.337 0 019.326-.507 78.8 78.8 0 0112.062.878 46.093 46.093 0 014.722.984c.659.179 1.269.364 1.825.559z" fill="#e37ab0"/></svg>