<svg xmlns="http://www.w3.org/2000/svg" width="100" height="100"><path fill="none" d="M0 0h100v100H0z"/><g fill="#e37ab0"><path d="M22.261 31.26h15.905V91.7H22.261zm47.6 9.551a6.573 6.573 0 1010.513 0zm-3.071 24.8v26.1h15.905V65.893a22.625 22.625 0 01-15.905-.286zM52.684 44.739a22.278 22.278 0 016.567-15.873 15.06 15.06 0 011.177-1.083V9H44.523v82.708h15.905v-30a15.113 15.113 0 01-1.177-1.081 22.287 22.287 0 01-6.567-15.888zM0 59.882h15.905v31.811H0z"/><path d="M98.559 62.682l-8.582-8.36a17.677 17.677 0 10-5.27 5.27l8.356 8.58a3.581 3.581 0 005.634.213 3.65 3.65 0 00-.138-5.703zm-23.436-8.456a9.484 9.484 0 116.705-2.777 9.432 9.432 0 01-6.704 2.782z"/></g></svg>