<svg xmlns="http://www.w3.org/2000/svg" width="100" height="100.046"><path fill="none" d="M0 0h100v100H0z"/><g fill="#e37ab0"><path d="M60.299 50.097l-.682-.692v.007l-.023-.023-.668 1.15a8.754 8.754 0 01-2.874 2.977l-.287.174-1.151.668.062.062 3.255 3.275a3.532 3.532 0 002.495 1.027 3.525 3.525 0 003.522-3.511 3.494 3.494 0 00-1.027-2.5zm-1.06-7.962a11.621 11.621 0 00-.891-4.5.06.06 0 00-.015-.047 4.194 4.194 0 00-.2-.469c-.015-.031-.015-.046-.031-.063l-.234-.469c0-.015-.015-.031-.015-.047A11.866 11.866 0 0036.39 46.592c0 .016.015.031.015.046.063.157.14.313.2.469a.116.116 0 01.031.063l.234.469c.016.016.016.031.031.047a11.88 11.88 0 004.862 4.877c.015.016.031.016.046.032l.469.234c.016.016.047.016.063.032.157.063.313.14.469.2.015 0 .031.015.046.015a11.68 11.68 0 004.5.891 11.855 11.855 0 0011.883-11.832zm-5.956-.015a5.951 5.951 0 11-1.735-4.173 5.811 5.811 0 011.735 4.171z"/><path d="M73.088 0H26.351a6.753 6.753 0 00-6.748 6.761v85.806a7.474 7.474 0 007.478 7.479h45.277a7.477 7.477 0 007.492-7.479V6.761A6.756 6.756 0 0073.088 0zM42.241 9.566a1.4 1.4 0 011.4-1.4h12.167a1.395 1.395 0 110 2.789H43.643a1.4 1.4 0 01-1.402-1.389zM54.977 89.5a5.256 5.256 0 11-5.257-5.025 5.245 5.245 0 015.257 5.025zM28.363 78.868V16.43h42.72v62.437h-42.72z"/></g></svg>