<svg xmlns="http://www.w3.org/2000/svg" width="100" height="100"><path fill="none" d="M0 0h100v100H0z"/><g fill="#e37ab0"><path d="M41.472 47.04v-.046L28.486 58.181v8.212h12.986v-11.71l.021-7.667zm2.66-.021v.029l-.031-.029v19.378h11.755v-8.389l-7-6.542zm27.38-3.507v-.046L58.485 57.797v8.6h13.027v-13.2l.023-9.708z"/><path d="M71.508 28.998a4.28 4.28 0 00-4.271 4.277 4.21 4.21 0 00.627 2.219l-8.685 9.563a4.212 4.212 0 00-1.982-.491 4.265 4.265 0 00-2.32.686l-8.3-7.765a4.271 4.271 0 10-7.977-2.126 4.091 4.091 0 00.465 1.923l-8.129 6.995a4.274 4.274 0 101.82 3.505 4.138 4.138 0 00-.457-1.905l8.137-7a4.247 4.247 0 004.675.119l8.341 7.8a4.186 4.186 0 00-.525 2.041 4.268 4.268 0 107.816-2.371l8.637-9.493a4.147 4.147 0 002.125.576 4.272 4.272 0 100-8.545zM28.49 50.357a2.578 2.578 0 112.574-2.574 2.585 2.585 0 01-2.574 2.574zm14.379-12.414a2.583 2.583 0 01-.737-5.055l.212-.051a1.808 1.808 0 01.211-.025 1.9 1.9 0 01.314-.025 2.577 2.577 0 012.473 1.855 1.6 1.6 0 01.093.457c.008.085.017.178.017.262a2.587 2.587 0 01-2.583 2.58zm14.328 13.465a2.574 2.574 0 112.574-2.575 2.579 2.579 0 01-2.574 2.573zm14.311-15.556a2.584 2.584 0 01-2.574-2.574 2.517 2.517 0 01.313-1.228 1.5 1.5 0 01.118-.195c0-.008 0-.017.008-.017a2.571 2.571 0 014.276 0c.009 0 .009.008.009.017a1.613 1.613 0 01.118.195 2.528 2.528 0 01.314 1.228 2.587 2.587 0 01-2.582 2.571z"/><path d="M91.756 71.654V23.915A6.915 6.915 0 0084.841 17H15.16a6.915 6.915 0 00-6.915 6.915v47.739H0v.857a9.914 9.914 0 009.915 9.914H90.08a9.919 9.919 0 009.92-9.914v-.857zM56.25 76.409v1.261a.828.828 0 01-.835.829H44.58a.827.827 0 01-.83-.829v-1.261a.832.832 0 01.83-.835h10.835a.833.833 0 01.835.835zm-41.09-4.755V23.915h69.68v47.739z"/></g></svg>