<svg xmlns="http://www.w3.org/2000/svg" width="100" height="100"><path fill="none" d="M0 0h100v100H0z"/><g fill="#e37ab0"><path d="M16.328 49.605a33.6 33.6 0 016.251-19.547L12.267 19.747l-1.2-1.2-.022-.022a49.785 49.785 0 000 62.155l11.531-11.531a33.6 33.6 0 01-6.248-19.544zM69.624 77.1a33.661 33.661 0 01-39.086 0L20.204 87.439l-1.185 1.18-.022.022a49.741 49.741 0 0061.282.655c.284-.216.579-.411.858-.633l.026-.019zM26.233 88.024l4.964-4.964a38.331 38.331 0 0037.767 0l4.065 4.065.9.91a45.073 45.073 0 01-46.477.712c-.407-.236-.817-.466-1.219-.718zm4.298-65.917a33.5 33.5 0 0113.922-5.78V0a49.592 49.592 0 00-24.549 9.9c-.292.221-.595.423-.883.651-.008.007-.018.012-.025.019zm-4.3-10.931a44.935 44.935 0 0113.54-5.626v7.033a38.581 38.581 0 00-8.581 3.564l-4.076-4.078zm62.884 7.352a50.333 50.333 0 00-7.952-7.96A49.674 49.674 0 0057.477.268c-.581-.088-1.159-.2-1.744-.265v.002L55.702 0v16.326a33.569 33.569 0 0113.922 5.78 34.025 34.025 0 017.959 7.952 33.718 33.718 0 010 39.094l11.532 11.537a49.82 49.82 0 000-62.163zM38.692 49.765v-13.9a13.9 13.9 0 1013.876 14.3c0-.126.02-.248.02-.375v-.031zm0 3.744h6.9l1.872.008.654.014a10.151 10.151 0 11-13.171-13.203v13.18h3.744z"/><path d="M75.361 40.94v-2.867H57.779v2.867zm-17.582 7.414v.031h17.582v-2.867H57.779v2.836zm0 7.444v.031H71.39v-2.867H57.779v2.836zm-15.094-19.93h-.031v9.934h9.933a9.926 9.926 0 00-9.631-9.919c-.092-.003-.18-.014-.271-.015z"/></g></svg>