<svg xmlns="http://www.w3.org/2000/svg" width="100" height="100"><path fill="none" d="M0 0h100v100H0z"/><path d="M23.236 76.699h53.927a3.371 3.371 0 003.371-3.371V31.995a3.387 3.387 0 00-3.386-3.387h-53.9a3.387 3.387 0 00-3.387 3.387v41.333a3.371 3.371 0 003.375 3.371zm25.331-22.14v-4.812h3.265v4.812zm12.56-1.941c-.08-.006-.161-.007-.239-.016a6.151 6.151 0 01-1.9-.554c-.038-.018-.075-.039-.113-.058a6.209 6.209 0 01-.765-.457l-.077-.054a6.184 6.184 0 01-2.373-6.522.087.087 0 000-.012 7.7 7.7 0 011-2.312 3.711 3.711 0 011.137-1.137 7.715 7.715 0 012.217-.968l.231-.054a6.645 6.645 0 01.821-.124c.092-.008.184-.021.275-.025a6.23 6.23 0 01.934.023l.149.018a6.124 6.124 0 01.845.169c.117.032.229.073.342.112.188.063.372.133.551.214.114.051.228.1.339.162.182.1.355.2.525.313.088.059.181.112.266.175a6.137 6.137 0 01.687.582c.053.052.1.112.15.166a5.956 5.956 0 01.458.54c.065.086.124.177.185.268a6.139 6.139 0 01.324.544c.05.094.1.187.145.284a6.02 6.02 0 01.271.7c.021.062.047.121.066.184a6.121 6.121 0 01.188.938c.011.088.011.179.018.268a6.069 6.069 0 01.017.671 6.136 6.136 0 01-.078.77c-.02.131-.032.261-.06.394a6.175 6.175 0 01-4.7 4.68c-.12.024-.237.036-.355.054a6.2 6.2 0 01-.8.08 6.309 6.309 0 01-.68-.015zm1.392 7.91v5.593H37.881v-5.593h24.638zM42.37 51.479l-.078.054a6.176 6.176 0 01-.765.456l-.113.059a6.146 6.146 0 01-1.9.554c-.079.009-.16.01-.239.016a5.977 5.977 0 01-1.482-.063c-.118-.018-.236-.03-.355-.054a6.175 6.175 0 01-4.7-4.68c-.028-.133-.04-.263-.06-.394a5.751 5.751 0 01-.061-1.44c.007-.089.007-.18.018-.268a6.125 6.125 0 01.188-.937c.018-.063.045-.122.065-.184a6.068 6.068 0 01.272-.7c.045-.1.1-.19.145-.284a6.162 6.162 0 01.324-.544c.06-.091.12-.182.185-.268a6.019 6.019 0 01.457-.539c.051-.055.1-.115.151-.169a6.269 6.269 0 01.686-.581c.086-.063.179-.117.268-.175a6.22 6.22 0 01.523-.312 6.215 6.215 0 01.89-.377c.113-.038.225-.08.342-.112a6.132 6.132 0 01.845-.169l.149-.018a6.23 6.23 0 01.934-.023c.091 0 .183.018.275.025a6.621 6.621 0 01.821.124c.076.017.154.034.23.054a7.711 7.711 0 012.218.968 3.713 3.713 0 011.138 1.137 7.7 7.7 0 011 2.311.054.054 0 000 .013 6.186 6.186 0 01-2.37 6.521zm50.507-6.027a7.685 7.685 0 00-5.452-2.259h-2.412v15.413h2.412a7.706 7.706 0 005.452-13.154zm-85.344-.005a7.706 7.706 0 005.452 13.154h2.412V43.193h-2.413a7.683 7.683 0 00-5.451 2.254zM47.82 9.14a2.038 2.038 0 011.063 2.016l-1.436 12.029-.174 1.424v.031h5.874l-1.609-13.483a2.05 2.05 0 011.047-2.016 4.813 4.813 0 00-2.355-9l.014-.11V.003l-.024.138L50.207 0l-.015.141a4.819 4.819 0 00-2.375 9zm1.421-6.874A1.742 1.742 0 1147.489 4a1.744 1.744 0 011.749-1.734zm29.212 79.103h-56.5a5.978 5.978 0 00-5.981 5.981V100h68.46V87.35a5.978 5.978 0 00-5.979-5.981z" fill="#e37ab0"/></svg>