<svg xmlns="http://www.w3.org/2000/svg" width="426.175" height="442.987"><defs><clipPath id="a"><path d="M240.27 211.61a64.167 64.167 0 01-4.63 7.48A63 63 0 01155.05 238c-1.39-.73-2.75-1.51-4.05-2.33s-2.57-1.66-3.79-2.56a58.75 58.75 0 01-4.26-3.4h0a1.651 1.651 0 01-.24-.22h0a63.08 63.08 0 1197.61-17.83z" fill="#e37ab0" stroke="#263238" stroke-linecap="round" stroke-linejoin="round"/></clipPath><clipPath id="b"><path d="M261.16 407.57a8.139 8.139 0 01-3.4-.93c-17-8.87-30.22-23.53-38.18-34.05a125.731 125.731 0 01-8.53-12.59l4.08-17.48s3.84 10 19.27 19.83 33.76 13.07 39.69 23c5.25 8.65-4 22.65-12.93 22.22z" fill="#fff" stroke="#263238" stroke-linecap="round" stroke-linejoin="round"/></clipPath><clipPath id="c"><path d="M306.56 382.09s-6.31-.19-14.75.09c-12.76.4-30.39 1.84-38.45 6.53l-.38-.13-7.38-2.58-.15-.22c-1.36-2-12.33-17.75-28-24.16l-22.16-61.92s23 1 35.57 21.78l6.31 2.28s37.55-11.12 58.57-7.12z" fill="#e37ab0" stroke="#263238" stroke-linecap="round" stroke-linejoin="round"/></clipPath><clipPath id="d"><path d="M354.81 427.87c-6.35 1.73-13.25-9.43-21.67-21.61h0c-5.56-8-11.78-16.53-18.93-22-.57-.43-1.15-.85-1.73-1.25l4.18-21c8.68 4.55 14.06 11.84 23.07 19.33 14.5 12.07 27.35 19.48 30.91 24.82s-4.95 18.74-15.83 21.71z" fill="#fff" stroke="#263238" stroke-linecap="round" stroke-linejoin="round"/></clipPath><clipPath id="e"><path d="M319 382.18a3.47 3.47 0 01-2 1.62 6.987 6.987 0 01-.69.23h-.19c-6.71 1.75-21.81-1.89-21.81-1.89s-9.89-4.7-10.49-5.81a27.218 27.218 0 01-1.11-2.7l-.27-.79s-3.56-2-4-3.56-1.19-2 1-2.28 14 0 14 0l-12.85-5.24s-8.51-4.29-9.3-5.8-1.78-2.51 2.57-1.91 13.85 3.36 13.85 3.36l7.49 1.59-7.44-3.17s-14.64-1.77-11.87-6.32h8.31a85.783 85.783 0 0114 1.78c2.42.74 18.42 10.68 18.42 10.68" fill="#fff" stroke="#263238" stroke-linecap="round" stroke-linejoin="round"/></clipPath><clipPath id="f"><path d="M136.78 417.62l36.62 11 67-15.29s-40.92-11.62-41.3-11.33-62.32 15.62-62.32 15.62z" fill="#e37ab0" stroke="#263238" stroke-linecap="round" stroke-linejoin="round"/></clipPath><clipPath id="g"><path d="M137.31 404.72c-2.57.18-3.21 9.44-.53 12.9l59.16-12.28 4.74-11.22z" fill="#e37ab0" stroke="#263238" stroke-linecap="round" stroke-linejoin="round"/></clipPath><clipPath id="h"><path d="M139.2 406a8.82 8.82 0 01.45 11 10.41 10.41 0 01-.45-11z" fill="#263238" stroke="#263238" stroke-linecap="round" stroke-linejoin="round"/></clipPath><clipPath id="i"><path d="M276.07 420.62l63.95 2.62-6.23 22.01-78.67-3z" fill="#fff" stroke="#263238" stroke-linecap="round" stroke-linejoin="round"/></clipPath></defs><g transform="translate(-762 -202)"><path d="M787.894 339.974s-27.88 72 11.3 144.5 119.88 110.8 184.47 143.55 131.66 16.8 163.53-36.84-11.84-91.93-11.9-168.42 11.45-96.74-30-161.36-143.06-78.93-219.9-31-97.5 109.57-97.5 109.57z" fill="#e37ab0" opacity=".7"/><path d="M783.654 312.044c26.71-51.84 76.31-91.06 138.06-96.58a171.52 171.52 0 01118.73 34.35c16.86 13 31.84 29.55 41.79 48.44 11.42 21.7 14.75 46.72 26.5 68.32 14.61 26.85 42.05 37.93 60.48 61.13 15.17 19.11 20.38 44.72 18.64 69.06-3.18 44.43-29.21 86.61-67.5 109.38-32.37 19.25-71.39 24.56-109 22.81-58-2.69-115.74-21.82-161.42-57.65s-78.51-88.8-86.29-146.33c-5.29-39.09 2.4-78.76 20.01-112.93z" fill="#e37ab0"/><path d="M783.654 312.044c26.71-51.84 76.31-91.06 138.06-96.58a171.52 171.52 0 01118.73 34.35c16.86 13 31.84 29.55 41.79 48.44 11.42 21.7 14.75 46.72 26.5 68.32 14.61 26.85 42.05 37.93 60.48 61.13 15.17 19.11 20.38 44.72 18.64 69.06-3.18 44.43-29.21 86.61-67.5 109.38-32.37 19.25-71.39 24.56-109 22.81-58-2.69-115.74-21.82-161.42-57.65s-78.51-88.8-86.29-146.33c-5.29-39.09 2.4-78.76 20.01-112.93z" fill="#fff" opacity=".7"/><path d="M766.034 330.994c1.18 4.68.6-3.93 2.91-14.45s6.28-6.26 6.28-6.26m-9.911 9.96l7.25-2.97m5.991-3.57s-4.33 9 2.2 12.78m3.95-15.3s7.16 4 2.68 12.58m-7.58-7.02l5.13 3.74m-1.111-5.39l-4.01 6.39" fill="none" stroke="#263238" stroke-linecap="round" stroke-linejoin="round"/><circle cx="10.91" cy="10.91" r="10.91" transform="rotate(-80.68 637.937 -252.27)" fill="none" stroke="#263238" stroke-linecap="round" stroke-linejoin="round"/><circle cx="12.1" cy="12.1" r="12.1" transform="rotate(-11.59 2388.424 -3722.713)" fill="none" stroke="#263238" stroke-linecap="round" stroke-linejoin="round"/><path fill="none" stroke="#263238" stroke-linecap="round" stroke-linejoin="round" d="M806.034 404.594l-5.02 1.79m5.72.28l-7.22 2.61m7.489-.11l-8.06 3.1m7.491.31l-7.35 3.36m6.05-.74l-5.58 2.32m1.81-25.04c-.31-1-3.85-1.62-4 1s3.73.44 4.83-1c0 0-2 2.69-1.16 3.22m19.93.04l-3.14 6.53s1.57-3.27 3.25-3c2.07.37.69 3.76-1.81 2.51m343.41 100.58l4.93 4.66m0-5.88l-4.13 6.17m8.98-4.4l4.94-1.84m2.37-5.14l3 2.65m2.3-5.84l-3.8 13.04m-226.33-76.67l13.27-9.13 17.57 1.23 1.1 22.28-12.9 9.22-15.92-1.16z"/><path d="M958.054 451.544l12.85-9.25 15.97 1.19m-15.97-1.19l-2.7-22.32m-13.27 9.13l17.53 2.03 13.31-9.93m-13.31 9.93l1.51 21.57m135.84-98.45l-5.88 18.27 18.3-2.47zm-.001 0l3.27 16.93" fill="none" stroke="#263238" stroke-linecap="round" stroke-linejoin="round"/><path d="M1112.564 368.474l2.14-.34.5 2.87m-235.85 150.44l9.14 4.49m-2.95-7.92l-2.62 9.55m3.89-14.21a1.38 1.38 0 012.2.29c.92 1.44-.88 4.46-.88 4.46l3.67-1.4m59.31-309.82c8.73 4.91-1.27 16.91-1.27 23.91s10 6 15 8c2 0 6 0 5.89 5.08" fill="none" stroke="#263238" stroke-linecap="round" stroke-linejoin="round"/><path d="M941.384 213.254c1.52 8.27 11 5.34 16.82 7.23 10 3.25 4.45 13.57 1.47 19.81-1.79 3.72-3.57 8.94-.37 12.47m-16.64-36.3l10.41-8.65m-6.33 11.23l7.84-6.5m-3.23 13.08l6.62-5.2m-7.99 12.98l12.94-9.3m-7.981 12.93l9.02-6.62m-5.179 20.69l11.27-9.18m-10.991 1.96l7.35-5.17" fill="none" stroke="#263238" stroke-linecap="round" stroke-linejoin="round"/><circle cx="20.94" cy="20.94" r="20.94" transform="rotate(-21.8 1674.535 -1769.588)" fill="none" stroke="#263238" stroke-linecap="round" stroke-linejoin="round"/><path d="M809.404 486.724c7.3-8.57 13.51-13.42 15.9-11.84 3.64 2.39-2.89 18.71-14.58 36.44s-24.12 30.17-27.76 27.77c-2.4-1.57-.38-9.19 4.62-19.28" fill="none" stroke="#263238" stroke-linecap="round" stroke-linejoin="round"/><path d="M783.644 511.284c-10.18-2.93-16.68-6.35-16.27-9.08.59-4.32 18.18-5.32 39.19-2.17s37.53 9.12 36.9 13.42c-.45 3-9 4.37-21.15 3.91" fill="none" stroke="#263238" stroke-linecap="round" stroke-linejoin="round"/><path d="M786.314 496.114c-7.68-13.86-11.52-24.67-8.92-26.36 3.42-2.21 16.64 12.13 29.53 32s20.56 37.83 17.15 40.05c-2.26 1.46-8.81-4.32-16.72-14.16" fill="none" stroke="#263238" stroke-linecap="round" stroke-linejoin="round"/><path d="M828.254 483.944a3.44 3.44 0 11.49-2.593 3.44 3.44 0 01-.49 2.593zm-11.39 52.69a3.44 3.44 0 11.49-2.593 3.44 3.44 0 01-.49 2.593zm-18.38-35.75a3.44 3.44 0 11-1-4.77 3.44 3.44 0 011 4.77z" fill="#263238"/><path d="M1017.794 351.204h11.78l5.89-10.2-5.89-10.2h-11.78l-5.89 10.2zm-1.71 22.39l-5.89-10.2h-11.78m1.58-22.39h11.78l5.89-10.2-5.89-10.21h-11.78l-5.89 10.21zm17.8-10.2h11.78l5.89-10.21-5.89-10.2h-11.78l-5.89 10.2z" fill="none" stroke="#263238" stroke-linecap="round" stroke-linejoin="round"/><circle cx="1.58" cy="1.58" r="1.58" transform="translate(1016.084 329.224)" fill="#263238"/><circle cx="1.58" cy="1.58" r="1.58" transform="translate(991.484 307.804)" fill="#263238"/><path d="M1014.504 373.594a1.58 1.58 0 111.58 1.58 1.58 1.58 0 01-1.58-1.58z" fill="#263238"/><circle cx="1.58" cy="1.58" r="1.58" transform="translate(996.834 361.814)" fill="#263238"/><path d="M1046.864 320.884a1.58 1.58 0 11.459 1.124 1.59 1.59 0 01-.459-1.124z" fill="#263238"/><circle cx="1.58" cy="1.58" r="1.58" transform="translate(1008.494 361.814)" fill="#263238"/><path d="M1033.884 320.884a1.59 1.59 0 111.59 1.59 1.59 1.59 0 01-1.59-1.59zm-17.8 30.33a1.59 1.59 0 111.58 1.58 1.59 1.59 0 01-1.58-1.58z" fill="#263238"/><path fill="none" stroke="#263238" stroke-linecap="round" stroke-linejoin="round" d="M1035.474 320.864h12.97m-30.78 30.35l-7.59 12.18m-10.081-42.8l-6.93-11.21m90.481-29a21.82 21.82 0 0142.1.93m-23.68 26.91a21.81 21.81 0 01-19.33-21.67m43.64 0a21.81 21.81 0 01-21.8 21.81"/><path d="M1127.514 272.724c6.82-.87 11.39-.4 12.1 1.64 1.41 4.06-13.18 12.81-32.59 19.55s-36.28 8.9-37.7 4.83c-.75-2.17 3.07-5.68 9.75-9.51m-69-31.45l2.09 4.23 4.67.68-3.38 3.3.8 4.65-4.18-2.2-4.18 2.2.8-4.65-3.38-3.3 4.67-.68zm-147.64-11.27a14.2 14.2 0 01-14.18 14.19q-.69 0-1.35-.06a14.19 14.19 0 1115.53-14.13z" fill="none" stroke="#263238" stroke-linecap="round" stroke-linejoin="round"/><path d="M860.164 249.074a2.2 2.2 0 11-2.2-2.19 2.2 2.2 0 012.2 2.19zm-19.75 5.58a3.54 3.54 0 01-1.28 2.73 14.06 14.06 0 01-4.17-5.79 3.45 3.45 0 011.83-.51 3.57 3.57 0 013.62 3.57zm17.55 2.23a14.09 14.09 0 01-9.71 3.86q-.69 0-1.35-.06a5.66 5.66 0 01-.12-1.17 5.9 5.9 0 0111.18-2.63z" fill="none" stroke="#263238" stroke-linecap="round" stroke-linejoin="round"/><circle cx="3.26" cy="3.26" r="3.26" transform="translate(841.554 234.364)" fill="none" stroke="#263238" stroke-linecap="round" stroke-linejoin="round"/><path d="M847.834 246.884a1.51 1.51 0 11-1.51-1.51 1.51 1.51 0 011.51 1.51zm11.93-8.65a3.82 3.82 0 01-1.23.19 4.15 4.15 0 01-4.15-4.16 4.412 4.412 0 010-.52 14.13 14.13 0 015.38 4.49zm326.05 172.94l1.53-3.44-2.48-1.36a7.5 7.5 0 00.05-1.83l2.54-1.24-1.35-3.51-2.72.78a7.481 7.481 0 00-1.26-1.32l.93-2.68-3.44-1.53-1.37 2.48a7.481 7.481 0 00-1.83 0l-1.23-2.54-3.52 1.35.79 2.71a8 8 0 00-1.33 1.27l-2.67-.93-1.49 3.39 2.48 1.37a7.479 7.479 0 00-.05 1.83l-2.55 1.23 1.35 3.52 2.72-.79a7.917 7.917 0 001.26 1.33l-.92 2.67 3.44 1.53 1.36-2.48a7.5 7.5 0 001.83.05l1.24 2.55 3.51-1.35-.78-2.72a7.859 7.859 0 001.32-1.26zm-10.46-1.92a4.37 4.37 0 115.77-2.22 4.37 4.37 0 01-5.77 2.22zm-7.82 19.57l2.08-4.67-3.36-1.86a10.309 10.309 0 00.06-2.48l3.46-1.68-1.81-4.77-3.69 1.07a10 10 0 00-1.71-1.8l1.26-3.64-4.71-2.11-1.85 3.36a10.871 10.871 0 00-2.48-.07l-1.68-3.45-4.78 1.84 1.07 3.68a10.829 10.829 0 00-1.8 1.72l-3.63-1.22-2.08 4.67 3.36 1.86a10.309 10.309 0 00-.06 2.48l-3.46 1.68 1.84 4.77 3.69-1.06a10.38 10.38 0 001.71 1.8l-1.26 3.63 4.68 2.08 1.85-3.37a10.329 10.329 0 002.48.07l1.68 3.45 4.78-1.83-1.07-3.69a10.769 10.769 0 001.8-1.71zm-14.2-2.61a5.93 5.93 0 114.542.126 5.94 5.94 0 01-4.542-.126z" fill="none" stroke="#263238" stroke-linecap="round" stroke-linejoin="round"/><path d="M960.234 384.494a64.167 64.167 0 01-4.63 7.48 63 63 0 01-80.59 18.91c-1.39-.73-2.75-1.51-4.05-2.33s-2.57-1.66-3.79-2.56a58.75 58.75 0 01-4.26-3.4 1.651 1.651 0 01-.24-.22 63.08 63.08 0 1197.61-17.83z" fill="#e37ab0"/><g clip-path="url(#a)" transform="translate(719.964 172.884)"><g opacity=".6" fill="#fff"><path d="M240.27 211.61a64.167 64.167 0 01-4.63 7.48l-1.22-1-2.1-1.11-2.21-1.16.37-2.67-.12-2.41c-.13-2.41 1.61-.44 3-1.17a8.09 8.09 0 002.55-3s1-3.21.67-4.5a36.413 36.413 0 00-1.9-4.34l-3.58 5-3-.23-2.84-1.5-.37-3.95-1.46-.76-.61-2.27-7.89-2.21-.9-1.58c-.9-1.58-4.53-2.39-4.53-2.39l.89-2.06 1.4-2.3c1.41-2.3 2.87 1.52 2.87 1.52l1.67.87 3.1-2.6.82-3.73 5.05.29a2.25 2.25 0 011.32-2.5c1.68-.66.94-4.31.3-5.66s-3-.26-3-.26-2.57-3.91-2.92-5.47 4.9-1 7.15-2.57 1.48-4.69.38-4.76 2.15-7.1 8.4-5.17c1.74.54 2.84.35 3.52-.25a63 63 0 01-.18 58.42zm-43.73-27.05l-2.14 2.69s-.91-2.17-2.21-1l-2 1.78-1.45 4.06-2.6 1.68-1.59-.83-1.5-.8-1.63-.86-1.56 3-1.27 2.4a15.321 15.321 0 002.29 3.25l2.76 4.87 3.36 1.7a25.561 25.561 0 014.17.5l2.31 1.21-.82 5s-1.74 2.83-2.9 2.05l-1.17-.77-1.9 6.58-.08 3.62s-1.13.47-2.27.85-.42.18-2.81.92-2.2.71-4.14 1.26a26.131 26.131 0 00-4.75 2.22l.17 3.48-4.57.67-2.56-1.36.63-2.2.3-3.44-.35-2.57-1.1-2.27 3.08-2.79-.68-1.75-1.75-3.48-3.7 2-1.9 1-4.3-1.93-.47-2.61L154 208l-1.34-2.92-2.38-3.22-.6-2.77 1.34-2.54.71-1.34-2.19-2.95-.6-2.1-3.69-3.35s1.07-.07.83-1.56 2.11-4 2.11-4c1.33.7 5.32 3.48 5.32 3.48l3.49.48s.7 0 1.38-1.32a18.69 18.69 0 012.78-3.33s-1.61-5.59-.46-6.34 2.32-4.41 2.32-4.41l.92-1.75s-2.17-.95-2.58-2.1-5.76.38-5.76.38l-3.69 2.56-2.91 2.25-1.26 2.39s-2.57-3.09-2.58-1.36a24.54 24.54 0 01-1.16 5.21s.53.28-.17 1.62-1.46 1.27-3 1.46a38.449 38.449 0 01-6-.41s-1 3.7-.31 4.34l.68.62s-1.07 2.69-2.13 2.13l-2.58-1.36-3.61 1.46-4 4.42-.89-.18a63.08 63.08 0 0152.49-71.6c.23 1 .48 1.94.48 1.94l-1 4.94-1.28 2.44-1.1 2.09-1.55 2.94 3.97 3.66-.85 4.33-2.15 1.35-.62 3.25 3.69 7.21 1 2.83a9.91 9.91 0 00-.89 4.32s.45 2.7 2.42 3.77 4.56 2.33 4.56 2.33l-.21 4-.89 1 1.48 4.31c4.51 1.77 4.08 3.25 4.51 1.77l.44-1.47 3.07-1.11 3.91 4.67a2.71 2.71 0 012.3 1.22c1.14 1.44 2.92.19.77 2.88z"/><path d="M143.54 219.39c.11 1.42-1.69 3.2-1.69 3.2l1.47.77.45 4-1.11 2.12a62.82 62.82 0 01-17.45-25.62l.8-4.24 3.53-.5s3.16-2.1 4.56-1.54 2.68 4 2.68 4 1 4.64.87 4.55h.02l1.44.76.41 1.83-2 3.8h-3.22s-.64-.34-.7 1.33a4.06 4.06 0 001.67 2.93l3.48-.89.93-3.6 3.42-.67s-.49 2.21.31 2.63l.81.43.48 2.64a2.37 2.37 0 00-1.16 2.07zm16.54 5.66c-.31-.86-.44-1.61-2.57-2.73s-2-.72-2.84.21a3.07 3.07 0 01-3.18 1.13c-1.4-.31-.67 1.27-.67 1.27l.34 4.27-3.95 3.9q1.83 1.35 3.79 2.56l.84-2.58 6.56 1.92c-1.39-.41-.57-2.31-.57-2.31l-1.4-.74s3.96-6.06 3.65-6.9zm41.32-22.2l-2.15-2.17-2.46.77-1 2-.75 1.44 1 2 2 2.43 1.14-2.18s3.17 0 4.83-1.83-2.61-2.46-2.61-2.46zm-6.32-9.79l4 2.1.16-.94a5.43 5.43 0 011.08-2.05l-3.06-3.24zm-1.36 46.55l-1.15-1.69-1.34-.7h-4.09l-2.33 4.42s-2.23-.3-5.16-.56-2.21.95-2.21.95l-.76 2.78a63.24 63.24 0 0022.14-1.19 28 28 0 00-2.62-1.62z"/></g></g><path d="M960.234 384.494a64.167 64.167 0 01-4.63 7.48 63 63 0 01-80.59 18.91c-1.39-.73-2.75-1.51-4.05-2.33s-2.57-1.66-3.79-2.56a58.75 58.75 0 01-4.26-3.4h0a1.651 1.651 0 01-.24-.22h0a63.08 63.08 0 1197.61-17.83z" fill="none" stroke="#263238" stroke-linecap="round" stroke-linejoin="round"/><path d="M918.784 416.504a63.24 63.24 0 01-22.14 1.19l.76-2.78s-.72-1.21 2.21-.95 5.16.56 5.16.56l2.33-4.42h4.09l1.34.7 1.15 1.69 2.48 2.39a28 28 0 012.62 1.62zm41.67-90.42c-.68.6-1.78.79-3.52.25-6.25-1.93-9.49 5.09-8.4 5.17s1.86 3.24-.38 4.76-7.5 1-7.15 2.57 2.92 5.47 2.92 5.47 2.3-1.08 2.95.26 1.39 5-.29 5.66a2.25 2.25 0 00-1.32 2.5l-5.05-.29-.82 3.73-3.1 2.6-1.67-.87s-1.46-3.82-2.87-1.52l-1.4 2.3-.89 2.06s3.63.81 4.53 2.39l.9 1.58 7.89 2.21.61 2.27 1.46.76.37 3.95 2.94 1.54 3 .23 3.58-5a36.409 36.409 0 011.9 4.34c.35 1.29-.67 4.5-.67 4.5a8.09 8.09 0 01-2.55 3c-1.43.73-3.18-1.24-3 1.17l.12 2.41-.37 2.67 2.21 1.16 2.1 1.11 1.22 1m-113.67-27.65l.89.18 4-4.42 3.61-1.46 2.58 1.36c1.06.56 2.13-2.13 2.13-2.13l-.68-.62c-.69-.64.31-4.34.31-4.34a38.449 38.449 0 006 .41c1.58-.19 2.33-.13 3-1.46s.17-1.62.17-1.62a24.539 24.539 0 001.16-5.21c0-1.73 2.58 1.36 2.58 1.36l1.26-2.39 2.82-2.24 3.69-2.56s5.35-1.54 5.76-.38 2.58 2.1 2.58 2.1l-.92 1.75s-1.18 3.64-2.32 4.41.46 6.34.46 6.34a18.689 18.689 0 00-2.78 3.33c-.7 1.34-1.38 1.32-1.38 1.32l-3.49-.48s-4-2.78-5.32-3.48c0 0-2.35 2.51-2.11 4s-.83 1.56-.83 1.56l3.69 3.35.6 2.1 2.19 2.95-.71 1.34-1.34 2.54.6 2.77 2.38 3.22 1.35 2.91 1.46 4.71.47 2.61 4.3 1.93 1.9-1 3.7-2 1.75 3.48.68 1.75-3.08 2.79 1.1 2.27.35 2.57-.3 3.44-.63 2.2 2.56 1.36 4.57-.66-.17-3.49a26.131 26.131 0 014.75-2.22c1.94-.55 1.75-.52 4.14-1.26s1.66-.54 2.81-.92 2.27-.85 2.27-.85l.08-3.62 1.9-6.58 1.17.77c1.16.78 2.9-2.05 2.9-2.05l.82-5-2.36-1.23a25.561 25.561 0 00-4.17-.5l-3.29-1.73-2.76-4.87a15.32 15.32 0 01-2.29-3.25l1.27-2.4 1.56-3 1.63.86 1.5.8 1.59.83 2.6-1.68 1.45-4.06 2-1.78c1.3-1.18 2.21 1 2.21 1l2.14-2.69c2.15-2.69.37-1.44-.73-2.82a2.71 2.71 0 00-2.3-1.22l-3.91-4.67-3.11 1.18-.44 1.47c-.43 1.48 0 0-4.51-1.77l-1.48-4.31.89-1 .21-4s-2.59-1.27-4.56-2.33-2.42-3.77-2.42-3.77a9.91 9.91 0 01.89-4.32l-1-2.83-3.69-7.21.62-3.25 2.15-1.35.85-4.33-3.86-3.66 1.55-2.94 1.1-2.09 1.28-2.44 1-4.94s-.25-.92-.48-1.94" fill="none" stroke="#263238" stroke-linecap="round" stroke-linejoin="round"/><path d="M862.964 402.584a1.619 1.619 0 00-.26-.24h0l1.11-2.12-.45-4-1.47-.77s1.8-1.78 1.69-3.2a2.37 2.37 0 011.13-2.13l-.48-2.64-.81-.43c-.8-.42-.31-2.63-.31-2.63l-3.42.67-.93 3.6-3.48.89a4.06 4.06 0 01-1.67-2.93c.06-1.67.7-1.33.7-1.33h3.22l2-3.8-.41-1.83-1.44-.76" fill="none" stroke="#263238" stroke-linecap="round" stroke-linejoin="round"/><path d="M857.594 378.934h0c.16.09-.87-4.55-.87-4.55s-1.28-3.39-2.68-4-4.56 1.54-4.56 1.54l-3.53.5-.8 4.24m26.65 29.3l-.84 2.58q-2-1.22-3.79-2.56l3.95-3.9-.34-4.27s-.73-1.58.67-1.27a3.07 3.07 0 003.18-1.13c.82-.93.72-1.33 2.84-.21s2.26 1.87 2.57 2.73-3.65 6.93-3.65 6.93l1.4.74s-.82 1.9.57 2.31zm44.95-31.63l2.46-.77 2.15 2.17s4.25.55 2.59 2.4-4.83 1.83-4.83 1.83l-1.16 2.18-2-2.43-1-2 .75-1.44zm3.53-9.28a5.43 5.43 0 00-1.08 2.05l-.16.94-4-2.1 2.18-4.13z" fill="none" stroke="#263238" stroke-linecap="round" stroke-linejoin="round"/><path d="M1137.294 600.934c-5.36 4.46-46.65 32.8-105.57 28.23-3.17-26.82-15.26-137-1.51-154.28 0 0 33.36-15.91 64.09-9.23s42.69 13.08 44.88 18.62c1.66 4.19-.71 82.21-1.89 116.66z" fill="#263238"/><path d="M1093.284 477.424c-17.7 15.33-40.5 12.09-40 .32.08-1.84 2.05-4.12 2.05-4.12l-.69-1.06-3-4.53c-2.19-3.39-4.93-7.65-6.84-10.75-1.6-2.64 38.29-27.18 38.29-13.07 0 19.88 9.76 23.62 9.76 23.62 3.68 1.48 7.11 3.82.43 9.59z" fill="#fff" stroke="#263238" stroke-linecap="round" stroke-linejoin="round"/><path d="M1104.474 507.784s-3.57 12.24-1.88 15.75m-2.29-51.29c0 11.81-35.23 23.38-45.55 11.53" fill="none" stroke="#fff" stroke-linecap="round" stroke-linejoin="round"/><path d="M1071.324 458.614s-2.36 8.9-13.36 15.85a4.12 4.12 0 00-2.37-1.87 3.11 3.11 0 00-1 0l-3-4.53c5.69-4.1 19.73-9.45 19.73-9.45z" fill="#263238"/><path d="M1076.264 447.674s-.12 8.78-2 10.57c-13.95 13.38-27.59 14.44-29.84 10.91-15.15-23.76-11.57-30-13.11-34.07-2.73-7.14-6.08-18.8-4.6-25.86 3.3-15.77 33-28 48.64-12.14 7.5 7.59 9.87 24.06 8.29 37.78" fill="#fff" stroke="#263238" stroke-linecap="round" stroke-linejoin="round"/><path d="M1033.224 427.744s-4.17-1.87-5.07.36m15.18-.22s8.67-3.63 12.57.78" fill="none" stroke="#263238" stroke-linecap="round" stroke-linejoin="round"/><path d="M1052.964 434.034c.14 1.3-.49 2.43-1.42 2.54s-1.79-.88-1.93-2.18.49-2.44 1.42-2.54 1.75.88 1.93 2.18zm-17 .39c.15 1.3-.49 2.44-1.42 2.54s-1.79-.87-1.93-2.17.49-2.44 1.42-2.54 1.77.87 1.93 2.17z" fill="#263238"/><path d="M1036.384 431.004c1.21 1.95.55 5.28-1.05 9.85s-.19 6.22 5.95 6.68" fill="#fff" stroke="#263238" stroke-linecap="round" stroke-linejoin="round"/><path d="M1041.284 455.444s8-.73 11.66-2.74" fill="none" stroke="#263238" stroke-linecap="round" stroke-linejoin="round"/><path d="M1091.964 410.104c0-5.94-5.86-18.13-16.14-19.5-5.91-6.18-14.33-8.45-24.55-6.1-23.62 5.42-30.81 28.74-31.84 32.6-.1.36-.15.56-.15.56l6.32-1.6-2.72 5.31 3.31 2.19-.76.84 3.84 3.7-1.2-6.76c.74-4.36 5.76-10.46 5.76-10.46a16.31 16.31 0 00-3.3 8.19c2-5.19 14-10 14-10-3.89 3.16-6 9.34-6 9.34 3.7-4.56 12.37-7.51 17.92-9.08 1.87 4.51 4.84 9.22 9.08 11.83 4 2.46 3.86 7.54 3.86 7.54a23.32 23.32 0 019 12.36l4.84 6.62s8.73-10.71 8.73-37.58z" fill="#263238"/><path d="M1071.594 430.404c-1.62-3.47 4.26-12.87 8.43-11.71 2.34.66 5.4 4.93 6 9.41s-2.57 13-5.95 14.85c-2.15 1.2-3.92-2.07-3.92-2.07" fill="#fff" stroke="#263238" stroke-linecap="round" stroke-linejoin="round"/><path d="M816.474 600.134l112.99-26.42 235.68 27.22-60.68 41.5z" fill="#fff"/><path d="M816.474 600.134l112.99-26.42 235.68 27.22" fill="#fff" stroke="#263238" stroke-linecap="round" stroke-linejoin="round"/><path d="M914.254 605.434l45.74-20.22 57.83 2.99-25.72 21.99z" fill="#fff" stroke="#263238" stroke-linecap="round" stroke-linejoin="round"/><path d="M1032.444 473.884c-14.67 6-17.83 19.49-42.76 72.8 0 0-11.07 2.27-17 15.72s4 24.07 15.43 23.71c0 0 4.59 4 14 3.59s51-64.05 51-64.05z" fill="#263238"/><path d="M994.054 549.814c6.56 5.84 10.33 14.41 8.33 23.91m-2-21.1s8.06 1.76 9.31 12.08m14.27-42.28a58.84 58.84 0 01-3.82-29.67m2.68 16.07c-.61 4.2 3.73 26.56 3.7 50.07" fill="none" stroke="#fff" stroke-linecap="round" stroke-linejoin="round"/><path d="M1132.484 478.304c18.35 9.22 20.53 37.59 3.22 71.51-12.23 23.94-29.11 59.29-39.79 61.66s-21.1-4.28-21.1-4.28-9-.42-11.72-6.82c-7.44-17.49 11.47-39.59 18.87-34.3 0 0 23.76-51.67 28.09-54.93" fill="#263238"/><path d="M1061.394 589.744c-2.43-12.07 16.57-26.31 20.57-23.67 0 0 14.11.79 16.22 10.55m14.9 15.69c8.26-14.57 22.62-42.5 22.62-42.5m-53.74 16.26s9.89-5.92 17.28-.32m-13.9-6.87s5.46-12 11-23 18.22-27.29 23.49-28.08" fill="none" stroke="#fff" stroke-linecap="round" stroke-linejoin="round"/><path d="M981.124 580.454a8.139 8.139 0 01-3.4-.93c-17-8.87-30.22-23.53-38.18-34.05a125.731 125.731 0 01-8.53-12.59l4.08-17.48s3.84 10 19.27 19.83 33.76 13.07 39.69 23c5.25 8.65-4 22.65-12.93 22.22z" fill="#fff"/><g clip-path="url(#b)" transform="translate(719.964 172.884)"><path d="M261.16 407.57a16.55 16.55 0 00-1-3.69c-3.57-8.94-25.17-26.71-25.17-26.71-5.14-.16-10.79-2.3-15.39-4.58a125.731 125.731 0 01-8.55-12.59l4.08-17.48s3.84 10 19.27 19.83 33.76 13.07 39.69 23c5.25 8.65-4 22.65-12.93 22.22z" fill="#e37ab0" opacity=".4"/></g><path d="M981.124 580.454a8.139 8.139 0 01-3.4-.93c-17-8.87-30.22-23.53-38.18-34.05a125.731 125.731 0 01-8.53-12.59l4.08-17.48s3.84 10 19.27 19.83 33.76 13.07 39.69 23c5.25 8.65-4 22.65-12.93 22.22z" fill="none" stroke="#263238" stroke-linecap="round" stroke-linejoin="round"/><path d="M942.624 531.824s-2.11 9.32-7.67 7.23c-3-1.13-8.78-10.09-9.87-14.61zm-24.51-57.39l4.54-2.34s12.83.11 20.79 6.58c7.23 5.88 10.9 15.09 10.9 15.09s28.09-15.51 56.78-6.61l11.7 65.21-53.79 3.52-33.57-31.89z" fill="#fff" stroke="#263238" stroke-linecap="round" stroke-linejoin="round"/><path d="M1026.524 554.974s-6.31-.19-14.75.09c-12.76.4-30.39 1.84-38.45 6.53l-.38-.13-7.38-2.58-.15-.22c-1.36-2-12.33-17.75-28-24.16l-22.16-61.92s23 1 35.57 21.78l6.31 2.28s37.55-11.12 58.57-7.12z" fill="#e37ab0"/><g clip-path="url(#c)" fill="rgba(0,0,0,0.7)" transform="translate(719.964 172.884)"><path d="M245.45 385.79c-1.36-2-12.33-17.75-28-24.16l-22.16-61.92s23 1 35.57 21.78zm46.36-3.61c-12.76.4-30.39 1.84-38.45 6.53l-.38-.13L238.24 326s12.06-2.71 15.77-1.34c-.01.02 24.51 18.11 37.8 57.52z" opacity=".3"/></g><path d="M1026.524 554.974s-6.31-.19-14.75.09c-12.76.4-30.39 1.84-38.45 6.53l-.38-.13-7.38-2.58-.15-.22c-1.36-2-12.33-17.75-28-24.16l-22.16-61.92s23 1 35.57 21.78l6.31 2.28s37.55-11.12 58.57-7.12zm-69.37-58.32l14.47 60.03m-6.06 2.21l-14.06-59.99" fill="none" stroke="#263238" stroke-linecap="round" stroke-linejoin="round"/><path d="M929.844 532.934c-3.21-.89-9.68-20.18-6.72-28.49 0 0 3.52-6.11 5-6.53 2.24-.65 11.28-.46 10.84 1.06-1 3.52-7.94 3.46-7.94 3.46l-2.25 4.12.09 2.27s3.27-2.38 4.47-2.31c.62 0 3.82 1.6 6.36 2.94 2.17 1.15 3.5 1.78 3 2.82-1.61 3.46-8.46 1-8.46 1l-2.58 3.89s2.49.43 3.58.55 10.14 6.15 9.87 6.9c-1.07 2.94-9.65-.24-9.65-.24l-1.52 1.27s6.32 1.63 7 1.87c1 .37 4.85 3.33 4.79 3.67-.46 2.6-5.77.69-5.77.69l-4.65-.19a5.72 5.72 0 01-2.48 1.28" fill="#fff" stroke="#263238" stroke-linecap="round" stroke-linejoin="round"/><path d="M928.824 508.824s-3 2.52-3.77 3.25-.58 3.05-.58 3.05m2.18 5.12a6.939 6.939 0 002.48 4.9c.78.82-1.25 3.05 1 4.65" fill="none" stroke="#263238" stroke-linecap="round" stroke-linejoin="round"/><path d="M1074.774 600.754c-6.35 1.73-13.25-9.43-21.67-21.61-5.56-8-11.78-16.53-18.93-22-.57-.43-1.15-.85-1.73-1.25l4.18-21c8.68 4.55 14.06 11.84 23.07 19.33 14.5 12.07 27.35 19.48 30.91 24.82s-4.95 18.74-15.83 21.71z" fill="#fff"/><g clip-path="url(#d)" transform="translate(719.964 172.884)"><path d="M333.14 406.25c-5.56-8-11.78-16.53-18.93-22a7 7 0 002.77-.42s11.3 9.17 16.16 22.42z" fill="#e37ab0" opacity=".4"/></g><path d="M1074.774 600.754c-6.35 1.73-13.25-9.43-21.67-21.61h0c-5.56-8-11.78-16.53-18.93-22-.57-.43-1.15-.85-1.73-1.25l4.18-21c8.68 4.55 14.06 11.84 23.07 19.33 14.5 12.07 27.35 19.48 30.91 24.82s-4.95 18.74-15.83 21.71z" fill="none" stroke="#263238" stroke-linecap="round" stroke-linejoin="round"/><path d="M1038.964 555.064a3.47 3.47 0 01-2 1.62 6.987 6.987 0 01-.69.23h-.19c-6.71 1.75-21.81-1.89-21.81-1.89s-9.89-4.7-10.49-5.81a27.218 27.218 0 01-1.11-2.7l-.27-.79s-3.56-2-4-3.56-1.19-2 1-2.28 14 0 14 0l-12.85-5.24s-8.51-4.29-9.3-5.8-1.78-2.51 2.57-1.91 13.85 3.36 13.85 3.36l7.49 1.59-7.44-3.17s-14.64-1.77-11.87-6.32h8.31a85.783 85.783 0 0114 1.78c2.42.74 18.42 10.68 18.42 10.68" fill="#fff"/><g clip-path="url(#e)" transform="translate(719.964 172.884)"><path d="M316.1 384.07c-6.71 1.75-21.81-1.89-21.81-1.89s-9.89-4.7-10.49-5.81a27.228 27.228 0 01-1.11-2.7l12.14 1.33a5.15 5.15 0 000 5c1.35 2.43 16.73 4.89 21.27 4.07z" fill="#e37ab0" opacity=".4"/></g><path d="M1038.964 555.064a3.47 3.47 0 01-2 1.62 6.987 6.987 0 01-.69.23h-.19c-6.71 1.75-21.81-1.89-21.81-1.89s-9.89-4.7-10.49-5.81a27.218 27.218 0 01-1.11-2.7l-.27-.79s-3.56-2-4-3.56-1.19-2 1-2.28 14 0 14 0l-12.85-5.24s-8.51-4.29-9.3-5.8-1.78-2.51 2.57-1.91 13.85 3.36 13.85 3.36l7.49 1.59-7.44-3.17s-14.64-1.77-11.87-6.32h8.31a85.783 85.783 0 0114 1.78c2.42.74 18.42 10.68 18.42 10.68m-34.2 10.91l14.61 2.15" fill="none" stroke="#263238" stroke-linecap="round" stroke-linejoin="round"/><path d="M856.744 590.504l36.62 11 67-15.29s-40.92-11.62-41.3-11.33-62.32 15.62-62.32 15.62z" fill="#e37ab0"/><g clip-path="url(#f)" transform="translate(719.964 172.884)"><path d="M136.78 417.62l36.62 11 67-15.29s-40.92-11.62-41.3-11.33-62.32 15.62-62.32 15.62z" fill="rgba(0,0,0,0.7)" opacity=".3"/></g><path d="M856.744 590.504l36.62 11 67-15.29s-40.92-11.62-41.3-11.33-62.32 15.62-62.32 15.62z" fill="none" stroke="#263238" stroke-linecap="round" stroke-linejoin="round"/><path d="M857.274 577.604c-2.57.18-3.21 9.44-.53 12.9l59.16-12.28 4.74-11.22z" fill="#e37ab0"/><g clip-path="url(#g)" transform="translate(719.964 172.884)"><path d="M137.31 404.72c-2.57.18-3.21 9.44-.53 12.9l59.16-12.28 4.74-11.22z" fill="rgba(0,0,0,0.7)" opacity=".3"/></g><path d="M857.274 577.604c-2.57.18-3.21 9.44-.53 12.9l59.16-12.28 4.74-11.22z" fill="none" stroke="#263238" stroke-linecap="round" stroke-linejoin="round"/><path d="M957.494 577.474s-.88 4.87-.31 7.87l-63.89 14.46-33.68-9.92s-3.5-6.19-.45-11l61.54-10.45z" fill="#fff" stroke="#263238" stroke-linecap="round" stroke-linejoin="round"/><path d="M857.274 577.604l63.37-10.6 39.35 9.97-66.18 13.19z" fill="#e37ab0" stroke="#263238" stroke-linecap="round" stroke-linejoin="round"/><path d="M859.524 583.524l33.51 9.98 54.85-11.04m9.12 1.02l-58.98 12.58m-37.71-8.61c.51.05 25.26 7.67 25.26 7.67m66.61-13.95l4.69-.76m-64.93 16.56l-2.49-.56" fill="none" stroke="#263238" stroke-linecap="round" stroke-linejoin="round"/><path d="M859.164 578.884a8.82 8.82 0 01.45 11 10.41 10.41 0 01-.45-11z" fill="#263238"/><g clip-path="url(#h)" transform="translate(719.964 172.884)"><path d="M139.2 406a8.82 8.82 0 01.45 11 10.41 10.41 0 01-.45-11z" fill="rgba(255,255,255,0.7)" opacity=".3"/></g><path d="M859.164 578.884a8.82 8.82 0 01.45 11 10.41 10.41 0 01-.45-11z" fill="none" stroke="#263238" stroke-linecap="round" stroke-linejoin="round"/><path d="M996.034 593.504l63.95 2.62-6.23 22.01-78.67-3z" fill="#fff"/><g clip-path="url(#i)" transform="translate(719.964 172.884)"><path d="M276.07 420.62l63.95 2.62-6.23 22.01-78.67-3z" fill="#e37ab0" opacity=".4"/></g><path d="M996.034 593.504l63.95 2.62-6.23 22.01-78.67-3z" fill="none" stroke="#263238" stroke-linecap="round" stroke-linejoin="round"/></g></svg>