<svg xmlns="http://www.w3.org/2000/svg" width="375" height="731.569"><path fill="#fff" d="M0 .352h375v731H0z"/><g transform="translate(-753.104 -240.363)"><circle cx="25.375" cy="25.375" r="25.375" transform="rotate(-21.8 1689.733 -1772.117)" fill="none" stroke="#e37ab0" stroke-linecap="round" stroke-linejoin="round"/><path d="M818.309 490.366c8.846-10.385 16.371-16.262 19.268-14.348 4.411 2.9-3.5 22.673-17.668 44.158s-29.229 36.56-33.639 33.652c-2.908-1.9-.46-11.136 5.6-23.363" fill="none" stroke="#e37ab0" stroke-linecap="round" stroke-linejoin="round"/><path d="M787.094 520.128c-12.336-3.551-20.213-7.695-19.716-11 .715-5.235 22.03-6.447 47.49-2.63s45.479 11.052 44.715 16.262c-.545 3.635-10.906 5.3-25.63 4.738" fill="none" stroke="#e37ab0" stroke-linecap="round" stroke-linejoin="round"/><path d="M790.329 501.745c-9.307-16.8-13.96-29.9-10.809-31.943 4.144-2.678 20.164 14.7 35.784 38.777s24.915 45.842 20.782 48.532c-2.739 1.769-10.676-5.235-20.261-17.159" fill="none" stroke="#e37ab0" stroke-linecap="round" stroke-linejoin="round"/><path d="M841.152 486.997a4.169 4.169 0 11.594-3.142 4.169 4.169 0 01-.594 3.142zm-13.802 63.85a4.169 4.169 0 11.594-3.142 4.169 4.169 0 01-.594 3.142zm-22.273-43.322a4.169 4.169 0 11-1.212-5.78 4.169 4.169 0 011.212 5.78z" fill="#e37ab0"/></g><g transform="rotate(27 134.018 558.205)" fill="none"><path d="M0 0h119.82v119.82H0z"/><ellipse cx="39.633" cy="15.154" rx="39.633" ry="15.154" transform="translate(20.205 14.91)" stroke="#6f99e3" stroke-linecap="round" stroke-linejoin="round" stroke-width="1.5"/><path d="M19.97 29.955V59.91c0 8.272 17.882 14.977 39.94 14.977s39.94-6.706 39.94-14.977V29.955" stroke="#6f99e3" stroke-linecap="round" stroke-linejoin="round" stroke-width="1.5"/><path d="M19.97 59.91v29.955c0 8.272 17.882 14.977 39.94 14.977s39.94-6.706 39.94-14.977V59.91" stroke="#6f99e3" stroke-linecap="round" stroke-linejoin="round" stroke-width="1.5"/></g><g transform="rotate(-28 1312.605 326.388)" fill="none"><path d="M0 0h88.08v88.08H0z"/><path d="M11.01 11.01v66.06h66.06" stroke="#e37ab0" stroke-linecap="round" stroke-linejoin="round" stroke-width="1.5"/><ellipse cx="7.405" cy="7.052" rx="7.405" ry="7.052" transform="translate(25.388 26.02)" stroke="#e37ab0" stroke-linecap="round" stroke-linejoin="round" stroke-width="1.5"/><circle cx="7.405" cy="7.405" r="7.405" transform="translate(62.06 18.262)" stroke="#e37ab0" stroke-linecap="round" stroke-linejoin="round" stroke-width="1.5"/><circle cx="7.405" cy="7.405" r="7.405" transform="translate(43.724 47.882)" stroke="#e37ab0" stroke-linecap="round" stroke-linejoin="round" stroke-width="1.5"/><path stroke="#e37ab0" stroke-linecap="round" stroke-linejoin="round" stroke-width="1.5" d="M37.287 38.975l8.588 10.57m9.498-.631l10.412-16.831"/></g><g fill="none"><path d="M301.548 216.852H353v51.452h-51.452z"/><path d="M307.98 253.297l12.863-12.863 8.575 8.575 17.151-17.15" stroke="#6f99e3" stroke-linecap="round" stroke-linejoin="round" stroke-width="1.5"/><path d="M331.562 231.859h15.007v15.007" stroke="#6f99e3" stroke-linecap="round" stroke-linejoin="round" stroke-width="1.5"/></g><g transform="rotate(-51.98 839.332 1059.974)" fill="none" stroke="#6f99e3" stroke-linecap="round" stroke-linejoin="round"><circle cx="19.556" cy="19.556" r="19.556" transform="rotate(-80.68 650.296 -241.773)"/><circle cx="21.69" cy="21.69" r="21.69" transform="rotate(-11.59 2441.75 -3768.802)"/><path d="M823.842 414.882l-8.998 3.209m10.253.502l-12.942 4.678m13.426-.197l-14.448 5.557m13.427.556l-13.175 6.023m10.844-1.327l-10.002 4.159m3.244-44.885c-.556-1.793-6.9-2.9-7.17 1.793s6.686.789 8.658-1.793c0 0-3.585 4.822-2.079 5.772m35.726.072l-5.629 11.705s2.814-5.862 5.826-5.378c3.711.663 1.237 6.74-3.244 4.5"/></g></svg>