<svg xmlns="http://www.w3.org/2000/svg" width="1366.576" height="683.352"><path fill="#fff" d="M.452.352h1366v683H.452z"/><g transform="rotate(27 581.75 2423.07)" fill="none"><path d="M0 0h227.934v227.934H0z"/><ellipse cx="75.393" cy="28.827" rx="75.393" ry="28.827" transform="translate(38.436 28.363)" stroke="#6f99e3" stroke-linecap="round" stroke-linejoin="round" stroke-width="1.5"/><path d="M37.989 56.983v56.983c0 15.736 34.016 28.492 75.978 28.492s75.978-12.756 75.978-28.492V56.983" stroke="#6f99e3" stroke-linecap="round" stroke-linejoin="round" stroke-width="1.5"/><path d="M37.989 113.967v56.983c0 15.736 34.016 28.492 75.978 28.492s75.978-12.756 75.978-28.492v-56.983" stroke="#6f99e3" stroke-linecap="round" stroke-linejoin="round" stroke-width="1.5"/></g><g transform="translate(-752.652 -442.363)"><circle cx="57.828" cy="57.828" r="57.828" transform="rotate(-21.8 1800.92 -1790.623)" fill="none" stroke="#e37ab0" stroke-linecap="round" stroke-linejoin="round"/><path d="M883.477 517.015c20.16-23.667 37.309-37.061 43.91-32.7 10.052 6.6-7.981 51.67-40.264 100.633s-66.61 83.318-76.662 76.69c-6.628-4.336-1.049-25.379 12.759-53.244" fill="none" stroke="#e37ab0" stroke-linecap="round" stroke-linejoin="round"/><path d="M812.338 584.84c-28.113-8.091-46.064-17.536-44.932-25.075 1.629-11.93 50.206-14.692 108.228-5.993s103.643 25.186 101.9 37.061c-1.243 8.285-24.855 12.068-58.408 10.8" fill="none" stroke="#e37ab0" stroke-linecap="round" stroke-linejoin="round"/><path d="M819.712 542.946c-21.209-38.276-31.814-68.129-24.634-72.8 9.445-6.1 45.953 33.5 81.551 88.372s56.779 104.472 47.362 110.6c-6.241 4.032-24.33-11.93-46.174-39.1" fill="none" stroke="#e37ab0" stroke-linecap="round" stroke-linejoin="round"/><path d="M935.534 509.338a9.5 9.5 0 111.354-7.16 9.5 9.5 0 01-1.354 7.16zm-31.455 145.51a9.5 9.5 0 111.354-7.16 9.5 9.5 0 01-1.354 7.16zM853.32 556.12a9.5 9.5 0 11-2.762-13.173 9.5 9.5 0 012.762 13.173z" fill="#e37ab0"/></g><g transform="rotate(4.01 4891.302 -3548.628)" fill="none" stroke="#6f99e3" stroke-linecap="round" stroke-linejoin="round"><circle cx="28.975" cy="28.975" r="28.975" transform="rotate(-80.68 663.759 -230.34)"/><circle cx="32.135" cy="32.135" r="32.135" transform="rotate(-11.59 2499.84 -3819.007)"/><path d="M843.242 426.089l-13.332 4.754m15.191.744l-19.175 6.932m19.891-.293l-21.406 8.233m19.894.823l-19.52 8.924m16.066-1.965l-14.819 6.161m4.807-66.502c-.823-2.656-10.225-4.3-10.623 2.656s9.906 1.169 12.828-2.656c0 0-5.312 7.144-3.081 8.552m52.931.106l-8.34 17.342s4.17-8.684 8.631-7.967c5.5.983 1.833 9.986-4.807 6.666"/></g><g transform="rotate(-28 1478.044 -1035.209)" fill="none"><path d="M0 0h124.9v124.9H0z"/><path d="M15.612 15.612v93.672h93.672" stroke="#e37ab0" stroke-linecap="round" stroke-linejoin="round" stroke-width="1.5"/><ellipse cx="10.5" cy="10" rx="10.5" ry="10" transform="translate(36 36.896)" stroke="#e37ab0" stroke-linecap="round" stroke-linejoin="round" stroke-width="1.5"/><circle cx="10.5" cy="10.5" r="10.5" transform="translate(88 25.896)" stroke="#e37ab0" stroke-linecap="round" stroke-linejoin="round" stroke-width="1.5"/><circle cx="10.5" cy="10.5" r="10.5" transform="translate(62 67.896)" stroke="#e37ab0" stroke-linecap="round" stroke-linejoin="round" stroke-width="1.5"/><path stroke="#e37ab0" stroke-linecap="round" stroke-linejoin="round" stroke-width="1.5" d="M52.873 55.266L65.05 70.253m13.468-.895l14.764-23.865"/></g><g fill="none"><path d="M0 493.352h189.952v189.952H0z"/><path d="M23.744 627.902l47.488-47.488 31.659 31.658 63.317-63.317" stroke="#6f99e3" stroke-linecap="round" stroke-linejoin="round" stroke-width="1.5"/><path d="M110.805 548.755h55.4v55.4" stroke="#6f99e3" stroke-linecap="round" stroke-linejoin="round" stroke-width="1.5"/></g></svg>