<svg xmlns="http://www.w3.org/2000/svg" width="500.175" height="349"><g transform="translate(-683 -2077.635)"><path d="M826.505 2093.466s262.788-60.814 302.561 55.951 129.847 167.826-76.536 228-303.674 63.676-314.59 18.667-68.212-49.616-52.1-143.462 140.665-159.156 140.665-159.156z" fill="#ffe6f3"/><rect width="157.057" height="118.372" rx="8.55" transform="translate(744.893 2147.286)" opacity=".2"/><rect width="157.057" height="118.372" rx="8.55" transform="translate(741 2141.055)" fill="#fff" stroke="#263238" stroke-linecap="round" stroke-linejoin="round"/><path d="M791.777 2195.195l-33.576 10.9a35.332 35.332 0 0122.68-44.514 33.545 33.545 0 0110.9-1.735z" fill="#6f99e3" stroke="#263238" stroke-linecap="round" stroke-linejoin="round"/><path d="M791.776 2195.195l20.764 28.562a35.321 35.321 0 01-49.327-7.817 33.587 33.587 0 01-5.014-9.848z" fill="#fff" stroke="#263238" stroke-linecap="round" stroke-linejoin="round"/><path d="M791.776 2195.198l33.6-10.917a34.771 34.771 0 01-12.81 39.479z" fill="#263238" stroke="#263238" stroke-linecap="round" stroke-linejoin="round"/><path d="M791.776 2195.195v-35.332a34.782 34.782 0 0133.6 24.415z" fill="#fff" stroke="#263238" stroke-linecap="round" stroke-linejoin="round"/><circle cx="22.024" cy="22.024" r="22.024" transform="translate(769.805 2173.15)" fill="#fff" stroke="#263238" stroke-linecap="round" stroke-linejoin="round"/><path fill="#6f99e3" stroke="#263238" stroke-linecap="round" stroke-linejoin="round" d="M837.052 2157.706h48.396v4.009h-48.396z"/><path fill="#263238" stroke="#263238" stroke-linecap="round" stroke-linejoin="round" d="M837.052 2166.284h37.987v4.009h-37.987z"/><path fill="#fff" stroke="#263238" stroke-linecap="round" stroke-linejoin="round" d="M837.052 2174.864h27.916v4.009h-27.916z"/><path fill="#6f99e3" stroke="#263238" stroke-linecap="round" stroke-linejoin="round" d="M837.052 2183.443h39.669v4.009h-39.669z"/><path fill="#263238" stroke="#263238" stroke-linecap="round" stroke-linejoin="round" d="M837.052 2192.022h18.851v4.009h-18.851z"/><path fill="#fff" stroke="#263238" stroke-linecap="round" stroke-linejoin="round" d="M837.052 2200.611h48.396v4.009h-48.396z"/><path fill="#6f99e3" stroke="#263238" stroke-linecap="round" stroke-linejoin="round" d="M837.052 2209.19h35.639v4.009h-35.639z"/><path fill="#263238" stroke="#263238" stroke-linecap="round" stroke-linejoin="round" d="M837.052 2217.77h31.143v4.009h-31.143z"/><path fill="#fff" stroke="#263238" stroke-linecap="round" stroke-linejoin="round" d="M837.052 2226.349h48.396v4.009h-48.396z"/><path fill="none" stroke="#263238" stroke-linecap="round" stroke-linejoin="round" d="M773.814 2238.038h37.511m-42.821 5.289h48.132m21.706-5.289h37.511m-42.821 5.289h48.132"/><rect width="137.434" height="103.584" rx="8.55" transform="translate(765.288 2315.027)" opacity=".2"/><rect width="137.434" height="103.584" rx="8.55" transform="translate(760.612 2309.59)" fill="#fff" stroke="#263238" stroke-linecap="round" stroke-linejoin="round"/><path fill="none" stroke="#263238" stroke-linecap="round" stroke-linejoin="round" d="M770.027 2358.832h18.332m-18.332 4.147h28.995m-28.995 4.136h18.332m-18.332 4.136h26.446m-26.446 4.147h18.332m-18.332 4.136h32.391m13.52-20.702h18.332m-18.332 4.147h28.995m-28.995 4.136h18.332m-18.332 4.136h26.446m-26.446 4.147h18.332m-18.332 4.136h32.391m13.519-20.702h18.332m-18.332 4.147h28.985m-28.985 4.136h18.332m-18.332 4.136h26.435m-26.435 4.147h18.332m-18.332 4.136h32.391"/><path fill="#263238" d="M768.853 2345.229h35.48v7.098h-35.48zm46.714 0h35.48v7.098h-35.48zm46.714 0h35.48v7.098h-35.48z"/><path fill="none" stroke="#263238" stroke-linecap="round" stroke-linejoin="round" d="M809.865 2344.816v35.914m46.333-35.914v35.914"/><path d="M783.313 2328.409l7.68-2.5a8.071 8.071 0 11-10.176-5.183 7.7 7.7 0 012.5-.391z" fill="#6f99e3" stroke="#263238" stroke-miterlimit="10" stroke-width=".5"/><path d="M783.313 2328.408v-8.071a7.944 7.944 0 017.68 5.575z" fill="#263238" stroke="#263238" stroke-miterlimit="10" stroke-width=".5"/><path d="M861.064 2328.409l7.68-2.5a8.071 8.071 0 11-10.166-5.183 7.637 7.637 0 012.486-.391z" fill="#6f99e3" stroke="#263238" stroke-miterlimit="10" stroke-width=".5"/><path d="M861.064 2328.408v-8.071a7.934 7.934 0 017.68 5.575z" fill="#263238" stroke="#263238" stroke-miterlimit="10" stroke-width=".5"/><path d="M809.251 2328.409v8.071a8.072 8.072 0 010-16.143h0z" fill="#6f99e3" stroke="#263238" stroke-miterlimit="10" stroke-width=".5"/><path d="M809.251 2328.409v-8.071a8.072 8.072 0 110 16.143h0z" fill="#263238" stroke="#263238" stroke-miterlimit="10" stroke-width=".5"/><path d="M835.148 2328.408l7.68 2.5a8.076 8.076 0 11-15.36-4.993 7.944 7.944 0 017.68-5.575z" fill="#6f99e3" stroke="#263238" stroke-miterlimit="10" stroke-width=".5"/><path d="M835.147 2328.409v-8.071a8.071 8.071 0 018.082 8.071 7.711 7.711 0 01-.4 2.5z" fill="#263238" stroke="#263238" stroke-miterlimit="10" stroke-width=".5"/><path d="M886.982 2328.408l7.68 2.5a8.076 8.076 0 01-15.36-4.993 7.944 7.944 0 017.68-5.575z" fill="#6f99e3" stroke="#263238" stroke-miterlimit="10" stroke-width=".5"/><path d="M886.981 2328.409v-8.071a8.061 8.061 0 018.071 8.071 7.7 7.7 0 01-.391 2.5z" fill="#263238" stroke="#263238" stroke-miterlimit="10" stroke-width=".5"/><path fill="#6f99e3" stroke="#263238" stroke-linecap="round" stroke-linejoin="round" stroke-width=".75" d="M881.502 2401.685h7.066v2.391h-7.066z"/><path fill="#263238" stroke="#263238" stroke-linecap="round" stroke-linejoin="round" stroke-width=".75" d="M873.653 2389.742h7.066v14.334h-7.066z"/><path fill="#fff" stroke="#263238" stroke-linecap="round" stroke-linejoin="round" stroke-width=".75" d="M865.814 2394.894h7.066v9.193h-7.066z"/><path fill="#6f99e3" stroke="#263238" stroke-linecap="round" stroke-linejoin="round" stroke-width=".75" d="M857.965 2387.722h7.066v16.354h-7.066z"/><path fill="#263238" stroke="#263238" stroke-linecap="round" stroke-linejoin="round" stroke-width=".75" d="M850.116 2399.855h7.066v4.231h-7.066z"/><path fill="#fff" stroke="#263238" stroke-linecap="round" stroke-linejoin="round" stroke-width=".75" d="M842.267 2398.565h7.066v5.511h-7.066z"/><path fill="#6f99e3" stroke="#263238" stroke-linecap="round" stroke-linejoin="round" stroke-width=".75" d="M834.418 2393.053h7.066v11.033h-7.066z"/><path fill="#263238" stroke="#263238" stroke-linecap="round" stroke-linejoin="round" stroke-width=".75" d="M826.568 2402.246h7.066v1.841h-7.066z"/><path fill="#fff" stroke="#263238" stroke-linecap="round" stroke-linejoin="round" stroke-width=".75" d="M818.72 2389.742h7.066v14.334h-7.066z"/><path fill="#6f99e3" stroke="#263238" stroke-linecap="round" stroke-linejoin="round" stroke-width=".75" d="M810.87 2392.503h7.066v11.583h-7.066z"/><path fill="#263238" stroke="#263238" stroke-linecap="round" stroke-linejoin="round" stroke-width=".75" d="M803.031 2403.526h7.066v.55h-7.066z"/><path fill="#fff" stroke="#263238" stroke-linecap="round" stroke-linejoin="round" stroke-width=".75" d="M795.183 2403.346h7.066v.73h-7.066z"/><path fill="#6f99e3" stroke="#263238" stroke-linecap="round" stroke-linejoin="round" stroke-width=".75" d="M787.333 2394.894h7.066v9.193h-7.066z"/><path fill="#263238" stroke="#263238" stroke-linecap="round" stroke-linejoin="round" stroke-width=".75" d="M779.484 2402.246h7.066v1.841h-7.066z"/><path fill="#fff" stroke="#263238" stroke-linecap="round" stroke-linejoin="round" stroke-width=".75" d="M771.635 2400.405h7.066v3.681h-7.066z"/><rect width="157.057" height="118.372" rx="8.55" transform="translate(931.442 2225.344)" opacity=".2"/><rect width="157.057" height="118.372" rx="8.55" transform="translate(925.995 2219.124)" fill="#fff" stroke="#263238" stroke-linecap="round" stroke-linejoin="round"/><path fill="#6f99e3" stroke="#263238" stroke-linecap="round" stroke-linejoin="round" stroke-width=".75" d="M1065.016 2311.737h8.145v9.034h-8.145z"/><path fill="#263238" stroke="#263238" stroke-linecap="round" stroke-linejoin="round" stroke-width=".75" d="M1055.961 2266.568h8.145v54.193h-8.145z"/><path fill="#fff" stroke="#263238" stroke-linecap="round" stroke-linejoin="round" stroke-width=".75" d="M1046.906 2286.032h8.145v34.739h-8.145z"/><path fill="#6f99e3" stroke="#263238" stroke-linecap="round" stroke-linejoin="round" stroke-width=".75" d="M1037.861 2258.93h8.145v61.841h-8.145z"/><path fill="#263238" stroke="#263238" stroke-linecap="round" stroke-linejoin="round" stroke-width=".75" d="M1028.807 2304.787h8.145v15.984h-8.145z"/><path fill="#fff" stroke="#263238" stroke-linecap="round" stroke-linejoin="round" stroke-width=".75" d="M1019.751 2299.921h8.145v20.839h-8.145z"/><path fill="#6f99e3" stroke="#263238" stroke-linecap="round" stroke-linejoin="round" stroke-width=".75" d="M1010.706 2279.082h8.145v41.689h-8.145z"/><path fill="#263238" stroke="#263238" stroke-linecap="round" stroke-linejoin="round" stroke-width=".75" d="M1001.651 2313.821h8.145v6.95h-8.145z"/><path fill="#fff" stroke="#263238" stroke-linecap="round" stroke-linejoin="round" stroke-width=".75" d="M992.597 2266.568h8.145v54.193h-8.145z"/><path fill="#6f99e3" stroke="#263238" stroke-linecap="round" stroke-linejoin="round" stroke-width=".75" d="M983.552 2276.998h8.145v43.773h-8.145z"/><path fill="#263238" stroke="#263238" stroke-linecap="round" stroke-linejoin="round" stroke-width=".75" d="M974.497 2318.677h8.145v2.084h-8.145z"/><path fill="#fff" stroke="#263238" stroke-linecap="round" stroke-linejoin="round" stroke-width=".75" d="M965.441 2317.989h8.145v2.782h-8.145z"/><path fill="#6f99e3" stroke="#263238" stroke-linecap="round" stroke-linejoin="round" stroke-width=".75" d="M956.387 2286.032h8.145v34.739h-8.145z"/><path fill="#263238" stroke="#263238" stroke-linecap="round" stroke-linejoin="round" stroke-width=".75" d="M947.342 2313.821h8.145v6.95h-8.145z"/><path fill="#fff" stroke="#263238" stroke-linecap="round" stroke-linejoin="round" stroke-width=".75" d="M938.287 2306.871h8.145v13.9h-8.145z"/><path fill="#6f99e3" stroke="#263238" stroke-miterlimit="10" d="M939.345 2243.856h134.345v6.876H939.345z"/><path fill="#263238" stroke="#263238" stroke-miterlimit="10" d="M974.74 2244.353h21.791v5.871H974.74z"/><path fill="#fff" stroke="#263238" stroke-miterlimit="10" d="M997.409 2244.353h40.928v5.871h-40.928z"/><rect width="127.089" height="95.787" rx="8.55" transform="translate(944.274 2097.462)" opacity=".2"/><rect width="127.089" height="95.787" rx="8.55" transform="translate(939.599 2091.241)" fill="#fff" stroke="#263238" stroke-linecap="round" stroke-linejoin="round"/><path fill="none" stroke="#263238" stroke-miterlimit="10" stroke-width=".5" d="M945.501 2178.058h119.324m-119.324 0v1.767m7.955-1.767v1.767m7.955-1.767v1.767m7.955-1.767v1.767m7.955-1.767v1.767m7.955-1.767v1.767m7.954-1.767v1.767m7.956-1.767v1.767m7.955-1.767v1.767m7.955-1.767v1.767m7.955-1.767v1.767m7.955-1.767v1.767m7.955-1.767v1.767m7.955-1.767v1.767m7.955-1.767v1.767m7.954-1.767v1.767"/><path d="M949.478 2176.619h111.369v-15.391l-7.881-15.233a1.258 1.258 0 01-.106-.339l-7-45.18a.847.847 0 10-1.693 0l-7.13 55.156a1.058 1.058 0 01-.37.677l-6.865 5.289a.8.8 0 01-1.227-.349l-6.918-14.27a.793.793 0 00-1.386-.18l-7.151 9.256-7.955 10.261-7.955-10.261-7.013-9.045a.8.8 0 00-1.439.317l-7.4 23.093-7.96-41.16-7.955 45.265-7.955-6.157-6.347-17.877c-.36-1.058-1.65-.719-1.65.381z" fill="#6f99e3"/><path d="M1060.847 2176.651H949.478v-13.186l7.87-13.1a.771.771 0 00.106-.3l7-38.854a.867.867 0 011.7 0l7.119 47.433a.91.91 0 00.381.582l6.865 4.57a.857.857 0 001.227-.3l6.908-12.271a.857.857 0 011.386-.148l7.162 7.934 7.955 8.822 7.955-8.822 7-7.775a.867.867 0 011.449.275l7.4 19.856h7.955l7.955 3.533 7.955-5.289 6.347-15.37a.857.857 0 011.661.328z" fill="#263238"/><path fill="none" stroke="#263238" stroke-linecap="round" stroke-linejoin="round" d="M1009.786 2104.01h24.648m-24.648 5.775h24.648m-24.648 5.766h24.648m-24.648 5.775h24.648m-24.648 5.766h24.648m-24.648 5.775h24.648m-30.254-28.857h3.089m-3.089 5.775h3.089m-3.089 5.766h3.089m-3.089 5.775h3.089m-3.089 5.766h3.089m-3.089 5.775h3.089"/></g></svg>