<svg xmlns="http://www.w3.org/2000/svg" width="500" height="349"><defs><clipPath id="a"><path fill="none" d="M0 0h105.813v69.422H0z"/></clipPath><clipPath id="b"><path fill="none" d="M0 0h99v2H0z"/></clipPath><clipPath id="c"><path fill="none" d="M0 0h4v72H0z"/></clipPath></defs><g transform="translate(-697.999 -2880.461)"><path d="M891.63 2880.461s240.313 21.756 285.011 142.447 36.413 103.374-195.524 165.574-268.778 46.523-281.046 0 33.148-91.852 51.252-188.853 140.307-119.168 140.307-119.168z" fill="#e1f7f7"/><g transform="translate(753 2931)" fill="#e8e8e8" stroke="#707070"><rect width="356" height="248.964" rx="15" stroke="none"/><rect x=".5" y=".5" width="355" height="247.964" rx="14.5" fill="none"/></g><g transform="translate(756 2934)" stroke="#707070"><rect width="349" height="242.964" rx="15" stroke="none"/><rect x=".5" y=".5" width="348" height="241.964" rx="14.5" fill="none"/></g><path d="M766 2945h317a15 15 0 0115 15v190.964a15 15 0 01-15 15H766V2945z" fill="#fff"/><path fill="#f4f4f4" d="M766 2945h332v21H766z"/><path fill="#6f99e3" d="M766 2966h65v199.964h-65z"/><path fill="#8bb1f4" d="M766 2997.99h65v13h-65z"/><rect width="58" height="13" rx="6.5" transform="translate(768 3044.983)" fill="#e37ab0"/><text transform="translate(780 3053)" fill="#fff" font-size="5" font-family="TsukuARdGothic-Bold, Tsukushi A Round Gothic" font-weight="700"><tspan x="0" y="0">学習データ投稿</tspan></text><text transform="translate(778 2993)" fill="#fff" font-size="5" font-family="TsukuARdGothic-Bold, Tsukushi A Round Gothic" font-weight="700"><tspan x="0" y="0">学習内容</tspan></text><g fill="#fff" stroke="#d1d1d1"><path d="M1020 3083.964h64a5 5 0 015 5v77h-74v-77a5 5 0 015-5z" stroke="none"/><path d="M1020 3084.464h64a4.5 4.5 0 014.5 4.5v76a.5.5 0 01-.5.5h-72a.5.5 0 01-.5-.5v-76a4.5 4.5 0 014.5-4.5z" fill="none"/></g><g fill="#fff" stroke="#e5e5e5" stroke-width=".5"><path d="M1019 3090.964h67v19h-67z" stroke="none"/><path fill="none" d="M1019.25 3091.214h66.5v18.5h-66.5z"/></g><g font-family="TsukuARdGothic-Regular, Tsukushi A Round Gothic"><text font-size="4" transform="translate(1021.999 3093.964)"><tspan x="0" y="4">ここには学習内容が入ります。こ</tspan><tspan x="0" y="9">こには学習内容が入ります。</tspan></text><text transform="translate(1022.999 3106.964)" font-size="2"><tspan x="0" y="0">2021/01/01</tspan></text></g><g fill="#fff" stroke="#e5e5e5" stroke-width=".5"><path d="M1019 3111.964h67v19h-67z" stroke="none"/><path fill="none" d="M1019.25 3112.214h66.5v18.5h-66.5z"/></g><text transform="translate(1022 3114.964)" font-size="4" font-family="TsukuARdGothic-Regular, Tsukushi A Round Gothic"><tspan x="0" y="4">ここには学習内容が入ります。こ</tspan><tspan x="0" y="9">こには学習内容が入ります。</tspan></text><text transform="translate(1023 3127.964)" font-size="2" font-family="TsukuARdGothic-Regular, Tsukushi A Round Gothic"><tspan x="0" y="0">2021/01/01</tspan></text><g fill="#fff" stroke="#e5e5e5" stroke-width=".5"><path d="M1019 3132.964h67v19h-67z" stroke="none"/><path fill="none" d="M1019.25 3133.214h66.5v18.5h-66.5z"/></g><text transform="translate(1022 3135.964)" font-size="4" font-family="TsukuARdGothic-Regular, Tsukushi A Round Gothic"><tspan x="0" y="4">ここには学習内容が入ります。こ</tspan><tspan x="0" y="9">こには学習内容が入ります。</tspan></text><text transform="translate(1023 3148.964)" font-size="2" font-family="TsukuARdGothic-Regular, Tsukushi A Round Gothic"><tspan x="0" y="0">2021/01/01</tspan></text><text transform="translate(778 3006)" fill="#fff" font-size="5" font-family="TsukuARdGothic-Bold, Tsukushi A Round Gothic" font-weight="700"><tspan x="0" y="0">学習状況</tspan></text><text transform="translate(778 3019)" fill="#fff" font-size="5" font-family="TsukuARdGothic-Bold, Tsukushi A Round Gothic" font-weight="700"><tspan x="0" y="0">学習最適化</tspan></text><text transform="translate(778 3032)" fill="#fff" font-size="5" font-family="TsukuARdGothic-Bold, Tsukushi A Round Gothic" font-weight="700"><tspan x="0" y="0">振り返り</tspan></text><text transform="translate(778 3132)" fill="#fff" font-size="5" font-family="TsukuARdGothic-Bold, Tsukushi A Round Gothic" font-weight="700"><tspan x="0" y="0">設定</tspan></text><text transform="translate(778 3145)" fill="#fff" font-size="5" font-family="TsukuARdGothic-Bold, Tsukushi A Round Gothic" font-weight="700"><tspan x="0" y="0">ヘルプ</tspan></text><text transform="translate(778 3119)" fill="#fff" font-size="5" font-family="TsukuARdGothic-Bold, Tsukushi A Round Gothic" font-weight="700"><tspan x="0" y="0">プロフィール</tspan></text><text transform="translate(1041 2956)" font-size="3" font-family="TsukuARdGothic-Bold, Tsukushi A Round Gothic" font-weight="700"><tspan x="0" y="0">山田太郎さん</tspan></text><ellipse cx="6" cy="5.5" rx="6" ry="5.5" transform="translate(1026 2950)" fill="#fff"/><g transform="translate(1026.53 2950.875)" fill="none"><path d="M0 0h9.468v9.468H0z"/><circle cx="1.5" cy="1.5" r="1.5" transform="translate(3.47 1.125)" stroke="#2c3e50" stroke-linecap="round" stroke-linejoin="round" stroke-width="1.5"/><path d="M2.638 8.284v-.789a1.578 1.578 0 011.578-1.578h1.578a1.578 1.578 0 011.578 1.578v.789" stroke="#2c3e50" stroke-linecap="round" stroke-linejoin="round" stroke-width="1.5"/></g><g fill="#fff"><path d="M775.097 3141.73a2.8 2.8 0 10.821 1.98 2.792 2.792 0 00-.821-1.98zm-.41.411a2.219 2.219 0 11-1.569-.65 2.211 2.211 0 011.568.649z"/><path d="M772.971 3144.509a.283.283 0 10.283.283.283.283 0 00-.283-.283zm-.641-1.702l.193.154a.1.1 0 00.133 0 .261.261 0 01.1-.085.617.617 0 01.316-.076.479.479 0 01.311.111.349.349 0 01.082.1.183.183 0 01.023.083.345.345 0 01-.035.163.33.33 0 01-.063.084.7.7 0 01-.153.11c-.06.034-.125.064-.191.1a.59.59 0 00-.213.19.515.515 0 00-.067.148.628.628 0 00-.021.167v.111a.1.1 0 00.1.1h.25a.1.1 0 00.1-.1v-.111a.17.17 0 010-.045.055.055 0 01.013-.025.177.177 0 01.047-.034c.038-.021.1-.05.166-.087a1.106 1.106 0 00.332-.257.767.767 0 00.13-.225.831.831 0 00.049-.289.639.639 0 00-.076-.3.835.835 0 00-.318-.327.947.947 0 00-.481-.13 1.078 1.078 0 00-.543.137.607.607 0 00-.2.172.1.1 0 000 .16z"/></g><path d="M775.808 3129.78l-.611-.028a.144.144 0 01-.126-.089l-.126-.3a.144.144 0 01.027-.152l.412-.452a.144.144 0 000-.2l-.512-.513a.144.144 0 00-.2 0l-.451.407a.144.144 0 01-.152.027l-.3-.126a.144.144 0 01-.091-.126l-.029-.611a.144.144 0 00-.143-.137h-.719a.144.144 0 00-.144.137l-.028.611a.144.144 0 01-.089.126l-.302.126a.144.144 0 01-.152-.027l-.452-.412a.144.144 0 00-.2 0l-.507.513a.144.144 0 000 .2l.412.452a.144.144 0 01.018.151l-.125.3a.144.144 0 01-.126.089l-.608.034a.144.144 0 00-.141.14v.718a.144.144 0 00.141.142l.611.028a.144.144 0 01.126.089l.125.3a.144.144 0 01-.026.152l-.412.452a.144.144 0 000 .2l.508.508a.144.144 0 00.2 0l.452-.412a.144.144 0 01.156-.017l.3.126a.144.144 0 01.089.127l.028.611a.144.144 0 00.144.137h.719a.144.144 0 00.144-.137l.028-.611a.144.144 0 01.089-.127l.3-.126a.144.144 0 01.152.027l.452.412a.144.144 0 00.2 0l.508-.508a.145.145 0 000-.2l-.412-.452a.144.144 0 01-.022-.157l.126-.3a.143.143 0 01.126-.089l.613-.033a.144.144 0 00.135-.141v-.719a.144.144 0 00-.135-.14zm-2.665 1.414a.914.914 0 11.918-.914.915.915 0 01-.918.914zm1.098-12.515c-.237-.144-.322-.13-.322-.419v-.461c.13-.144.177-.126.287-.693.222 0 .208-.289.313-.545.085-.208.014-.293-.058-.328.059-.76.059-1.283-.8-1.445a1.2 1.2 0 00-1.012-.131 1.148 1.148 0 01-.425 0l.038.36c-.327.392-.163.916-.216 1.222-.069.037-.131.124-.049.323.1.256.09.545.313.545.11.566.157.548.287.693v.462c0 .289-.1.294-.322.419-.539.3-1.241.476-1.367 1.418-.023.172.966.36 2.349.361s2.372-.189 2.349-.361c-.124-.943-.833-1.094-1.365-1.42z" fill="#fff"/><g fill="#fff"><path d="M772.384 3016.271h.4v.4h.486v-.4h.4v-.483h-.4v-.4h-.486v.4h-.4zm-.097-.048v-.464h-1.7v.467zm1.166 1.058v-.466h-2.631v.467zm-.002.591h-2.631v.467h2.631z"/><path d="M774.483 3014.406h-4.7v5.593h3.427l1.268-1.269zm-4.167.528h3.642v3.8h-.745v.741h-2.9v-4.541z"/></g><g fill="#fff"><path d="M774.161 3001.545c-1.105.153-2.164 2.226-2.684 3.186-.131.241.1.367.232.136.1-.166.333-.648.46-.623.609.1.934-.3.7-.546.775.016 1.159-.41.939-.669a1.161 1.161 0 00.868-.1.742.742 0 00-.515-1.384z"/><path d="M774.028 3003.627a1.565 1.565 0 01-.431.288v2.146a.169.169 0 01-.169.169h-2.963a.169.169 0 01-.169-.169v-2.966a.169.169 0 01.169-.169h1.662c.116-.177.236-.348.357-.508h-2.019a.677.677 0 00-.678.677v2.963a.677.677 0 00.677.677h2.964a.677.677 0 00.677-.677v-2.441s-.027-.037-.077.01z"/></g><path d="M774.997 2990.046a.152.152 0 00-.074-.074 1.508 1.508 0 00-.236-.083 3.185 3.185 0 00-.454-.083 4.863 4.863 0 00-.545-.03 4.589 4.589 0 00-.709.052 2.846 2.846 0 00-.291.061 1.688 1.688 0 00-.173.056 1.675 1.675 0 00-.173-.056 3.178 3.178 0 00-.454-.083 4.868 4.868 0 00-.546-.03 4.589 4.589 0 00-.709.052 2.851 2.851 0 00-.29.061 1.516 1.516 0 00-.236.083.152.152 0 00-.074.074c-.115.029-.246.083-.246.178v2.775a.483.483 0 00.483.483h1.949v.025a.1.1 0 00.095.095h.4a.1.1 0 00.095-.095v-.025h1.952a.483.483 0 00.483-.483v-2.775c0-.095-.131-.149-.247-.178zm-2.633 2.892l-.021-.006a3.153 3.153 0 00-.454-.083 4.867 4.867 0 00-.546-.03 4.609 4.609 0 00-.709.052 2.852 2.852 0 00-.29.061l-.021.006v-2.726q.046-.016.1-.031a2.843 2.843 0 01.409-.074 4.512 4.512 0 01.511-.028 4.316 4.316 0 01.661.048 2.519 2.519 0 01.259.054q.054.015.1.031zm2.344 0l-.02-.01a3.16 3.16 0 00-.454-.083 4.861 4.861 0 00-.545-.03 4.609 4.609 0 00-.709.052 2.846 2.846 0 00-.291.061l-.021.006v-2.722q.046-.016.1-.031a2.832 2.832 0 01.409-.074 4.515 4.515 0 01.511-.028 4.319 4.319 0 01.661.048 2.528 2.528 0 01.259.054c.036.01.07.02.1.031zm.262 36.636v-.438a2 2 0 00-2.141-1.855 2.137 2.137 0 00-.8.155 1.169 1.169 0 00-1.466.406 1.226 1.226 0 00-.944 1.167 1.084 1.084 0 00.019 1.683 1.089 1.089 0 001.49.98v.97h2.512v-.458a2.151 2.151 0 001.151-1.124l.562-.046a.1.1 0 00.089-.13zm-4.635 1.476a.554.554 0 01-.163-.393.563.563 0 010-.068l.021-.176-.154-.088a.56.56 0 01-.2-.2.553.553 0 010-.556.563.563 0 01.193-.2l.144-.088-.018-.168v-.075a.694.694 0 01.608-.688l.14-.017.065-.125a.645.645 0 01.231-.25.637.637 0 01.951.713l-.048.175.146.109a.553.553 0 01.222.444.547.547 0 01-.1.32.56.56 0 01-.262.2l-.257.095.1.255a.555.555 0 01-.517.759.56.56 0 01-.112-.011l-.129-.026-.1.086a.554.554 0 01-.756-.027zm5.186-2.563a.223.223 0 00-.223.223v1.028a.223.223 0 10.447 0v-1.028a.223.223 0 00-.224-.223z" fill="#fff"/><g fill="#fff" stroke="#d1d1d1"><path d="M843.128 2984.735h117.29v81.179h-117.29z" stroke="none"/><path fill="none" d="M843.628 2985.235h116.29v80.179h-116.29z"/></g><text transform="translate(843 2979.994)" font-size="6" font-family="TsukuARdGothic-Bold, Tsukushi A Round Gothic" font-weight="700"><tspan x="0" y="0">学習状況</tspan></text><text transform="translate(843 3077.979)" font-size="5" font-family="TsukuARdGothic-Bold, Tsukushi A Round Gothic" font-weight="700"><tspan x="0" y="0">学習ボード</tspan></text><g fill="#fff" stroke="#d1d1d1"><path d="M848 3083.964h64a5 5 0 015 5v77h-74v-77a5 5 0 015-5z" stroke="none"/><path d="M848 3084.464h64a4.5 4.5 0 014.5 4.5v76a.5.5 0 01-.5.5h-72a.5.5 0 01-.5-.5v-76a4.5 4.5 0 014.5-4.5z" fill="none"/></g><g fill="#fff" stroke="#e5e5e5" stroke-width=".5"><path d="M847 3090.964h67v19h-67z" stroke="none"/><path fill="none" d="M847.25 3091.214h66.5v18.5h-66.5z"/></g><g font-family="TsukuARdGothic-Regular, Tsukushi A Round Gothic"><text font-size="4" transform="translate(849.999 3093.964)"><tspan x="0" y="4">ここには学習内容が入ります。こ</tspan><tspan x="0" y="9">こには学習内容が入ります。</tspan></text><text transform="translate(850.999 3106.964)" font-size="2"><tspan x="0" y="0">2021/01/01</tspan></text></g><g fill="#fff" stroke="#e5e5e5" stroke-width=".5"><path d="M847 3111.964h67v19h-67z" stroke="none"/><path fill="none" d="M847.25 3112.214h66.5v18.5h-66.5z"/></g><text transform="translate(850 3114.964)" font-size="4" font-family="TsukuARdGothic-Regular, Tsukushi A Round Gothic"><tspan x="0" y="4">ここには学習内容が入ります。こ</tspan><tspan x="0" y="9">こには学習内容が入ります。</tspan></text><text transform="translate(851 3127.964)" font-size="2" font-family="TsukuARdGothic-Regular, Tsukushi A Round Gothic"><tspan x="0" y="0">2021/01/01</tspan></text><g fill="#fff" stroke="#e5e5e5" stroke-width=".5"><path d="M847 3132.964h67v19h-67z" stroke="none"/><path fill="none" d="M847.25 3133.214h66.5v18.5h-66.5z"/></g><text transform="translate(850 3135.964)" font-size="4" font-family="TsukuARdGothic-Regular, Tsukushi A Round Gothic"><tspan x="0" y="4">ここには学習内容が入ります。こ</tspan><tspan x="0" y="9">こには学習内容が入ります。</tspan></text><text transform="translate(851 3148.964)" font-size="2" font-family="TsukuARdGothic-Regular, Tsukushi A Round Gothic"><tspan x="0" y="0">2021/01/01</tspan></text><g transform="translate(849.007 2990.893)" clip-path="url(#a)"><path fill="none" stroke="#f2f2f2" stroke-width=".5" d="M0 .5h189M0 11.5h189M0 22.5h189M0 33.5h189M0 44.5h189M0 55.5h189M0 66.5h189"/></g><path fill="#6f99e3" d="M866 3034.983h7v24h-7zm-12 6h8v18h-8zm23-17.998h7v36h-7zm11-7h7v43h-7zm11-5.999h7v49h-7zm12-11.999h6v61h-6zm11 11.999h7v49h-7zm10-16.998h9v66h-9zm11 0h8v66h-8z"/><g fill="#fff" stroke="#d1d1d1"><path d="M971.896 2984.735h117.29v81.179h-117.29z" stroke="none"/><path fill="none" d="M972.396 2985.235h116.29v80.179h-116.29z"/></g><g transform="translate(977.774 2990.893)" clip-path="url(#a)"><path fill="none" stroke="#f2f2f2" stroke-width=".5" d="M0 .5h189M0 11.5h189M0 22.5h189M0 33.5h189M0 44.5h189M0 55.5h189M0 66.5h189"/></g><path fill="#6f99e3" d="M995 3034.983h7v24h-7zm-12 6h8v18h-8zm23-17.998h6v36h-6zm11 0h7v36h-7zm11-12.999h7v49h-7zm11 0h7v49h-7zm11 0h7v49h-7zm12-5.999h7v55h-7zm11-10.999h8v66h-8z"/><g transform="translate(854 3060.981)" clip-path="url(#b)" font-size="4" font-family="TsukuARdGothic-Regular, Tsukushi A Round Gothic"><text transform="translate(0 4)"><tspan x="0" y="0">2020/01</tspan></text><text transform="translate(20 4)"><tspan x="0" y="0">2020/02</tspan></text><text transform="translate(40 4)"><tspan x="0" y="0">2020/03</tspan></text><text transform="translate(60 4)"><tspan x="0" y="0">2020/04</tspan></text><text transform="translate(80 4)"><tspan x="0" y="0">2020/05</tspan></text></g><g transform="translate(983 3060.981)" clip-path="url(#b)" font-size="4" font-family="TsukuARdGothic-Regular, Tsukushi A Round Gothic"><text transform="translate(0 4)"><tspan x="0" y="0">2020/01</tspan></text><text transform="translate(20 4)"><tspan x="0" y="0">2020/02</tspan></text><text transform="translate(40 4)"><tspan x="0" y="0">2020/03</tspan></text><text transform="translate(60 4)"><tspan x="0" y="0">2020/04</tspan></text><text transform="translate(80 4)"><tspan x="0" y="0">2020/05</tspan></text></g><g transform="translate(973 2988.988)" clip-path="url(#c)" font-size="4" font-family="TsukuARdGothic-Regular, Tsukushi A Round Gothic"><text transform="translate(0 4)"><tspan x="0" y="0">11h</tspan></text><text transform="translate(0 15)"><tspan x="0" y="0">10h</tspan></text><text transform="translate(0 26)"><tspan x="0" y="0">9h</tspan></text><text transform="translate(0 37)"><tspan x="0" y="0">8h</tspan></text><text transform="translate(0 48)"><tspan x="0" y="0">7h</tspan></text><text transform="translate(0 59)"><tspan x="0" y="0">6h</tspan></text><text transform="translate(0 70)"><tspan x="0" y="0">5h</tspan></text></g><g transform="translate(844 2989.988)" clip-path="url(#c)" font-size="4" font-family="TsukuARdGothic-Regular, Tsukushi A Round Gothic"><text transform="translate(0 4)"><tspan x="0" y="0">11h</tspan></text><text transform="translate(0 15)"><tspan x="0" y="0">10h</tspan></text><text transform="translate(0 26)"><tspan x="0" y="0">9h</tspan></text><text transform="translate(0 37)"><tspan x="0" y="0">8h</tspan></text><text transform="translate(0 48)"><tspan x="0" y="0">7h</tspan></text><text transform="translate(0 59)"><tspan x="0" y="0">6h</tspan></text><text transform="translate(0 70)"><tspan x="0" y="0">5h</tspan></text></g><g fill="#fff" stroke="#d1d1d1"><path d="M934 3083.964h64a5 5 0 015 5v77h-74v-77a5 5 0 015-5z" stroke="none"/><path d="M934 3084.464h64a4.5 4.5 0 014.5 4.5v76a.5.5 0 01-.5.5h-72a.5.5 0 01-.5-.5v-76a4.5 4.5 0 014.5-4.5z" fill="none"/></g><g fill="#fff" stroke="#e5e5e5" stroke-width=".5"><path d="M933 3090.964h67v19h-67z" stroke="none"/><path fill="none" d="M933.25 3091.214h66.5v18.5h-66.5z"/></g><g font-family="TsukuARdGothic-Regular, Tsukushi A Round Gothic"><text font-size="4" transform="translate(935.999 3093.964)"><tspan x="0" y="4">ここには学習内容が入ります。こ</tspan><tspan x="0" y="9">こには学習内容が入ります。</tspan></text><text transform="translate(936.999 3106.964)" font-size="2"><tspan x="0" y="0">2021/01/01</tspan></text></g><g fill="#fff" stroke="#e5e5e5" stroke-width=".5"><path d="M933 3111.964h67v19h-67z" stroke="none"/><path fill="none" d="M933.25 3112.214h66.5v18.5h-66.5z"/></g><text transform="translate(936 3114.964)" font-size="4" font-family="TsukuARdGothic-Regular, Tsukushi A Round Gothic"><tspan x="0" y="4">ここには学習内容が入ります。こ</tspan><tspan x="0" y="9">こには学習内容が入ります。</tspan></text><text transform="translate(937 3127.964)" font-size="2" font-family="TsukuARdGothic-Regular, Tsukushi A Round Gothic"><tspan x="0" y="0">2021/01/01</tspan></text><g fill="#fff" stroke="#e5e5e5" stroke-width=".5"><path d="M933 3132.964h67v19h-67z" stroke="none"/><path fill="none" d="M933.25 3133.214h66.5v18.5h-66.5z"/></g><text transform="translate(936 3135.964)" font-size="4" font-family="TsukuARdGothic-Regular, Tsukushi A Round Gothic"><tspan x="0" y="4">ここには学習内容が入ります。こ</tspan><tspan x="0" y="9">こには学習内容が入ります。</tspan></text><text transform="translate(937 3148.964)" font-size="2" font-family="TsukuARdGothic-Regular, Tsukushi A Round Gothic"><tspan x="0" y="0">2021/01/01</tspan></text><text transform="translate(780 2957)" fill="#e37ab0" font-size="5" font-family="TsukuARdGothic-Bold, Tsukushi A Round Gothic" font-weight="700"><tspan x="0" y="0">Learn</tspan></text><g transform="translate(774 2953)" fill="#e37ab0" stroke="#e37ab0"><rect width="5" height="5" rx="1" stroke="none"/><rect x=".5" y=".5" width="4" height="4" rx=".5" fill="none"/></g><path d="M775.504 2954.425c-.14.15-1.119 2.31-.416 2.623a6.553 6.553 0 003.034.045c.088-.16.156-.439-.044-.453a13.282 13.282 0 01-2.146.268c-.207-.056-.716-.41-.076-1 .559-.513 2.265-1.26 2.223-1.385a2.162 2.162 0 00-1.672-.5 1.6 1.6 0 00-.903.402z" fill="#fff"/><path d="M980 3152.964h103a5 5 0 015 5v8H975v-8a5 5 0 015-5z" fill="#e37ab0"/><text transform="translate(999 3159.964)" fill="#fff" font-size="3" font-family="TsukuARdGothic-Bold, Tsukushi A Round Gothic" font-weight="700"><tspan x="0" y="0">何かお困りではありませんか?</tspan></text><g transform="translate(990.371 3155.64)" fill="none"><path d="M0 0h7.664v7.664H0z"/><ellipse cx="2.5" cy="2" rx="2.5" ry="2" transform="translate(.629 1.324)" stroke="#fff" stroke-linecap="round" stroke-linejoin="round"/><path d="M7.266 6.706L5.35 4.79m-2.157-.639v.003m0-.961a.479.479 0 10-.364-.79" stroke="#fff" stroke-linecap="round" stroke-linejoin="round"/></g></g></svg>