<svg xmlns="http://www.w3.org/2000/svg" width="500" height="349"><path d="M93.703 13.35s242.272-53.905 283.051 54.929 238.78 150.129 27.172 206.217-336.1 99.746-347.293 57.793-70.255-87.75-53.738-175.222S93.703 13.35 93.703 13.35z" fill="#eaf1ff"/><g transform="translate(26 22.635)"><path fill="#ebebeb" d="M0 264.046h405.441v.2H0zm338.709 12.903h26.558v.2h-26.558zm-77.124 2.181h6.968v.2h-6.968zm60.145-9.623h15.388v.2H321.73zm-279.663 1.347H76.7v.2H42.067zm42.731 0h5.076v.2h-5.076zm22.082 3.384H182v.2h-75.12zm83.166-47.466H35.211a4.579 4.579 0 01-4.571-4.579V4.539A4.579 4.579 0 0135.211 0h154.835a4.579 4.579 0 014.579 4.579v217.614a4.579 4.579 0 01-4.579 4.579zM35.211.16a4.378 4.378 0 00-4.37 4.378v217.655a4.378 4.378 0 004.37 4.378h154.835a4.386 4.386 0 004.378-4.378V4.539a4.386 4.386 0 00-4.378-4.378zm332.791 226.612H213.159a4.587 4.587 0 01-4.579-4.579V4.539A4.587 4.587 0 01213.159 0h154.843a4.579 4.579 0 014.563 4.539v217.654a4.579 4.579 0 01-4.563 4.579zM213.159.16a4.386 4.386 0 00-4.378 4.378v217.655a4.386 4.386 0 004.378 4.378h154.843a4.386 4.386 0 004.378-4.378V4.539a4.386 4.386 0 00-4.378-4.378z"/><path d="M167.188 58.273a9.085 9.085 0 00-11.7-8.708 18.733 18.733 0 00.209-2.791 19.245 19.245 0 00-22.789-18.908 16.839 16.839 0 00-31.193 8.5h-.281a15.508 15.508 0 000 30.993h56.934a9.077 9.077 0 008.82-9.086zm63.703 41.129a4.515 4.515 0 00-4.515-4.515 4.667 4.667 0 00-1.3.192 8.815 8.815 0 00.1-1.387 9.558 9.558 0 00-9.526-9.558 9.2 9.2 0 00-1.764.168 8.356 8.356 0 00-15.492 4.218h-.136a7.706 7.706 0 000 15.4h28.274a4.507 4.507 0 004.359-4.518zm101.112-44.184a2.767 2.767 0 00-2.767-2.766 2.928 2.928 0 00-.8.12 5.976 5.976 0 00.064-.85 5.854 5.854 0 00-5.854-5.854 6.038 6.038 0 00-1.083.1 5.116 5.116 0 00-9.486 2.59h-.088a4.723 4.723 0 000 9.438h17.321a2.775 2.775 0 002.694-2.775z" fill="#f0f0f0"/><text transform="translate(109.704 46.484)" fill="#ebebeb" font-size="5" font-family="Helvetica"><tspan x="0" y="0">101010000111110101010101</tspan></text><text transform="translate(115.794 46.484)" fill="#ebebeb" font-size="5" font-family="Helvetica"><tspan x="0" y="0">001101100110001101011111</tspan></text><text transform="translate(121.889 46.484)" fill="#ebebeb" font-size="5" font-family="Helvetica"><tspan x="0" y="0">111110101010101011110000</tspan></text><text transform="translate(127.988 46.484)" fill="#ebebeb" font-size="5" font-family="Helvetica"><tspan x="0" y="0">101010000111110101010101</tspan></text><text transform="translate(134.083 46.484)" fill="#ebebeb" font-size="5" font-family="Helvetica"><tspan x="0" y="0">000101011111000000110101</tspan></text><text transform="translate(140.178 46.484)" fill="#ebebeb" font-size="5" font-family="Helvetica"><tspan x="0" y="0">110011001101010101001100</tspan></text><path fill="#f5f5f5" d="M36.486 148.776H218.12v115.535H36.486z"/><path fill="#e0e0e0" d="M36.486 148.089H218.12v7.826H36.486z"/><path d="M217.811 152.002a2.358 2.358 0 11-2.358-2.358 2.358 2.358 0 012.358 2.358zm-7.924 0a2.358 2.358 0 11-2.358-2.358 2.358 2.358 0 012.358 2.358zm-7.931 0a2.358 2.358 0 11-2.358-2.358 2.358 2.358 0 012.358 2.358z" fill="#fafafa"/><path d="M69.331 169.696l-1.115-1.556a2.173 2.173 0 00-1.74-.914h-7.882a1.892 1.892 0 00-1.6.914l-.938 1.556a1.892 1.892 0 01-1.6.914h-4.739a1.909 1.909 0 00-1.949 2.021l1.524 26.31a2.189 2.189 0 002.149 2.053h37.263a1.909 1.909 0 001.908-2.053l-1.524-26.31a2.181 2.181 0 00-2.141-2.045H71.071a2.173 2.173 0 01-1.74-.89z" fill="#e0e0e0"/><path d="M90.669 173.124H56.537a2.863 2.863 0 00-2.807 2.558l-2.053 22.789a2.309 2.309 0 002.341 2.558h34.144a2.871 2.871 0 002.807-2.558l2.053-22.789a2.309 2.309 0 00-2.35-2.558z" fill="#e6e6e6"/><path d="M127.491 169.697l-1.083-1.556a2.173 2.173 0 00-1.74-.914h-7.882a1.9 1.9 0 00-1.6.914l-.938 1.556a1.892 1.892 0 01-1.6.914h-4.7a1.908 1.908 0 00-1.916 2.045l1.514 26.311a2.189 2.189 0 002.021 2.053h37.263a1.9 1.9 0 001.911-2.053l-1.483-26.334a2.2 2.2 0 00-2.149-2.045h-15.87a2.173 2.173 0 01-1.748-.891z" fill="#e0e0e0"/><path d="M148.904 173.124h-34.168a2.863 2.863 0 00-2.807 2.558l-2.053 22.789a2.309 2.309 0 002.349 2.558h34.136a2.871 2.871 0 002.807-2.558l2.053-22.789a2.309 2.309 0 00-2.317-2.558z" fill="#e6e6e6"/><path d="M185.059 169.697l-1.123-1.556a2.157 2.157 0 00-1.74-.914h-7.882a1.9 1.9 0 00-1.6.914l-.938 1.556a1.892 1.892 0 01-1.6.914h-4.7a1.892 1.892 0 00-1.908 2.045l1.508 26.311a2.205 2.205 0 002.149 2.053h37.2a1.908 1.908 0 001.916-2.053l-1.519-26.335a2.181 2.181 0 00-2.149-2.045h-15.874a2.157 2.157 0 01-1.74-.89z" fill="#e0e0e0"/><path d="M206.429 173.124h-34.136a2.871 2.871 0 00-2.807 2.558l-2.053 22.789a2.309 2.309 0 002.35 2.558h34.134a2.871 2.871 0 002.807-2.558l2.053-22.789a2.309 2.309 0 00-2.35-2.558z" fill="#e6e6e6"/><path d="M69.33 218.323l-1.115-1.556a2.173 2.173 0 00-1.74-.914h-7.884a1.892 1.892 0 00-1.6.914l-.938 1.556a1.892 1.892 0 01-1.6.914h-4.737a1.909 1.909 0 00-1.917 2.045l1.524 26.31a2.181 2.181 0 002.149 2.045h37.263a1.9 1.9 0 001.908-2.045l-1.524-26.31a2.181 2.181 0 00-2.141-2.045H71.07a2.173 2.173 0 01-1.74-.914z" fill="#e0e0e0"/><path d="M90.669 221.739H56.537a2.863 2.863 0 00-2.807 2.558l-2.053 22.789a2.3 2.3 0 002.341 2.55h34.144a2.863 2.863 0 002.807-2.55l2.053-22.789a2.309 2.309 0 00-2.35-2.558z" fill="#e6e6e6"/><path d="M127.492 218.323l-1.083-1.556a2.173 2.173 0 00-1.74-.914h-7.882a1.9 1.9 0 00-1.6.914l-.938 1.556a1.892 1.892 0 01-1.6.914h-4.7a1.909 1.909 0 00-1.916 2.045l1.524 26.31a2.181 2.181 0 002.149 2.045h37.263a1.892 1.892 0 001.908-2.045l-1.612-26.31a2.2 2.2 0 00-2.149-2.045H129.24a2.173 2.173 0 01-1.748-.914z" fill="#e0e0e0"/><path d="M148.904 221.739h-34.168a2.863 2.863 0 00-2.807 2.558l-2.053 22.789a2.3 2.3 0 002.35 2.55h34.136a2.863 2.863 0 002.807-2.55l2.053-22.789a2.309 2.309 0 00-2.317-2.558z" fill="#e6e6e6"/><path d="M185.059 218.323l-1.123-1.556a2.157 2.157 0 00-1.74-.914h-7.882a1.9 1.9 0 00-1.6.914l-.938 1.556a1.892 1.892 0 01-1.6.914h-4.7a1.892 1.892 0 00-1.908 2.045l1.516 26.31a2.2 2.2 0 002.149 2.045h37.2a1.908 1.908 0 001.917-2.045l-1.524-26.31a2.181 2.181 0 00-2.149-2.045h-15.878a2.157 2.157 0 01-1.74-.914z" fill="#e0e0e0"/><path d="M206.429 221.739h-34.136a2.871 2.871 0 00-2.807 2.558l-2.053 22.789a2.3 2.3 0 002.35 2.55h34.134a2.863 2.863 0 002.807-2.55l2.053-22.789a2.309 2.309 0 00-2.35-2.558z" fill="#e6e6e6"/><rect width="62.811" height="18.443" rx="2.67" transform="translate(304.693 245.411)" fill="#e6e6e6"/><path d="M361.338 254.629a3.873 3.873 0 11-3.873-3.873 3.873 3.873 0 013.873 3.873z" fill="#f5f5f5"/><path d="M359.405 254.633a1.973 1.973 0 11-1.973-1.973 1.973 1.973 0 011.973 1.973z" fill="#e6e6e6"/><path fill="#f5f5f5" d="M344.715 252.427h4.41v4.41h-4.41z"/><rect width="62.811" height="18.443" rx="2.67" transform="translate(304.693 226.165)" fill="#e6e6e6"/><path d="M361.338 235.384a3.873 3.873 0 11-3.873-3.873 3.873 3.873 0 013.873 3.873z" fill="#f5f5f5"/><path d="M359.405 235.387a1.973 1.973 0 11-1.973-1.973 1.973 1.973 0 011.973 1.973z" fill="#e6e6e6"/><path fill="#f5f5f5" d="M344.715 233.182h4.41v4.41h-4.41z"/><rect width="62.811" height="18.443" rx="2.67" transform="translate(304.693 206.606)" fill="#e6e6e6"/><path d="M361.338 215.807a3.873 3.873 0 11-3.873-3.873 3.873 3.873 0 013.873 3.873z" fill="#f5f5f5"/><path d="M359.405 215.805a1.973 1.973 0 11-1.973-1.973 1.973 1.973 0 011.973 1.973z" fill="#e6e6e6"/><path fill="#f5f5f5" d="M344.715 213.6h4.41v4.41h-4.41z"/><rect width="62.811" height="18.443" rx="2.67" transform="translate(304.693 187.249)" fill="#e6e6e6"/><path d="M361.338 196.454a3.873 3.873 0 11-3.873-3.873 3.873 3.873 0 013.873 3.873z" fill="#f5f5f5"/><path d="M359.405 196.453a1.973 1.973 0 11-1.973-1.973 1.973 1.973 0 011.973 1.973z" fill="#e6e6e6"/><path fill="#f5f5f5" d="M344.715 194.248h4.41v4.41h-4.41z"/><rect width="62.811" height="18.443" rx="2.67" transform="translate(304.693 167.892)" fill="#e6e6e6"/><path d="M361.338 177.102a3.873 3.873 0 11-3.873-3.873 3.873 3.873 0 013.873 3.873z" fill="#f5f5f5"/><path d="M359.405 177.102a1.973 1.973 0 11-1.973-1.973 1.973 1.973 0 011.973 1.973z" fill="#e6e6e6"/><path fill="#f5f5f5" d="M344.715 174.897h4.41v4.41h-4.41z"/><rect width="62.811" height="18.443" rx="2.67" transform="translate(304.693 148.534)" fill="#e6e6e6"/><path d="M361.338 157.749a3.873 3.873 0 11-3.873-3.873 3.873 3.873 0 013.873 3.873z" fill="#f5f5f5"/><path d="M359.405 157.751a1.973 1.973 0 11-1.973-1.973 1.973 1.973 0 011.973 1.973z" fill="#e6e6e6"/><path fill="#f5f5f5" d="M344.715 155.545h4.41v4.41h-4.41z"/><path d="M314.688 260.053l-1.123-1.556a2.149 2.149 0 00-1.74-.906h-7.874a1.9 1.9 0 00-1.644.906l-.938 1.556a1.885 1.885 0 01-1.6.914h-4.7a1.9 1.9 0 00-1.908 2.045l1.524 26.31a2.189 2.189 0 002.141 2.053h37.213a1.908 1.908 0 001.916-2.053l-1.523-26.31a2.181 2.181 0 00-2.149-2.045h-15.887a2.157 2.157 0 01-1.708-.914z" fill="#6f99e3"/><path d="M314.688 260.053l-1.123-1.556a2.149 2.149 0 00-1.74-.906h-7.874a1.9 1.9 0 00-1.644.906l-.938 1.556a1.885 1.885 0 01-1.6.914h-4.7a1.9 1.9 0 00-1.908 2.045l1.524 26.31a2.189 2.189 0 002.141 2.053h37.213a1.908 1.908 0 001.916-2.053l-1.523-26.31a2.181 2.181 0 00-2.149-2.045h-15.887a2.157 2.157 0 01-1.708-.914z" fill="#fff" opacity=".5"/><path d="M336.018 263.477h-34.132a2.863 2.863 0 00-2.807 2.55l-2.053 22.789a2.309 2.309 0 002.35 2.558h34.136a2.863 2.863 0 002.807-2.558l2.053-22.789a2.3 2.3 0 00-2.349-2.55z" fill="#6f99e3"/><path d="M336.018 263.477h-34.132a2.863 2.863 0 00-2.807 2.55l-2.053 22.789a2.309 2.309 0 002.35 2.558h34.136a2.863 2.863 0 002.807-2.558l2.053-22.789a2.3 2.3 0 00-2.349-2.55z" fill="#fff" opacity=".7"/><g transform="translate(185.769 244.28)"><path fill="#263238" d="M1.459 7.153h48.722v34.024H1.459z"/><rect width="38.811" height="11.395" rx="1.65" transform="translate(13.223 35.692)" fill="#6f99e3"/><rect width="38.811" height="11.395" rx="1.65" transform="translate(13.223 35.692)" opacity=".2" style="isolation:isolate"/><rect width="38.811" height="11.395" rx="1.65" transform="translate(0 35.692)" fill="#6f99e3"/><path d="M34.986 41.393a2.406 2.406 0 11-2.406-2.406 2.406 2.406 0 012.406 2.406z" fill="#f5f5f5" opacity=".3"/><circle cx="1.219" cy="1.219" r="1.219" transform="translate(31.378 40.174)" fill="#6f99e3"/><path fill="#f5f5f5" opacity=".3" d="M24.738 40.03h2.726v2.726h-2.726z"/><rect width="38.811" height="11.395" rx="1.65" transform="translate(13.223 23.8)" fill="#6f99e3"/><rect width="38.811" height="11.395" rx="1.65" transform="translate(13.223 23.8)" opacity=".2" style="isolation:isolate"/><rect width="38.811" height="11.395" rx="1.65" transform="translate(0 23.8)" fill="#6f99e3"/><path d="M34.986 29.494a2.406 2.406 0 11-2.406-2.406 2.406 2.406 0 012.406 2.406z" fill="#f5f5f5" opacity=".3"/><path d="M33.808 29.494a1.219 1.219 0 11-1.171-1.227 1.219 1.219 0 011.171 1.227z" fill="#6f99e3"/><path fill="#f5f5f5" opacity=".3" d="M24.738 28.13h2.726v2.726h-2.726z"/><rect width="38.811" height="11.395" rx="1.65" transform="translate(13.223 11.9)" fill="#6f99e3"/><rect width="38.811" height="11.395" rx="1.65" transform="translate(13.223 11.9)" opacity=".2" style="isolation:isolate"/><rect width="38.811" height="11.395" rx="1.65" transform="translate(0 11.9)" fill="#6f99e3"/><path d="M34.986 17.598a2.406 2.406 0 11-2.406-2.406 2.406 2.406 0 012.406 2.406z" fill="#f5f5f5" opacity=".3"/><path d="M33.808 17.593a1.219 1.219 0 11-1.211-1.219 1.219 1.219 0 011.211 1.219z" fill="#6f99e3"/><path fill="#f5f5f5" opacity=".3" d="M24.738 16.23h2.726v2.726h-2.726z"/><rect width="38.811" height="11.395" rx="1.65" transform="translate(13.223)" fill="#6f99e3"/><rect width="38.811" height="11.395" rx="1.65" transform="translate(13.223)" opacity=".2" style="isolation:isolate"/><rect width="38.811" height="11.395" rx="1.65" fill="#6f99e3"/><path d="M34.986 5.694a2.406 2.406 0 11-2.406-2.406 2.406 2.406 0 012.406 2.406z" fill="#f5f5f5" opacity=".3"/><path d="M33.808 5.694a1.219 1.219 0 11-1.211-1.219 1.219 1.219 0 011.211 1.219z" fill="#6f99e3"/><path fill="#f5f5f5" opacity=".3" d="M24.738 4.33h2.726v2.726h-2.726z"/><path fill="#263238" d="M45.098 25.315H93.82v15.853H45.098z"/><rect width="38.811" height="11.395" rx="1.65" transform="translate(56.853 35.692)" fill="#6f99e3"/><rect width="38.811" height="11.395" rx="1.65" transform="translate(56.853 35.692)" opacity=".2" style="isolation:isolate"/><rect width="38.811" height="11.395" rx="1.65" transform="translate(43.638 35.692)" fill="#6f99e3"/><path d="M78.616 41.393a2.406 2.406 0 11-2.406-2.406 2.406 2.406 0 012.406 2.406z" fill="#f5f5f5" opacity=".3"/><path d="M77.446 41.393a1.219 1.219 0 11-1.219-1.219 1.219 1.219 0 011.219 1.219z" fill="#6f99e3"/><path fill="#f5f5f5" opacity=".3" d="M68.368 40.03h2.726v2.726h-2.726z"/><rect width="38.811" height="11.395" rx="1.65" transform="translate(56.853 23.8)" fill="#6f99e3"/><rect width="38.811" height="11.395" rx="1.65" transform="translate(56.853 23.8)" opacity=".2" style="isolation:isolate"/><rect width="38.811" height="11.395" rx="1.65" transform="translate(43.638 23.8)" fill="#6f99e3"/><path d="M78.616 29.494a2.406 2.406 0 11-2.406-2.406 2.406 2.406 0 012.406 2.406z" fill="#f5f5f5" opacity=".3"/><path d="M77.446 29.493a1.219 1.219 0 11-1.219-1.219 1.219 1.219 0 011.219 1.219z" fill="#6f99e3"/><path fill="#f5f5f5" opacity=".3" d="M68.368 28.13h2.726v2.726h-2.726z"/></g><path d="M158.901 110.894a3.7 3.7 0 113.7-3.7 3.7 3.7 0 01-3.7 3.7zm1.691 16.327h-.088a19.927 19.927 0 01-9.871-2.783l2.013-3.544a15.765 15.765 0 007.858 2.213zm9.863-2.967l-2.021-3.448a15.813 15.813 0 005.746-5.779l3.472 2a19.8 19.8 0 01-7.196 7.227zm-27.031-7.217a19.686 19.686 0 01-2.654-9.863h4.01a15.589 15.589 0 002.117 7.858zm32.877-9.935a15.677 15.677 0 00-2.133-7.85l3.464-2.021a19.766 19.766 0 012.678 9.863zm-29.429-7.754l-3.464-2a19.855 19.855 0 017.217-7.221l2.013 3.464a15.958 15.958 0 00-5.766 5.758zm21.474-5.806a15.893 15.893 0 00-7.826-2.245l-.016-4.17a19.9 19.9 0 019.831 2.783z" fill="#6f99e3"/><path d="M160.592 127.221h-.088a19.927 19.927 0 01-9.871-2.783l2.013-3.544a15.765 15.765 0 007.858 2.213zm9.863-2.967l-2.021-3.448a15.813 15.813 0 005.746-5.779l3.472 2a19.8 19.8 0 01-7.196 7.227zm-27.031-7.217a19.686 19.686 0 01-2.654-9.863h4.01a15.589 15.589 0 002.117 7.858zm32.877-9.935a15.677 15.677 0 00-2.133-7.85l3.464-2.021a19.766 19.766 0 012.678 9.863zm-29.429-7.754l-3.464-2a19.855 19.855 0 017.217-7.221l2.013 3.464a15.958 15.958 0 00-5.766 5.758zm21.474-5.806a15.893 15.893 0 00-7.826-2.245l-.016-4.17a19.9 19.9 0 019.831 2.783z" fill="#fff" opacity=".6"/><g transform="translate(159.121 10.224)"><path d="M8.162 101.382a4.94 4.94 0 114.932-4.94 4.94 4.94 0 01-4.932 4.94z" fill="#6f99e3"/><path d="M8.162 101.382a4.94 4.94 0 114.932-4.94 4.94 4.94 0 01-4.932 4.94z" fill="#fff" opacity=".5"/><circle cx="8.123" cy="8.123" r="8.123" transform="rotate(-76.72 64.74 51.238)" fill="none" stroke="#6f99e3" stroke-miterlimit="10" stroke-width="3"/><path fill="#6f99e3" d="M17.38 95.776h134v1h-134zm-6.816-6.567h-1.6v-9.623a.8.8 0 01.233-.569l49.051-48.915a.8.8 0 01.569-.233h44.769v1.6h-44.44L10.564 79.915zm116.276 80.99H66.699a.8.8 0 01-.569-.233L9.196 113.032a.8.8 0 01-.233-.569v-8.018h1.6v7.69l56.46 56.46h59.812z"/><path d="M86.747 118.879H54.535a.8.8 0 01-.561-.233L32.323 97.133l1.131-1.139 21.418 21.282h31.875zM64.462 97.06l-1.139-1.131 21.579-21.723a.842.842 0 01.569-.233h32.548v1.6H85.808zm122.52-40.728H59.667a.8.8 0 01-.569-.241l-12.782-12.91 1.139-1.131 12.549 12.678h126.978zM73.412 31.241l-1.1-1.139L93.161 9.253a.8.8 0 01.569-.233h66.789v1.6H94.027zm13.037 178.25l-32.348-32.34a.8.8 0 01-.233-.537v-19.245h1.6v18.916l32.075 32.075zm-7.288-39.781l-1.139-1.115 21.266-21.4a.842.842 0 01.569-.233h80.709v1.6h-80.372zm74.947 22.942h-35.952a.8.8 0 01-.569-.233l-22.589-22.588 1.139-1.131 22.348 22.348h35.623z" fill="#6f99e3"/><circle cx="3.673" cy="3.673" r="3.673" transform="translate(156.847 6.15)" fill="#6f99e3"/><path d="M110.799 39.156a8.484 8.484 0 118.484-8.484 8.484 8.484 0 01-8.484 8.484zm0-15.364a6.88 6.88 0 106.88 6.88 6.88 6.88 0 00-6.88-6.88z" fill="#6f99e3"/><circle cx="3.673" cy="3.673" r="3.673" transform="translate(107.13 26.999)" fill="#6f99e3"/><path d="M190.654 55.667a3.673 3.673 0 11-1.073-2.6 3.673 3.673 0 011.073 2.6z" fill="#6f99e3"/><circle cx="3.673" cy="3.673" r="3.673" transform="translate(114.347 71.103)" fill="#6f99e3"/><path d="M158.912 104.91a8.484 8.484 0 118.484-8.484 8.484 8.484 0 01-8.484 8.484zm0-15.364a6.88 6.88 0 106.88 6.88 6.88 6.88 0 00-6.88-6.88z" fill="#6f99e3"/><circle cx="3.673" cy="3.673" r="3.673" transform="translate(155.243 92.754)" fill="#6f99e3"/><circle cx="3.673" cy="3.673" r="3.673" transform="translate(83.074 114.404)" fill="#6f99e3"/><circle cx="3.673" cy="3.673" r="3.673" transform="translate(176.894 144.074)" fill="#6f99e3"/><path d="M134.057 177.753a8.492 8.492 0 118.484-8.492 8.492 8.492 0 01-8.484 8.492zm0-15.372a6.888 6.888 0 106.88 6.88 6.888 6.888 0 00-6.88-6.88z" fill="#6f99e3"/><path d="M137.73 169.261a3.673 3.673 0 11-3.673-3.673 3.673 3.673 0 013.673 3.673z" fill="#6f99e3"/><circle cx="3.673" cy="3.673" r="3.673" transform="translate(150.432 188.177)" fill="#6f99e3"/><path d="M90.69 208.955a3.681 3.681 0 11-3.681-3.673 3.681 3.681 0 013.681 3.673z" fill="#6f99e3"/><rect width="15.813" height="20.648" rx="1.51" transform="translate(168.987)" fill="#6f99e3"/><rect width="15.813" height="20.648" rx="1.51" transform="translate(168.987)" fill="#fff" opacity=".6" style="isolation:isolate"/><path fill="#6f99e3" d="M171.345 2.935h11.09V4.05h-11.09zm0 1.948h11.09v1.115h-11.09zm0 1.957h11.09v1.115h-11.09zm0 1.949h11.09v1.115h-11.09zm0 1.956h11.09v1.115h-11.09zm0 1.957h11.09v1.115h-11.09zm0 1.948h11.09v1.115h-11.09zm0 1.957h7.185v1.115h-7.185z"/><rect width="15.813" height="20.648" rx="1.51" transform="translate(94.476 109.489)" fill="#6f99e3"/><rect width="15.813" height="20.648" rx="1.51" transform="translate(94.476 109.489)" fill="#fff" opacity=".6" style="isolation:isolate"/><path fill="#6f99e3" d="M96.834 112.416h11.09v1.115h-11.09zm0 1.956h11.09v1.115h-11.09zm0 1.949h11.09v1.115h-11.09zm0 1.956h11.09v1.115h-11.09zm0 1.949h11.09v1.115h-11.09zm0 1.957h11.09v1.115h-11.09zm0 1.956h11.09v1.115h-11.09zm0 1.949h7.185v1.115h-7.185z"/><rect width="15.813" height="20.648" rx="1.51" transform="translate(186.981 131.709)" fill="#6f99e3"/><rect width="15.813" height="20.648" rx="1.51" transform="translate(186.981 131.709)" fill="#fff" opacity=".6" style="isolation:isolate"/><path fill="#6f99e3" d="M189.339 134.644h11.09v1.115h-11.09zm0 1.948h11.09v1.115h-11.09zm0 1.957h11.09v1.115h-11.09zm0 1.957h11.09v1.115h-11.09zm0 1.948h11.09v1.115h-11.09zm0 1.957h11.09v1.115h-11.09zm0 1.948h11.09v1.115h-11.09zm0 1.957h7.185v1.115h-7.185z"/><rect width="15.813" height="20.648" rx="1.51" transform="translate(193.252 39.589)" fill="#6f99e3"/><rect width="15.813" height="20.648" rx="1.51" transform="translate(193.252 39.589)" fill="#fff" opacity=".6" style="isolation:isolate"/><path fill="#6f99e3" d="M195.61 42.524h11.09v1.115h-11.09zm0 1.948h11.09v1.115h-11.09zm0 1.957h11.09v1.115h-11.09zm0 1.956h11.09V49.5h-11.09zm0 1.949h11.09v1.115h-11.09zm0 1.957h11.09v1.115h-11.09zm0 1.948h11.09v1.115h-11.09zm0 1.957h7.185v1.115h-7.185z"/><rect width="15.813" height="20.648" rx="1.51" transform="translate(94.773 204.848)" fill="#6f99e3"/><rect width="15.813" height="20.648" rx="1.51" transform="translate(94.773 204.848)" fill="#fff" opacity=".6" style="isolation:isolate"/><path fill="#6f99e3" d="M97.131 207.783h11.09v1.115h-11.09zm0 1.949h11.09v1.115h-11.09zm0 1.957h11.09v1.115h-11.09zm0 1.948h11.09v1.115h-11.09zm0 1.957h11.09v1.115h-11.09zm0 1.956h11.09v1.115h-11.09zm0 1.949h11.09v1.115h-11.09zm0 1.956h7.185v1.115h-7.185z"/><rect width="36.887" height="36.887" rx="1.54" transform="translate(170.896 77.542)" fill="#6f99e3"/><circle cx="12.429" cy="12.429" r="12.429" transform="translate(176.91 83.556)" fill="#fff" opacity=".5"/><path d="M189.339 95.985h12.429a12.413 12.413 0 11-6.215-10.785z" fill="#fff" opacity=".7"/><circle cx="9.623" cy="9.623" r="9.623" transform="translate(179.716 86.363)" fill="#6f99e3"/><circle cx="9.623" cy="9.623" r="9.623" transform="translate(179.716 86.363)" fill="#fff" opacity=".3"/><text transform="translate(185.145 96.852)" fill="#fff" font-size="4" font-family="Helvetica" letter-spacing=".022em"><tspan x="0" y="0">8</tspan><tspan y="0" letter-spacing="0em">0%</tspan></text><rect width="28.066" height="28.066" rx="1.17" transform="translate(145.163 155.364)" fill="#6f99e3"/><path fill="#fff" opacity=".5" d="M164.529 178.723h3.608v1.836h-3.608z"/><path fill="#fff" d="M164.529 160.4h3.608v1.836h-3.608zm0 3.055h3.608v1.836h-3.608z"/><path fill="#fff" opacity=".75" d="M164.529 166.511h3.608v1.836h-3.608z"/><path fill="#fff" opacity=".5" d="M164.529 169.558h3.608v1.836h-3.608zm0 3.055h3.608v1.836h-3.608zm0 3.055h3.608v1.836h-3.608zm-4.908 3.055h3.608v1.836h-3.608z"/><path fill="#fff" d="M159.621 169.558h3.608v1.836h-3.608z"/><path fill="#fff" opacity=".75" d="M159.621 172.613h3.608v1.836h-3.608z"/><path fill="#fff" opacity=".5" d="M159.621 175.668h3.608v1.836h-3.608zm-4.915 3.055h3.608v1.836h-3.608z"/><path fill="#fff" d="M154.706 166.511h3.608v1.836h-3.608z"/><path fill="#fff" opacity=".75" d="M154.706 169.558h3.608v1.836h-3.608z"/><path fill="#fff" opacity=".5" d="M154.706 172.613h3.608v1.836h-3.608zm0 3.055h3.608v1.836h-3.608zm-4.908 3.055h3.608v1.836h-3.608z"/><path fill="#fff" d="M149.798 172.613h3.608v1.836h-3.608z"/><path fill="#fff" opacity=".75" d="M149.798 175.668h3.608v1.836h-3.608z"/><rect width="28.066" height="28.066" rx="1.17" transform="translate(123.697 20.312)" fill="#6f99e3"/><path d="M139.759 31.297v-1.756l-.906-.08a4.538 4.538 0 00-.674-1.6l.577-.706-1.235-1.291-.706.585a4.594 4.594 0 00-1.6-.674l-.088-.906h-1.758l-.08.906a4.635 4.635 0 00-1.6.674l-.7-.585-1.246 1.242.577.706a4.811 4.811 0 00-.674 1.6l-.9.08v1.756l.9.088a4.915 4.915 0 00.674 1.6l-.577.706 1.243 1.243.7-.585a4.635 4.635 0 001.6.674l.08.906h1.756l.088-.906a4.594 4.594 0 001.6-.674l.706.585 1.235-1.243-.577-.706a4.594 4.594 0 00.674-1.6zm-5.525 1.5a2.406 2.406 0 112.406-2.406 2.406 2.406 0 01-2.406 2.406z" fill="#fff" opacity=".9"/><path d="M146.887 36.285v-1.379l-.706-.064a3.737 3.737 0 00-.529-1.275l.457-.545-.97-.978-.553.457a3.7 3.7 0 00-1.267-.529l-.072-.706h-1.371l-.072.706a3.7 3.7 0 00-1.267.529l-.553-.457-.97.978.457.545a3.584 3.584 0 00-.529 1.275l-.714.064v1.379l.714.064a3.544 3.544 0 00.529 1.267l-.457.553.97.97.553-.449a3.681 3.681 0 001.267.521l.072.714h1.371l.072-.714a3.681 3.681 0 001.267-.521l.553.449.97-.97-.457-.553a3.7 3.7 0 00.529-1.267zm-4.33 1.171a1.341 1.341 0 10-.016-.024z" fill="#fff" opacity=".6"/><path d="M139.759 40.164v-1.155l-.593-.056a3.119 3.119 0 00-.449-1.075l.385-.457-.8-.8-.465.385a2.878 2.878 0 00-1.066-.449l-.056-.593h-1.155l-.056.593a2.991 2.991 0 00-1.066.449l-.457-.385-.8.8.377.457a3.1 3.1 0 00-.441 1.075l-.593.056v1.155l.593.056a3.128 3.128 0 00.441 1.066l-.377.457.8.8.457-.377a3.127 3.127 0 001.066.441l.056.593h1.155l.056-.593a3 3 0 001.066-.441l.465.377.8-.8-.385-.457a3.143 3.143 0 00.449-1.066zm-3.641.986a1.564 1.564 0 111.564-1.564 1.6 1.6 0 01-1.564 1.564z" fill="#fff" opacity=".4"/><path fill="#6f99e3" d="M124.387 66.556h24.658v16.038h-24.658z"/><path fill="#fff" opacity=".6" style="isolation:isolate" d="M124.387 66.556h24.658v16.038h-24.658z"/><path fill="#6f99e3" d="M125.285 69.563h22.854v12.229h-22.854z"/><path fill="#fff" d="M127.145 71.391h16.904v.529h-16.904zm0 1.612h8.115v.529h-8.115zm0 1.612h10.216v.529h-10.216zm0 1.612h3.6v.529h-3.6zm0 1.612h2.333v.529h-2.333z"/><path fill="#6f99e3" d="M163.679 188.843h24.658v16.038h-24.658z"/><path fill="#fff" opacity=".6" style="isolation:isolate" d="M163.679 188.843h24.658v16.038h-24.658z"/><path fill="#6f99e3" d="M164.577 191.85h22.854v12.229h-22.854z"/><path fill="#fff" d="M166.437 193.678h16.904v.529h-16.904zm0 1.612h8.115v.529h-8.115zm0 1.612h10.216v.529h-10.216zm0 1.612h3.6v.529h-3.6zm0 1.611h2.333v.529h-2.333z"/><g transform="translate(.456 6.15)" opacity=".4" fill="#fff"><path d="M14.924 89.625h136v1h-136zm-4.816-6.566h-1.6v-9.623a.8.8 0 01.233-.569l49.051-48.915a.8.8 0 01.569-.233h44.769v1.6H58.69L10.108 73.765zm116.276 80.99H66.243a.8.8 0 01-.569-.233L8.74 106.882a.8.8 0 01-.233-.569v-8.018h1.6v7.69l56.46 56.46h59.812z"/><path d="M86.291 112.729H54.079a.8.8 0 01-.561-.233L31.867 90.983l1.131-1.139 21.418 21.282h31.875zm-22.285-21.82l-1.139-1.131 21.579-21.723a.842.842 0 01.569-.233h32.548v1.6H85.352zm122.52-40.728H59.211a.8.8 0 01-.569-.241L45.86 37.03l1.139-1.131 12.549 12.678h126.978zM72.957 25.091l-1.1-1.139L92.706 3.103a.8.8 0 01.569-.233h66.789v1.6H93.572zm13.036 178.25l-32.348-32.34a.8.8 0 01-.233-.537v-19.245h1.6v18.916l32.075 32.075zm-7.288-39.782l-1.139-1.115 21.266-21.4a.842.842 0 01.569-.233h80.709v1.6H99.738zm74.947 22.942H117.7a.8.8 0 01-.569-.233L94.542 163.68l1.139-1.131 22.348 22.348h35.623z"/><circle cx="3.673" cy="3.673" r="3.673" transform="translate(156.391)"/><path d="M110.343 33.006a8.484 8.484 0 118.484-8.484 8.484 8.484 0 01-8.484 8.484zm0-15.364a6.88 6.88 0 106.88 6.88 6.88 6.88 0 00-6.88-6.88zm79.855 31.875a3.673 3.673 0 11-1.073-2.6 3.673 3.673 0 011.073 2.6z"/><circle cx="3.673" cy="3.673" r="3.673" transform="translate(113.891 64.952)"/><path d="M158.456 98.76a8.484 8.484 0 118.484-8.484 8.484 8.484 0 01-8.484 8.484zm0-15.364a6.88 6.88 0 106.88 6.88 6.88 6.88 0 00-6.88-6.88z"/><circle cx="3.673" cy="3.673" r="3.673" transform="translate(82.618 108.254)"/><circle cx="3.673" cy="3.673" r="3.673" transform="translate(176.438 137.924)"/><path d="M133.601 171.603a8.492 8.492 0 118.484-8.492 8.492 8.492 0 01-8.484 8.492zm0-15.372a6.888 6.888 0 106.88 6.88 6.888 6.888 0 00-6.88-6.88z"/><circle cx="3.673" cy="3.673" r="3.673" transform="translate(149.976 182.027)"/><path d="M90.234 202.804a3.681 3.681 0 11-3.681-3.673 3.681 3.681 0 013.681 3.673zM9.31 99.618a9.326 9.326 0 116.61-2.731 9.326 9.326 0 01-6.61 2.731zm0-16.246a6.92 6.92 0 106.92 6.92 6.92 6.92 0 00-6.92-6.92z"/></g></g></g></svg>