<svg xmlns="http://www.w3.org/2000/svg" width="300" height="300"><path fill="none" d="M0 0h300v300H0z"/><path d="M202.989 20.929s-49.356-24.125-97.9-.85-73.194 78.033-94.332 121.724-9.189 92.107 27.782 117.939 62.2-2.756 114.122 1.88 65.859 14.016 109.026-11.324 51.153-96.378 17.334-153.669-76.032-75.7-76.032-75.7z" fill="#ffd5ea"/><g fill="none" stroke="#4f4f4f" stroke-miterlimit="10" stroke-width="3"><path d="M125.646 16.363v93.283m-19.221-58.365h38.441v39.081h39.477"/><path d="M203.039 26.785v44.816h-18.7v79.734h108.045m-108.041-40.128h95.573m-74.28-19.803h66.492"/><path d="M223.821 91.401V72.125h20.257v-9.9M203.04 50.757h19.739m-57.656.524h19.221V18.447m-19.739-.524v54.721M146.42 32.521h18.703m-78.437 6.253v72.432M29.031 115.9v14.591h17.143v-19.284h59.734v20.845h38.959v-19.8h20.774v39.605H86.687"/><path d="M86.687 132.051v38.563H29.031m18.178.524v77.126h39.477m-39.994-38.563H26.953M6.172 190.417h21.299"/><path d="M13.448 150.293h53.5v-18.76m.518 96.928v-38.562h78.436v-18.76h77.918v18.76h19.214v-58.89h21.3m-59.734.525h20.774v-20.327"/><path d="M283.555 220.123v-49.509h-20.257v40.129H146.416v19.8h-20.77v29.183m-.518-10.42h-19.739m20.256-38.563H86.686v55.239m19.739-54.721v19.803m.518-40.648v-18.76m18.703-19.802v19.803"/><path d="M145.384 260.771v-10.947h19.221m1.036 11.989v-31.267m19.22-19.803v39.081h39.477v14.073m-19.22-33.875h72.72m-33.761.524v19.803m-39.995-39.087v-20.845m-19.221-19.279v19.278m-19.738 19.803v-19.278m-39.477-99.537h-19.221m-1.036-19.802h-17.66M41.493 91.404h25.455V58.577m-40.52 169.884v16.151"/></g><path d="M217.724 29.51a102.53 102.53 0 00-14.738-8.581s-49.356-24.125-97.9-.85A121.808 121.808 0 0076.494 39.38l-53.18 206.979a90.348 90.348 0 0015.224 13.383c36.945 25.826 62.2-2.756 114.122 1.88s65.859 14.016 109.026-11.324a66.614 66.614 0 0010.755-7.884z" fill="#fff" opacity=".2"/><path fill="none" stroke="#263238" stroke-miterlimit="10" d="M71.033 60.374l3.229-12.603M29.74 221.703L69.473 66.461M26.428 234.62l1.132-4.406m215.493-101.602l24.764 97.069m-44.7-175.231l18.357 71.959"/><g transform="translate(71.252 64.266)" stroke-miterlimit="10"><ellipse cx="71.723" cy="8.274" rx="71.723" ry="8.274" transform="translate(0 208.853)" fill="#263238" stroke="#263238"/><path d="M75.443 215.842h3.741l7.673-54.062h31.421l2.628 54.254h3.095l2.557-112.535a1.918 1.918 0 00-1.918-1.918l-46.4.422-21.819 59.924 24.624-.147z" fill="#263238" stroke="#263238"/><path d="M121.366 105.083h-42.9l2.8 49.663h38.345z" fill="#8c8c8c" stroke="#263238"/><path d="M15.423 106.768l-.729-52.483h68.417l5.064 87.957H19.042z" fill="#ccc" stroke="#263238"/><path d="M14.694 54.288s5.429 2.558 7.6 23.524 2.9 52.125 2.9 52.125L15.13 119.706z" fill="#263238" stroke="#263238"/><rect width="67.688" height="19.182" rx="3.33" transform="translate(49.446 140.071)" fill="#b8b8b8" stroke="#263238"/><path fill="#263238" stroke="#263238" d="M49.446 140.071h49.868v19.182H49.446z"/><path d="M69.747 44.173s-7.935 2.8-11.362 5.448-4.668 11.362-2.487 19.457.934 10.742-.934 16.5-17.437 16.81-21.324 26.152a23.534 23.534 0 004.514 25.372c5.915 6.068 20.231 6.541 24.592 6.541s9.028-.313 9.028-.313 13.7-.639 24.125-3.427 17.437-11.982 14.79-18.364-11.362-7.941-15.1-9.342a45.327 45.327 0 01-9.655-5.6c-1.4-1.087-2.954-2.494-2.954-2.494s2.647-3.888 5.115-4.981 9.5 1.279 14.476-10.115a21.178 21.178 0 00.639-7.315c-.467-3.427 0-5.915.16-11.676s5.115-10.275 4.354-17.123-13.076-13.7-24.125-11.676-13.852 2.956-13.852 2.956z" fill="#e37ab0" stroke="#263238"/><path d="M45.711 110.979s13.856-6.854 30.3 1.515m-27.947-5.122a26.619 26.619 0 0115.212.94" fill="none" stroke="#263238"/><path d="M81.173 45.394c-.371 6.049-1.56 27.124-.492 32.118 1.279 5.844 11.688 7.935 16.286 4.591s6.215-18.351 7.1-27.552c.313-3.312-1.221-6.944-3.434-10.231a25.883 25.883 0 00-17.027-3.12l-1.01.192c-.8 1.375-1.317 2.379-1.317 2.379s-.048.587-.106 1.623zm-2.583 1.637l-2.558-4.361c-4.834 1.01-6.266 1.483-6.266 1.483s-7.935 2.8-11.362 5.448-4.668 11.362-2.487 19.457a24.813 24.813 0 011.068 8.952c4.629 2.359 12.149 5.224 14.949.735 4.156-6.662 6.656-31.714 6.656-31.714z" fill="#fff" stroke="#263238"/><path d="M61.345 47.888s-8.095 2.18-9.649 13.076 9.962 28.639 12.788 34.247 10.742 18.543 14.476 19.924 7.628-5.608 7.628-13.076-9.809-21.951-12.456-28.019-4.514-15.41-4.514-15.41m49.632 2.167s-1.56 17.264-2.961 27.392-3.734 19.617-7.315 22.725-11.829.467-12.449-6.221 3.12-13.843 4.981-20.538 4.354-18.831 4.514-21.945 11.203-7.167 13.23-1.413z" fill="#fff" stroke="#263238"/><path d="M74.434 19.569s0 1.918-6.138 5.959S55.322 35.17 55.322 41.66s2.98 8.242 7.366 8.594a11.35 11.35 0 007.545-2.283s-1.4 3.5 3.5 7.89 8.952 4.035 11.049 3.159 19.822 6.484 26.651 5.755 11.222-1.918 10.691-9.463a9.646 9.646 0 0011.049-2.807c4.732-5.608 1.579-11.746-2.98-16.625s-6.663-17.9-10.518-24.9S102.628-3.304 89.834 1.6s-12.945 14.984-15.4 17.969z" fill="#263238" stroke="#263238"/><path d="M107.74 18.667s7.43 11.727 16.426 14.47m.628 8.619c5.461 3.836 9.035 6.477 6.394 9.361m-26.907-31.76c2.417 4.725 6.394 11.19 11.676 15.729 1.707 1.471 3.434 2.788 5.115 4m-19.585-25.893s.32.87.953 2.3M83.878 32.58a19.454 19.454 0 01-3.894.556M97.58 5.763s-1.63 16.2-4.693 21.1a12.424 12.424 0 01-5.851 4.687M62.617 45.311a6.918 6.918 0 003.287-.058m26.74-31.497c-.94 3.945-2.717 8.7-6.017 11.164-6.253 4.693-19.547 3.133-24.63 9.387-3.523 4.335-3.728 7.251-2.558 9.016M93.667 7.33s-.077 1.279-.384 3.2m26.024 37.14a8.255 8.255 0 012.123 5.013M98.75 22.58s1.918 10.1 6.253 14.853c2.769 3.044 8.562 5.23 12.475 8.466" fill="none" stroke="#8f8f8f"/><path d="M94.773 30.611s-.352 5.115-2.807 6.138-6.138-.352-6.138-.352 7.545-1.924 8.945-5.786z" fill="#fff" stroke="#263238"/><path d="M96.877 29.735a7.033 7.033 0 01-2.986 7.366 7.552 7.552 0 01-8.242.352s-1.4 4.559-3.159 11.573 2.807 13.146 5.115 16.478 6.49 4.553 8.242 3.677 3.677-2.8 8.76-6.829 7.89-11.573 8.069-12.1-15.448-10.875-15.799-20.517z" fill="#fff" stroke="#263238"/><path d="M103.003 51.545s-1.279 10.231-3.1 12.942c-.78 1.17-3.625-.639-3.625-.639" fill="none" stroke="#263238"/><path d="M95.898 120.648s-1.765 8.076-4.118 10.608-6.5-2.04-6.5-2.04-6.394 12.091-5.294 12.82 11.784 1.33 18.479-1.918 6-16.689 4.195-19.042-4.223-2.428-6.762-.428z" fill="#8f8f8f" stroke="#263238"/><path d="M76.032 116.81s-7.245 3.709-10.231 19.611-4.591 48.774-5.3 54.254-1.918 19.438-1.918 21.74 1.24 2.654 3.715 3.357 6.183 1.061 11.132 2.3 13.779 0 16.784-1.061-.173-5.48-4.591-8.127-10.122-5.5-12.769-8.7-1.918-8.658-1.771-10.953 12.021-39.56 14.5-46.274 6.535-14.847 4.77-21.382-10.25-7.77-14.321-4.765z" fill="#fff" stroke="#263238"/><path d="M85.578 208.879c-4.418-2.654-10.077-5.48-12.724-8.664a10.478 10.478 0 01-1.976-6.464c-6.241 1.407-9.144-1.106-10.4-3.005-.71 5.524-1.918 19.374-1.918 21.663s1.24 2.654 3.715 3.357 6.183 1.061 11.132 2.3 13.779 0 16.785-1.061-.195-5.479-4.614-8.126z" fill="#fff" stroke="#263238"/><path d="M62.253 215.764c.249.077.524.141.8.2a13.741 13.741 0 00-2.743-8.312 8.128 8.128 0 00-1.362-1.419c-.243 2.96-.409 5.352-.409 6.189-.001 2.287 1.239 2.639 3.714 3.342zm16.931 2.814a42.194 42.194 0 0010.991-1.573c2.04-.71 1.2-3.056-.985-5.3-1.407.537-3.2 1.279-5.55 2.3-3.1 1.382-4.13 3.281-4.456 4.573z" fill="#adadad" stroke="#263238"/><path d="M100.068 115.569s-6.394 2.123-4.6 14.847 20.148 43.48 22.443 51.242 4.949 23.5 4.949 28.454 1.771 9.54 7.072 9.188 9.54-1.918 8.127-10.422-6.541-22.443-8.485-28.1-4.77-18.728-7.775-34.988-4.77-21.2-8.658-26.683-11.129-4.951-13.073-3.538z" fill="#fff" stroke="#263238"/><path d="M129.576 180.777c-.249-.735-.524-1.6-.806-2.59a7.219 7.219 0 01-3.785 3.472 14.143 14.143 0 01-6.752 1.138c2.219 8.076 4.629 22.6 4.629 27.316 0 4.949 1.771 9.54 7.072 9.188s9.54-1.918 8.127-10.422-6.541-22.444-8.485-28.102z" fill="#fff" stroke="#263238"/><path d="M138.292 212.977c-5.972-1.2-12.1.416-14.9 1.343.844 3.044 2.82 5.243 6.548 4.994 4.298-.297 7.904-1.397 8.352-6.337z" fill="#adadad" stroke="#263238"/><path d="M73.647 99.11c.128-.531.269-1.087.428-1.65 1.758-6.138 5.62-21.439 6.5-24.419a48.947 48.947 0 001.228-8.063s-1.579-12.974-2.1-15.429a6.784 6.784 0 011.572-5.751c1.049-1.228 2.628-6.835 3.677-5.959s1.055 3.5.531 4.9-1.918 4.214-1.918 4.214v1.694l7.89-8.952s2.1-1.918 2.628 1.579c0 0 1.055-2.455 2.98-1.752s.665 3.37.665 3.37a1.6 1.6 0 012.1 1.228c.352 1.752-2.276 10.87-2.276 10.87s1.752-4.035 2.455-6.138 1.752-2.455 1.918-1.228a17.616 17.616 0 01-1.228 8.242c-1.4 3.159-5.083 7.711-6.311 9.47s-3.5 3.683-3.5 4.38-.352 32.789-.531 37.169-.524 5.787-4.559 7.89a8.227 8.227 0 01-10.87-3.4 14.572 14.572 0 01-1.17-2.558" fill="#fff" stroke="#263238"/><path fill="none" stroke="#263238" d="M97.753 42.888l-4.559 11.746m.876-13.326l-5.787 11.573m-4.732-4.232s-1.579 2.98-1.579 3.836"/><path d="M102.843 65.331c0-3.51-.524-14.38-.524-15.077s.352-2.283 1.228-2.283 1.4 1.752 1.4 2.283v-4.911a1.2 1.2 0 012.1-.876l.7.876s-.7-3.159 1.579-3.159 2.98 3.331 2.98 3.331a2.9 2.9 0 012.455 1.407c.7 1.4 2.276 9.291 2.807 11.394s-1.918 7.034-3.683 11.573-2.807 14.022-1.918 21.209 1.752 11.752 0 15.429-2.807 6.317-8.587 6.49-6.842-3.331-8.069-8.766 4.386-16.132 6.49-22.795 2.628-10.518 2.1-11.919a35.221 35.221 0 01-1.068-4.207z" fill="#fff" stroke="#263238"/><path d="M104.94 50.254s1.752 6.311 1.579 10.339m1.228-15.25s2.98 7.711 2.98 14.2m1.579-14.027s2.276 8.766 2.98 12.974" fill="none" stroke="#263238"/><path d="M9.566 215.797h3.76l7.673-54.017H52.42l2.615 54.017h3.111l2.558-112.274a1.918 1.918 0 00-1.918-1.918l-46.4.422 3.3 58.455z" fill="#263238" stroke="#263238"/><path d="M55.488 105.083h-42.9l2.8 49.663H53.73z" fill="#8c8c8c" stroke="#263238"/></g></svg>