<svg xmlns="http://www.w3.org/2000/svg" width="301.092" height="300"><path fill="none" d="M.546 0h300v300h-300z"/><path d="M288.996 123.038c-3.7-23.308-13.636-45.76-24.525-65.147C248.295 29.104 223.419 2.144 192.24 3.84c-18 .97-34.265 10.973-46.412 26.308-11.681 14.748-19.585 31.575-36.241 39.532-16.858 8.047-35 12.547-52.542 18-45.09 14.006-69.128 80.881-46.9 135.87s74.436 81.713 111.032 70.3c32.887-10.215 54.712-41.741 84.538-57.655 14.8-7.883 31.176-9.074 45.459-18.449a87.845 87.845 0 0036.143-50.48c3.87-14.708 3.995-29.635 1.679-44.228z" fill="#e37ab0"/><path d="M288.996 123.038c-3.7-23.308-13.636-45.76-24.525-65.147C248.295 29.104 223.419 2.144 192.24 3.84c-18 .97-34.265 10.973-46.412 26.308-11.681 14.748-19.585 31.575-36.241 39.532-16.858 8.047-35 12.547-52.542 18-45.09 14.006-69.128 80.881-46.9 135.87s74.436 81.713 111.032 70.3c32.887-10.215 54.712-41.741 84.538-57.655 14.8-7.883 31.176-9.074 45.459-18.449a87.845 87.845 0 0036.143-50.48c3.87-14.708 3.995-29.635 1.679-44.228z" fill="#fff" opacity=".7"/><path d="M52.294 187.783s0-2.825-3.952-6.769-6.484-6.206-6.484-6.206-1.976 6.484 1.691 10.436a69.487 69.487 0 008.745 7.611zm-5.732 17.583s0-2.783-3.952-6.769-6.484-6.2-6.484-6.2-1.976 6.519 1.712 10.436a69.487 69.487 0 008.745 7.611z" fill="#e37ab0"/><path d="M52.044 192.557s.3-2.783 4.641-6.317 7.11-5.482 7.11-5.482 1.273 6.658-2.783 10.2a69.317 69.317 0 01-9.5 6.651zm-6.922 20.802s.591-2.783 5.281-5.789 7.653-4.71 7.653-4.71.571 6.756-3.84 9.852a69.734 69.734 0 01-10.144 5.615zm1.301 22.68s0-2.818 3.952-6.77 6.484-6.206 6.484-6.206 1.976 6.491-1.691 10.436a69.18 69.18 0 01-8.745 7.653z" fill="#e37ab0"/><path d="M46.36 241.577s.4-2.783-2.95-7.264-5.566-7.062-5.566-7.062-2.88 6.136.188 10.568a69.048 69.048 0 007.577 8.78zm-3.896 16.405s0-2.783 3.945-6.769 6.491-6.206 6.491-6.206 1.976 6.491-1.691 10.436a69.181 69.181 0 01-8.745 7.614zm2.637 14.876s-.7-2.727 2.087-7.549 4.71-7.653 4.71-7.653 3.548 5.782 1 10.526a69.177 69.177 0 01-6.526 9.58z" fill="#e37ab0"/><path d="M52.65 187.032a80.014 80.014 0 01-1.078 8.752c-1.565 8.071-5.468 13.268-7.027 20.552s2.922 16.7 1.718 26.027-4.87 14.562-3.8 20.8 6.658 23.509 6.658 23.509m2.881-92.244l4.258-3.263m-4.056-.494l-1.781-3.166m-5.628 28.497s3.562-2.672 7.222-5.343m-5.455-.215a57.112 57.112 0 00-6.331-9.678m6.331 39.287a44.082 44.082 0 017.618-10.193" fill="none" stroke="#263238" stroke-linecap="round" stroke-linejoin="round" stroke-width="1.092"/><path d="M45.873 244.013a50.448 50.448 0 00-3.861-7.326c-2.087-3.068-2.379-3.479-2.379-3.479m2.831 29.958a47.152 47.152 0 013.207-6.505 41.57 41.57 0 014.174-5.448m-3.457 26.557a12.106 12.106 0 011.064-6.262c1.482-2.866 3.166-6.63 3.861-8.112" fill="none" stroke="#263238" stroke-linecap="round" stroke-linejoin="round" stroke-width="1.092"/><path d="M20.068 225.436s-.32-1.774 1.767-4.675 3.4-4.6 3.4-4.6 1.941 3.854.07 6.728a43.785 43.785 0 01-4.654 5.726zm5.504 10.422s-.306-1.767 1.746-4.675 3.4-4.592 3.4-4.592 1.941 3.847.07 6.728a44.1 44.1 0 01-4.654 5.719z" fill="#e37ab0"/><path d="M20.743 228.421s-.487-1.725-3.6-3.479-5.048-2.65-5.048-2.65-.077 4.32 2.853 6.095a43.984 43.984 0 006.679 3.138zm6.602 12.294s-.7-1.67-3.938-3.061-5.308-2.122-5.308-2.122.376 4.3 3.479 5.761a44.192 44.192 0 006.957 2.421zm1.649 14.36s-.313-1.767-3.214-3.813-4.745-3.186-4.745-3.186-.529 4.279 2.2 6.359a43.9 43.9 0 006.31 3.827z" fill="#e37ab0"/><path d="M29.634 258.539s-.557-1.7 1.058-4.87 2.706-5.03 2.706-5.03 2.47 3.534 1.03 6.644a44.139 44.139 0 01-3.8 6.331zm4.954 14.27s.209-1.781 2.992-3.993 4.55-3.479 4.55-3.479.779 4.244-1.83 6.47a43.746 43.746 0 01-6.081 4.174zm-.73-4.404s-.306-1.767-3.214-3.813-4.738-3.186-4.738-3.186-.536 4.3 2.192 6.387a43.888 43.888 0 006.31 3.827zm-.042 9.615s.153-1.788-2.136-4.5-3.785-4.286-3.785-4.286-1.6 4.007.515 6.707a44.006 44.006 0 005.135 5.3z" fill="#e37ab0"/><path d="M19.748 225.019a50.63 50.63 0 001.635 5.371c1.851 4.87 4.87 7.73 6.63 12.127s0 10.77 1.746 16.51 4.62 8.606 4.647 12.635-1.44 14.916-1.44 14.916M20.972 229.59l-3.019-1.586m2.491-.751l.772-2.178m6.627 17.261s-2.522-1.287-5.11-2.567m3.395-.731a36.1 36.1 0 012.915-6.728m.3 25.297a28.208 28.208 0 00-5.886-5.566" fill="none" stroke="#263238" stroke-linecap="round" stroke-linejoin="round" stroke-width="1.092"/><path d="M30.184 260.014a31.865 31.865 0 011.621-5.009c.974-2.15 1.113-2.428 1.113-2.428m1.364 22.173a26.5 26.5 0 013.249-3.374 17.646 17.646 0 002.087-1.837m-5.2 2.122a29.857 29.857 0 00-2.72-3.722 26.388 26.388 0 00-3.19-2.929m5.039 16.231a7.653 7.653 0 00-1.35-3.8c-1.238-1.642-2.706-3.82-3.3-4.675" fill="none" stroke="#263238" stroke-linecap="round" stroke-linejoin="round" stroke-width="1.092"/><g stroke-linecap="round" stroke-linejoin="round" stroke-width="1.092"><path fill="none" stroke="#263238" d="M224.669 233.784h65.336v5.573h-65.336zm3.033 5.643h59.276v47.47h-59.276z"/><path fill="none" stroke="#263238" d="M229.762 242.523h55.081v14.436h-55.081z"/><path fill="none" stroke="#263238" d="M254.453 248.409h5.51v2.658h-5.51zm-24.691 12.349h55.081v14.436h-55.081z"/><path fill="none" stroke="#263238" d="M254.453 266.644h5.51v2.658h-5.51z"/><path fill="#263238" stroke="#263238" d="M232.044 195.206h27.349v26.841h-27.349z"/><path d="M247.489 232.456v-11.417h-3.541v11.417h-5.065v1.245h13.671v-1.245z" fill="none" stroke="#263238"/><path fill="none" stroke="#5c5c5c" d="M233.755 196.18v24.309m4.557-24.309v24.309m7.41-24.309v24.309m8.731-24.309v24.309"/></g><g fill="none" stroke="#263238" stroke-linecap="round" stroke-linejoin="round" stroke-width="1.092"><path d="M227.39 120.262H272v59.903h-44.61z"/><path d="M231.662 125.995h36.067v48.437h-36.067z"/></g><g transform="translate(131.51 104.622)" fill="none" stroke="#263238" stroke-linecap="round" stroke-linejoin="round" stroke-width="1.092"><path d="M0 0h87.175v182.275H0z"/><path d="M7.924 8.613h31.698v47.553H7.924z"/><path d="M12.481 15.452h22.59v33.882h-22.59zm0 0L7.924 8.613m27.141 6.839l4.557-6.839m-4.557 40.721l4.557 6.832m-27.141-6.832l-4.557 6.832M46.023 8.613h31.698v47.553H46.023z"/><path d="M50.58 15.452h22.59v33.882H50.58zm0 0l-4.557-6.839m27.14 6.839l4.557-6.839m-4.557 40.721l4.557 6.832m-27.14-6.832l-4.557 6.832M7.924 68.425h31.698v47.553H7.924z"/><path d="M12.481 75.257h22.59v33.882h-22.59zm0 0l-4.557-6.832m27.141 6.832l4.557-6.832m-4.557 40.715l4.557 6.839m-27.141-6.839l-4.557 6.839m38.099-47.554h31.698v47.553H46.023z"/><path d="M50.58 75.257h22.59v33.882H50.58zm0 0l-4.557-6.832m27.14 6.832l4.557-6.832m-4.557 40.715l4.557 6.839m-27.14-6.839l-4.557 6.839m-38.099 13.17h31.698v47.553H7.924z"/><path d="M12.481 135.981h22.59v33.882h-22.59zm0 0l-4.557-6.832m27.141 6.832l4.557-6.832m-4.557 40.714l4.557 6.832m-27.141-6.832l-4.557 6.832m38.099-47.546h31.698v47.553H46.023z"/><path d="M50.58 135.981h22.59v33.882H50.58zm0 0l-4.557-6.832m27.14 6.832l4.557-6.832m-4.557 40.714l4.557 6.832m-27.14-6.832l-4.557 6.832"/><circle cx="3.131" cy="3.131" r="3.131" transform="translate(78.242 90.111)"/></g><g stroke="#263238"><path fill="none" stroke-linecap="round" stroke-linejoin="round" stroke-width="1.092" d="M300.546 286.897h-300"/><path d="M99.194 210.088h72.113a10.332 10.332 0 0110.332 10.332v66.484h-92.77v-66.491a10.332 10.332 0 0110.325-10.325z" fill="#263238" stroke-miterlimit="10" stroke-width="1.092"/><path d="M93.496 210.088h72.085a10.332 10.332 0 0110.332 10.332v66.484h-92.77v-66.491a10.332 10.332 0 0110.353-10.325z" fill="#787878" stroke-miterlimit="10" stroke-width="1.092"/><path d="M113.477 156.259s-8.794-2.3-7.841-11.285 7.841-12.05 13.01-13.01a85.178 85.178 0 0112.628-.953s-1.531-3.061 4.4-3.639 22.382 5.169 28.887 16.837 5.162 30.988 2.3 37.305-5.566 19.32-.195 23.718 15.5 9.184 13.97 21.429-14.923 12.607-14.353 19.126 13.393 11.292 10.144 22.577-22.382 13.01-35.392 5.74-9.949-30.8-13.963-43.831-19.327-15.09-21.623-25.791 5.566-16.071 9.378-25.046-1.35-23.177-1.35-23.177z" fill="#263238" stroke-linecap="round" stroke-linejoin="round" stroke-width="1.092"/><path d="M131.279 131.012s-24.594-1.656-33.4 10.492m61.649-3.341s15.19 11.542 15.79 29.158-6.957 23.655-8.2 31.586 5.169 12.447 5.169 12.447" fill="none" stroke-linecap="round" stroke-linejoin="round" stroke-width="1.092"/><path d="M162.262 142.108s13.06 11.827 15.188 28.25 0 18.527 0 18.527" fill="none" stroke-linecap="round" stroke-linejoin="round" stroke-width="1.092"/><path d="M69.097 243.685s-8.036 12.245-9.949 17.025-1.718 8.606 3.256 9.74 12.628-4.745 15.09-7.444 7.076-11.1 7.076-11.1z" fill="#fff" stroke-linecap="round" stroke-linejoin="round" stroke-width="1.092"/><path d="M121.325 202.17s-19.9-.188-25.046 1.531-29.847 39.792-29.847 39.792l17.219 11.292 7.458-8.231s2.087 10.526 2.087 13.97-2.491 26.438-2.491 26.438h57.391s.96-21.463 4.174-27.391 7.653-13.963 7.653-13.963l16.259 10.519 10.179-24.511s-25.829-20.45-32.336-23.323-32.7-6.123-32.7-6.123z" fill="#e37ab0" stroke-linecap="round" stroke-linejoin="round" stroke-width="1.092"/><path d="M91.096 246.551s.7-6.157 1.565-11.9 4.411-12.8 4.411-12.8m62.894 23.747l-9.907-5.642m7.945 5.301s-8.85-.884-12.328-2.212" fill="none" stroke-linecap="round" stroke-linejoin="round" stroke-width="1.092"/><path d="M96.328 237.34l33.9 57.676 1.364-.779 2.539-52.611z" fill="#263238" stroke-linecap="round" stroke-linejoin="round" stroke-width="1.092"/><path d="M94.964 237.34l-2.727 51.442 37.994 6.234 2.532-53.391z" fill="#575757" stroke-linecap="round" stroke-linejoin="round" stroke-width="1.092"/><path d="M108.989 254.093l7.8.974-1.364 32.352-14.033-2.336z" fill="#263238" stroke-linecap="round" stroke-linejoin="round" stroke-width="1.092"/><path d="M121.325 202.171s-5.107-.049-10.812.125a90.705 90.705 0 00-.48 16.9c.765 9.184 2.679 10.526 7.848 9s15.682-14.541 18.743-19.133a32.008 32.008 0 002.47-4.265c-8.766-1.504-17.769-2.627-17.769-2.627z" fill="#fff" stroke-linecap="round" stroke-linejoin="round" stroke-width="1.092"/><path d="M114.243 192.417s-1.023 23.724-.835 26.786 4.474 6.31 7.535 4.014 12.266-16.092 13.219-18.583 2.087-13.748 2.087-13.748-8.224 4.974-13.769 4.4-8.237-2.869-8.237-2.869zm-51.651 63.896c-2.866 3.632-5.928 8.224-4.974 11.667s5.566 4.974 15.689 4.78 38.265.577 38.836.765 20.655 2.088 21.422 2.088 4.974-1.725 6.122-3.256 2.087-7.458 2.087-7.458 2.866-2.866 3.061-5.162a4.32 4.32 0 00-1.725-3.639 15.306 15.306 0 00-.57-3.632c-.577-2.087-4.787-1.148-7.083-1.531s-5.733-1.148-7.076.188-12.433 10.909-12.433 10.909-17.219-1.343-28.122-5.357-17.025-4.787-21.429-.577" fill="#fff" stroke-linecap="round" stroke-linejoin="round" stroke-width="1.092"/><path fill="none" stroke-linecap="round" stroke-linejoin="round" stroke-width="1.092" d="M143.13 256.118l-10.137-2.296"/><path d="M106.451 159.815s-5.566-3.242-6.484 0 6.484 0 6.484 0zm-.696 2.783s-4.87 3.7-2.087 3.938 2.087-3.938 2.087-3.938zm30.612-18.333s-23.488 7.716-23.822 9.74-6.707 17.449-5.364 28.184 9.629 15.16 17.011 15.786c8.989.765 18.555-11.285 18.555-11.285s4.968-1.913 7.653-3.249 3.019-5.037 3.019-5.037a52.747 52.747 0 01-12.356-14.666 35.086 35.086 0 01-4.696-19.473z" fill="#fff" stroke-linecap="round" stroke-linejoin="round" stroke-width="1.092"/><path d="M124.623 158.354a11.577 11.577 0 01-1.677 6.707 9.044 9.044 0 01-5.03 3.694s.334 3.687 3.019 3.687" fill="none" stroke-linecap="round" stroke-linejoin="round" stroke-width="1.092"/><path d="M114.437 162.737s2.679-2.679 6.505.571m8.989 2.517s5.357-.577 6.693 3.061" fill="none" stroke-linecap="round" stroke-linejoin="round" stroke-width="2.184"/><path d="M122.473 177.11s-4.209-1.531-7.653.765-4.209 5.935-2.3 7.083 5.162-3.639 7.458-.765 6.122 7.458 7.653 3.054-2.097-9.371-5.158-10.137z" fill="#263238" stroke-linecap="round" stroke-linejoin="round" stroke-width="1.092"/><path d="M120.49 184.819c2.317 2.846 5.726 6.519 7.145 2.428a6.157 6.157 0 00.292-1.3 87.808 87.808 0 01-7.437-1.128zm5.427-5.239a6.958 6.958 0 00-3.444-2.47 9.543 9.543 0 00-7.215.508 70.635 70.635 0 0010.659 1.962zm-14.409 3.152a2.3 2.3 0 001.016 2.226c.974.577 2.289-.369 3.653-1.064-1.9-.438-3.535-.863-4.669-1.162z" fill="#fff" stroke-linecap="round" stroke-linejoin="round" stroke-width="1.092"/><path d="M123.818 156.621s-.216-1.315-3.054-1.315-7.43 3.479-7.43 3.479m16.834-.856a2.823 2.823 0 014.369.438 25.046 25.046 0 013.479 5.9" fill="none" stroke-linecap="round" stroke-linejoin="round" stroke-width="1.092"/><path d="M143.324 168.692c-14.687-9.253-6.957-24.427-6.957-24.427s-14.61 12.523-23.822 9.74" fill="none" stroke-linecap="round" stroke-linejoin="round" stroke-width="1.092"/><path d="M139.88 178.641s-2.087 2.491-2.087 3.827 4.209 6.888 5.935 4.592-.577-4.014-1.343-6.31-2.505-2.109-2.505-2.109z" fill="#fff" stroke-linecap="round" stroke-linejoin="round" stroke-width="1.092"/><path d="M167.619 177.876s-13.219-6.31-17.6-8.606-6.693-.577-6.693-.577-7.848 6.7-7.465 7.848 4.787 4.78 4.787 4.78 2.679 3.827 5.928 4.787 8.036 2.289 9 .758 0-3.82 0-3.82 2.672 2.3 4.4 2.679a23.622 23.622 0 005.357 0s7.27 46.865 7.27 53.94 3.061 14.541 8.418 16.266 11.473-2.3 12.621-8.036.577-12.05-2.866-19.133-16.259-39.587-18.75-44.186-2.876-5.552-4.407-6.7z" fill="#fff" stroke-linecap="round" stroke-linejoin="round" stroke-width="1.092"/><path d="M148.299 186.676a88.056 88.056 0 013.444-8.224m-7.653 6.124s3.249-8.62 4.369-10.144m-7.813 6.888a90.817 90.817 0 013.827-8.989" fill="none" stroke-linecap="round" stroke-linejoin="round" stroke-width="1.092"/></g><g fill="#263238"><path d="M73.188 125.397l-6.651-2.219 5.176-14.777h-6.262l2.386-9.538a16.621 16.621 0 00-28.177 17.574c5.7 11.987 21.129 24.928 27.134 29.666z"/><path d="M84.278 91.619a16.565 16.565 0 00-11.382 4.522l-2.665 8.564 7.4-.369-7.02 16.656 7.384 1.847-6.763 23.592c5.663-4.453 21.665-17.72 27.5-29.993a16.628 16.628 0 00-14.464-24.817z"/></g></svg>