<svg xmlns="http://www.w3.org/2000/svg" width="300" height="300.138"><path d="M0 .138h300v300H0z" fill="none"/><path d="M94.025 24.009s-51.03 26-76.481 66.056a110.569 110.569 0 007.489 129.848c30.927 38.254 90.039 33.23 139.533 57.462s104.1 19.242 127.5-32.1-11.878-70.526-17.941-129.941-59.622-146.417-180.1-91.325z" fill="#e37ab0"/><path d="M94.025 24.009s-51.03 26-76.481 66.056a110.569 110.569 0 007.489 129.848c30.927 38.254 90.039 33.23 139.533 57.462s104.1 19.242 127.5-32.1-11.878-70.526-17.941-129.941-59.622-146.417-180.1-91.325z" fill="#fff" opacity=".7"/><g fill="#9c9c9c"><path d="M64.604 230.475c2.02-.673 5.6-3.967 5.6-3.974s-2.883-1.677-3.078-1.758c-2.27-.956-7.22-1.468-9.018.626a3.273 3.273 0 00.768 4.782c1.593 1.131 3.977.888 5.728.324zm37.319-31.75c.047 0-1.482-2.984-1.6-3.165-1.347-2.02-5.213-5.206-7.866-4.452a3.273 3.273 0 00-2.02 4.425c.721 1.8 2.842 2.923 4.62 3.415 2.084.579 6.857-.215 6.866-.223z"/><path d="M75.171 239.842c1.738-1.138 4.135-4.943 4.324-5.246a57.588 57.588 0 006.775 3.677 97.365 97.365 0 004.149 1.812 48.294 48.294 0 00-1.347-.33c-2.445-.323-7.354.492-8.533 2.984a3.266 3.266 0 002.02 4.432c1.832.673 4.041-.209 5.61-1.219s3.671-4.236 4.216-5.092l1.616.673c2.593 1.03 5.179 2.02 7.691 3.125.882.377 1.738.788 2.6 1.185-.606-.148-1.111-.269-1.192-.276-2.445-.323-7.348.492-8.533 2.984a3.26 3.26 0 002.02 4.425c1.839.674 4.075-.209 5.61-1.219s3.462-3.92 4.122-4.93c.862.438 1.731.876 2.553 1.347.552.33 1.111.606 1.65.97l1.6 1.03c.99.673 2.02 1.4 2.977 2.1.673.485 1.293.956 1.926 1.428-.876-.384-2.606-1.111-2.761-1.152-2.364-.673-7.341-.626-8.883 1.657a3.26 3.26 0 001.307 4.681c1.711.923 4.041.411 5.731-.357 1.839-.842 4.714-4.095 5.038-4.506 1.044.788 2.054 1.562 2.99 2.31a162.223 162.223 0 016.735 5.63l1.347-1.226a171.22 171.22 0 00-7.119-5.7c-1.057-.8-2.2-1.643-3.367-2.492a35.878 35.878 0 001.643-3.832c2.068.209 5.96-.862 6.465-1a162.096 162.096 0 013.697 11.867l1.509-1.347a176.037 176.037 0 00-2.438-7.482 130.21 130.21 0 00-1.455-3.94c.465-.263 4.209-2.445 5.388-4.088 1.071-1.5 2.02-3.7 1.441-5.563a3.273 3.273 0 00-4.344-2.175c-2.539 1.084-3.549 5.954-3.327 8.405 0 .148.337 1.7.552 2.694-.216-.559-.418-1.1-.673-1.664-.445-1.131-.923-2.243-1.428-3.441-.269-.572-.532-1.145-.808-1.724s-.6-1.165-.9-1.758a69.967 69.967 0 00-2.364-4.041c.99-.391 4.472-1.832 5.765-3.152s2.559-3.367 2.263-5.273a3.26 3.26 0 00-3.96-2.808c-2.694.673-4.411 5.348-4.56 7.806 0 .148.081 1.926.148 2.9-.512-.795-1.017-1.589-1.556-2.377-1.562-2.27-3.219-4.519-4.856-6.769-.505-.673-1-1.381-1.488-2.074.35-.135 4.526-1.758 5.974-3.233 1.286-1.347 2.559-3.367 2.27-5.28a3.266 3.266 0 00-3.967-2.808c-2.694.673-4.411 5.348-4.56 7.806 0 .189.121 2.741.189 3.367-1.091-1.529-2.162-3.058-3.159-4.607a56.327 56.327 0 01-3.65-6.5c.162-.061 4.526-1.738 6.007-3.253 1.286-1.347 2.559-3.367 2.27-5.273a3.26 3.26 0 00-3.96-2.808c-2.694.673-4.411 5.347-4.559 7.806 0 .162.088 2.108.155 3.031l-.148.04a41.577 41.577 0 01-2.438-7.092 52.548 52.548 0 01-.822-3.893c.842-.229 4.714-1.313 6.183-2.532s2.909-3.051 2.835-5a3.273 3.273 0 00-3.637-3.226c-2.728.384-4.97 4.829-5.388 7.26 0 .128-.108 1.5-.155 2.492-.088-.572-.2-1.158-.269-1.711-.29-2.068-.431-3.974-.546-5.664a79.83 79.83 0 01-.1-2.654c.707-.673 3.549-3.367 4.29-5.071s1.179-4.041.216-5.738a3.266 3.266 0 00-4.714-1.192c-2.249 1.6-2.189 6.58-1.441 8.93.067.2 1.435 3.26 1.475 3.226l.04-.04c0 .781 0 1.623.054 2.546.074 1.7.168 3.617.418 5.7a58.11 58.11 0 001.118 6.668 42.134 42.134 0 002.3 7.213l.04.081c-.525-.613-2.054-2.276-2.189-2.391-1.859-1.616-6.4-3.644-8.755-2.216a3.26 3.26 0 00-.775 4.8c1.172 1.556 3.509 2.074 5.354 2.081 2.074 0 6.169-1.852 6.5-2.02a57.772 57.772 0 003.623 6.809c.781 1.273 1.61 2.539 2.458 3.792-.471-.512-.9-.97-.963-1.03-1.859-1.61-6.4-3.644-8.755-2.216a3.26 3.26 0 00-.775 4.8c1.165 1.563 3.509 2.074 5.354 2.081s5.388-1.509 6.317-1.919c.33.478.673.963.99 1.441 1.589 2.283 3.186 4.566 4.714 6.843a77.204 77.204 0 011.515 2.425 28.213 28.213 0 00-.835-.889c-1.859-1.616-6.4-3.644-8.755-2.216a3.26 3.26 0 00-.768 4.8c1.165 1.556 3.509 2.074 5.347 2.081s5.051-1.347 6.156-1.845c.485.842.97 1.684 1.394 2.526.283.579.593 1.118.835 1.717s.519 1.172.768 1.744c.451 1.131.916 2.29 1.347 3.4.29.768.552 1.509.815 2.249-.512-.808-1.562-2.364-1.664-2.485a12.648 12.648 0 00-5.388-3.475 3.674 3.674 0 00-.512-.512 3.266 3.266 0 00-4.822.579c-1.522 2.3.323 6.923 1.866 8.85.088.114 1.212 1.232 1.933 1.926l-1.522-.99c-.99-.673-2.02-1.347-3.085-2.081l-1.623-1c-.539-.344-1.145-.64-1.724-.963a54.848 54.848 0 00-4.182-2.02c.606-.869 2.694-3.987 3.064-5.805s.283-4.2-1.017-5.651a3.266 3.266 0 00-4.856-.155c-1.852 2.02-.727 6.89.5 9.025.081.135 1.131 1.563 1.731 2.337-.862-.377-1.724-.761-2.606-1.118a249.483 249.483 0 00-7.786-2.97c-.8-.3-1.6-.606-2.391-.909.222-.3 2.808-3.96 3.2-5.994.35-1.8.29-4.2-1.017-5.651a3.266 3.266 0 00-4.856-.155c-1.852 2.02-.727 6.89.505 9.025.088.162 1.61 2.216 2.02 2.694-1.751-.673-3.489-1.347-5.179-2.095a56.231 56.231 0 01-6.627-3.408c.1-.141 2.822-3.947 3.219-6.028.343-1.8.283-4.2-1.017-5.651a3.266 3.266 0 00-4.856-.155c-1.852 2.02-.727 6.89.5 9.025.081.141 1.239 1.711 1.812 2.445l-.108.115a41.944 41.944 0 01-5.94-4.573 46.858 46.858 0 01-2.842-2.795c.579-.673 3.192-3.684 3.765-5.523s.741-4.149-.391-5.725a3.273 3.273 0 00-4.815-.673c-2.061 1.832-1.475 6.775-.492 9.031.054.121.741 1.307 1.253 2.162-.391-.424-.8-.855-1.172-1.273a89.218 89.218 0 01-3.576-4.432 103.08 103.08 0 01-1.556-2.148c.236-.943 1.125-4.748.788-6.6s-1.253-4.041-2.99-4.9a3.26 3.26 0 00-4.58 1.6c-.99 2.573 1.8 6.688 3.718 8.237.168.135 3 1.926 3.01 1.879a.432.432 0 000-.061c.438.673.916 1.347 1.448 2.1 1 1.347 2.142 2.923 3.5 4.519a58.937 58.937 0 004.613 4.95 42.866 42.866 0 005.893 4.714l.081.047c-.775-.222-2.97-.768-3.145-.788-2.445-.323-7.348.492-8.533 2.984a3.266 3.266 0 002.02 4.432c1.836.651 4.072-.204 5.607-1.221zM201.174 68.988c1.441 2.411 6.634 5.947 6.641 5.947s1.293-4.128 1.347-4.4c.552-3.145-.229-9.557-3.367-11.227a4.236 4.236 0 00-5.853 2.344c-.977 2.342.006 5.291 1.232 7.336zm50.923 38.082c0 .061 3.367-2.734 3.549-2.936 2.2-2.324 5.085-8.082 3.367-11.241a4.236 4.236 0 00-6.176-1.273c-2.081 1.435-2.883 4.438-3 6.822-.124 2.802 2.26 8.621 2.26 8.628z"/><path d="M192.358 85.067c1.946 1.866 7.456 3.805 7.893 3.953a75.085 75.085 0 00-2.694 9.638c-.411 1.9-.768 3.832-1.1 5.772v-1.839c-.3-3.179-2.741-9.159-6.236-9.934a4.236 4.236 0 00-5.031 3.805c-.3 2.512 1.441 5.1 3.165 6.735s6.412 3.428 7.651 3.873c-.121.741-.249 1.488-.364 2.229-.559 3.576-1.1 7.146-1.738 10.634-.222 1.226-.492 2.431-.754 3.637v-1.589c-.3-3.186-2.741-9.159-6.237-9.941a4.236 4.236 0 00-5.024 3.812c-.3 2.505 1.435 5.092 3.159 6.735s5.96 3.246 7.408 3.785c-.3 1.226-.606 2.451-.956 3.623-.263.795-.451 1.576-.754 2.364l-.849 2.324c-.586 1.455-1.185 2.963-1.8 4.378-.418.977-.835 1.906-1.253 2.842.236-1.219.673-3.617.673-3.819.189-3.192-1.347-9.469-4.661-10.776a4.236 4.236 0 00-5.549 3c-.673 2.431.673 5.253 2.1 7.146 1.6 2.088 6.54 4.755 7.159 5.085a132.841 132.841 0 01-2.061 4.445 221.05 221.05 0 01-5.186 10.156l1.946 1.387a199.544 199.544 0 005.159-10.648c.714-1.569 1.448-3.26 2.182-5a44.607 44.607 0 005.321.977c.337 2.694 2.808 7.3 3.132 7.893a167.895 167.895 0 01-4.176 2.573 212.044 212.044 0 01-9.772 5.529l2.121 1.515a208.233 208.233 0 008.755-5.233c1.461-.916 3-1.926 4.573-2.977.465.512 4.3 4.62 6.735 5.644 2.2.923 5.26 1.5 7.449.222a4.229 4.229 0 001.5-6.122c-2.1-2.9-8.553-2.775-11.6-1.785-.175.061-2.054.909-3.226 1.468.64-.431 1.266-.849 1.919-1.3 1.3-.889 2.573-1.812 3.94-2.795l1.953-1.515c.673-.5 1.3-1.1 1.96-1.65q2.253-1.96 4.4-4.149c.781 1.131 3.61 5.125 5.651 6.378s4.977 2.276 7.328 1.347a4.236 4.236 0 002.418-5.826c-1.637-3.186-8.041-4.041-11.193-3.522-.2.034-2.418.673-3.63 1.024.855-.869 1.717-1.738 2.553-2.654 2.425-2.627 4.8-5.388 7.166-8.082.727-.835 1.468-1.657 2.2-2.478.276.4 3.529 5.22 5.819 6.627 2.02 1.246 4.977 2.276 7.334 1.347a4.236 4.236 0 002.411-5.826c-1.637-3.186-8.041-4.041-11.193-3.522-.236.034-3.435.943-4.236 1.212 1.616-1.818 3.239-3.617 4.916-5.327a74.755 74.755 0 017.173-6.492c.128.189 3.5 5.233 5.846 6.674 2.02 1.246 4.977 2.27 7.334 1.347a4.236 4.236 0 002.411-5.826c-1.637-3.186-8.041-4.041-11.193-3.516-.209 0-2.64.721-3.792 1.071l-.094-.182a54.816 54.816 0 018.277-5.125c1.589-.822 3.152-1.515 4.714-2.162.532 1 3.017 5.563 4.984 7.092s4.714 2.808 7.139 2.148a4.236 4.236 0 003.037-5.523c-1.28-3.367-7.543-4.9-10.735-4.714-.175 0-1.933.3-3.206.525a88.996 88.996 0 012.088-.835c2.532-.963 4.9-1.69 7.018-2.317 1.2-.35 2.3-.673 3.32-.9 1.037.714 5.246 3.536 7.658 3.974s5.462.33 7.321-1.381a4.236 4.236 0 00.148-6.3c-2.694-2.377-8.951-.869-11.705.748-.242.141-3.711 2.761-3.657 2.8l.061.04c-.99.229-2.054.492-3.213.795-2.121.586-4.526 1.266-7.085 2.175a76.137 76.137 0 00-8.122 3.367 55.772 55.772 0 00-8.466 4.984l-.088.074c.62-.842 2.29-3.253 2.4-3.455 1.509-2.822 2.768-9.153.283-11.732a4.25 4.25 0 00-6.3.4c-1.63 1.933-1.61 5.044-1.084 7.375.593 2.627 4.115 7.28 4.4 7.651a75.1 75.1 0 00-7.57 6.546c-1.394 1.347-2.748 2.775-4.095 4.209.519-.748.97-1.421 1.024-1.522 1.509-2.815 2.768-9.153.283-11.725a4.23 4.23 0 00-6.29.4c-1.637 1.926-1.616 5.038-1.091 7.368s3.462 6.4 4.25 7.449l-1.536 1.664c-2.438 2.694-4.856 5.354-7.314 7.907-.862.9-1.751 1.758-2.633 2.62.458-.673.842-1.226.889-1.347 1.509-2.815 2.768-9.153.283-11.725a4.243 4.243 0 00-6.3.4c-1.63 1.933-1.61 5.044-1.084 7.375s3.172 6 4.108 7.26c-.929.849-1.859 1.7-2.8 2.492-.673.519-1.246 1.064-1.933 1.556l-1.987 1.468c-1.293.9-2.627 1.818-3.913 2.66-.9.586-1.751 1.131-2.62 1.684.876-.889 2.546-2.66 2.694-2.822a16.487 16.487 0 002.856-7.8 5.084 5.084 0 00.5-.795 4.243 4.243 0 00-2.128-5.94c-3.367-1.259-8.668 2.4-10.655 4.91-.121.148-1.212 1.892-1.886 3 .3-.714.593-1.4.889-2.142a168.739 168.739 0 001.738-4.506c.263-.775.532-1.556.795-2.344s.478-1.63.727-2.451a86.32 86.32 0 001.381-5.893c1.273.519 5.832 2.29 8.23 2.209s5.388-.849 6.863-2.916a4.236 4.236 0 00-1.206-6.189c-3.118-1.758-8.93 1.064-11.274 3.233-.148.141-1.657 1.886-2.465 2.862.229-1.2.471-2.4.673-3.623.566-3.536 1.03-7.125 1.515-10.708.141-1.1.3-2.189.458-3.28.451.189 5.826 2.411 8.513 2.317 2.384-.081 5.388-.849 6.856-2.916a4.236 4.236 0 00-1.2-6.189c-3.125-1.751-8.937 1.064-11.281 3.239-.175.162-2.344 2.694-2.862 3.367.344-2.4.674-4.8 1.158-7.152a75.431 75.431 0 012.418-9.382c.209.088 5.805 2.438 8.56 2.344 2.384-.088 5.388-.849 6.856-2.916a4.243 4.243 0 00-1.2-6.2c-3.125-1.751-8.93 1.064-11.281 3.239-.155.141-1.8 2.061-2.573 2.99l-.175-.1a54.334 54.334 0 014.041-8.836c.876-1.562 1.792-3.01 2.694-4.4 1 .546 5.583 2.977 8.082 3.172 2.384.175 5.462-.256 7.139-2.148a4.236 4.236 0 00-.519-6.284c-2.909-2.088-8.991.074-11.564 1.98-.135.1-1.441 1.307-2.377 2.2.424-.62.855-1.266 1.28-1.852 1.576-2.2 3.159-4.115 4.566-5.805.815-.95 1.569-1.8 2.276-2.579 1.259 0 6.331.054 8.58-.909s4.714-2.741 5.347-5.193a4.236 4.236 0 00-3.367-5.341c-3.543-.512-7.947 4.216-9.355 7.085-.121.249-1.569 4.351-1.509 4.351h.081c-.673.741-1.448 1.542-2.243 2.438-1.448 1.657-3.078 3.549-4.714 5.718a75.693 75.693 0 00-4.937 7.267 55.4 55.4 0 00-4.3 8.829l-.04.114c.061-1.051.115-3.98.094-4.209-.3-3.186-2.741-9.159-6.236-9.934a4.236 4.236 0 00-5.024 3.805c-.263 2.525 1.468 5.111 3.192 6.761z"/></g><path d="M233.094 203.621v-2.256c0-11.618 14.709-12.123 14.709-20.393 0-3.59-2.923-5.933-7.274-5.933-4.762 0-7.772 2.593-7.772 6.27v.923c0 .916-.5 1.347-1.421 1.347l-8.937-.337c-.835 0-1.421-.417-1.421-1v-.923c0-10.1 8.021-17.046 19.807-17.046 11.53 0 18.965 6.519 18.965 16.292 0 13.874-14.958 13.961-14.958 21.552v1.5a1.28 1.28 0 01-1.421 1.421h-8.856a1.28 1.28 0 01-1.421-1.421zm-.758 13.465a7.161 7.161 0 0114.291 0c0 3.677-3.367 6.688-7.186 6.688a7 7 0 01-7.105-6.7z" fill="#263238"/><path d="M56.501 107.919v-1.96c0-10.1 12.8-10.527 12.8-17.713 0-3.125-2.539-5.152-6.311-5.152-4.142 0-6.735 2.249-6.735 5.442v.8c0 .795-.431 1.158-1.232 1.158l-7.765-.29c-.727 0-1.232-.364-1.232-.869v-.8c0-8.755 6.964-14.817 17.2-14.817 10.015 0 16.48 5.664 16.48 14.143 0 12.049-13 12.123-13 18.73v1.307a1.111 1.111 0 01-1.232 1.232h-7.738a1.111 1.111 0 01-1.232-1.212zm-.673 11.685a6.22 6.22 0 116.169 5.805 6 6 0 01-6.149-5.805zm163.227-88.968v-.99c0-5.1 6.452-5.321 6.452-8.951 0-1.576-1.286-2.606-3.192-2.606-2.088 0-3.408 1.138-3.408 2.755v.407c0 .4-.222.586-.626.586l-3.92-.148c-.37 0-.626-.182-.626-.438v-.4c0-4.438 3.522-7.482 8.695-7.482 5.058 0 8.324 2.862 8.324 7.152 0 6.061-6.566 6.122-6.566 9.429v.673a.559.559 0 01-.626.62h-3.888a.552.552 0 01-.62-.6zm-.33 5.906a3.145 3.145 0 113.138 2.93 3.031 3.031 0 01-3.138-2.93z" fill="#e37ab0"/><path d="M29.919 166.842v-1.247c0-6.425 8.136-6.7 8.136-11.281 0-1.987-1.616-3.28-4.041-3.28-2.633 0-4.3 1.435-4.3 3.468v.505c0 .512-.276.741-.788.741l-4.943-.182c-.465 0-.788-.236-.788-.559v-.505c0-5.59 4.438-9.429 10.958-9.429 6.378 0 10.486 3.6 10.486 9.011 0 7.671-8.27 7.718-8.27 11.927v.828a.707.707 0 01-.788.788h-4.89a.707.707 0 01-.775-.788zm-.418 7.442a3.96 3.96 0 113.933 3.7 3.825 3.825 0 01-3.947-3.7z" fill="none" stroke="#263238" stroke-miterlimit="10"/><path d="M91.88 50.585v-.855c0-4.418 5.6-4.613 5.6-7.759 0-1.347-1.111-2.256-2.768-2.256-1.812 0-2.957.983-2.957 2.384v.35c0 .35-.189.505-.539.505l-3.367-.128c-.317 0-.539-.155-.539-.377v-.35c0-3.846 3.051-6.486 7.53-6.486s7.146 2.478 7.146 6.2c0 5.28-5.691 5.314-5.691 8.2v.572a.485.485 0 01-.539.539h-3.367a.485.485 0 01-.505-.539zm-.283 5.118a2.694 2.694 0 112.694 2.546 2.627 2.627 0 01-2.714-2.532z" fill="#263238"/><path d="M191.556 235.222v-.855c0-4.418 5.6-4.607 5.6-7.759 0-1.347-1.111-2.256-2.768-2.256-1.812 0-2.957.983-2.957 2.384v.35c0 .35-.189.512-.539.512l-3.367-.128c-.317 0-.539-.162-.539-.384v-.35c0-3.846 3.051-6.486 7.53-6.486s7.22 2.478 7.22 6.2c0 5.273-5.691 5.307-5.691 8.2v.572a.492.492 0 01-.539.545h-3.367a.492.492 0 01-.579-.545zm-.283 5.119a2.694 2.694 0 112.694 2.546 2.627 2.627 0 01-2.687-2.546z" fill="none" stroke="#263238" stroke-miterlimit="10"/><g transform="translate(90.79 101.359)"><path d="M74.4 149.191c-.047-.141-.094-.283-.148-.424s-.094-.29-.148-.431-.094-.283-.148-.424-.094-.29-.148-.431-.094-.283-.148-.424-.094-.29-.148-.431l-.148-.424c-.047-.148-.1-.29-.148-.431l-.148-.424c-.047-.148-.1-.29-.148-.431l-.148-.424c-.047-.148-.1-.29-.148-.431l-.141-.451c-.047-.148-.1-.29-.148-.431l-.155-.424c-.047-.148-.094-.29-.148-.431s-.094-.283-.148-.424-.094-.29-.148-.431-.094-.283-.148-.424a17.7 17.7 0 00-32.617-1.428c-.067.135-.128.276-.189.411l-.182.418c-.067.135-.128.269-.189.411s-.128.276-.189.411l-.182.411c-.067.141-.128.276-.189.418s-.128.269-.189.411-.128.269-.189.411l-.182.411c-.067.135-.128.276-.189.411l-.189.411-.182.418c-.067.135-.128.269-.189.411s-.128.276-.189.411l-.182.411c-.067.141-.128.276-.189.418s-.128.269-.189.411l-.182.411c-.067.135-.128.276-.189.411s-.128.276-.189.418a18.326 18.326 0 00-1.738 7.867c0 10.843 9.361 19.706 20.939 19.706 11.328 0 21.181-8.863 21.181-19.706a17.794 17.794 0 00-1.071-6.061 3.716 3.716 0 00-.144-.487zM58.378.02C23.646.02 0 20.46 0 50.269v2.694a2.586 2.586 0 001.28 2.2 3.308 3.308 0 00.471.377 15478.989 15478.989 0 00.956.754 2.693 2.693 0 00.478.377 2.9 2.9 0 00.471.377 2.984 2.984 0 00.478.384 3.37 3.37 0 00.478.377 3.034 3.034 0 00.478.377 2.974 2.974 0 00.471.377 3.132 3.132 0 00.519.4 3.79 3.79 0 00.438.344 3.367 3.367 0 00.478.377 3.307 3.307 0 00.471.377 3.37 3.37 0 00.478.377 3.034 3.034 0 00.478.377 2.972 2.972 0 00.471.377 3.032 3.032 0 00.478.377 2.972 2.972 0 00.471.377 3.371 3.371 0 00.478.377 2.972 2.972 0 00.471.377 3.967 3.967 0 002.829.983l21.659.808c2.229 0 3.442-1.01 3.442-3.239v-2.223c0-8.91 7.287-15.18 18.858-15.18 10.527 0 17.612 5.664 17.612 14.372a15.567 15.567 0 01-.284 2.96c-10.869 14.248-39.163 20.531-39.163 48.191v6.654c0 2.694 1.475 4.182 4.189 4.182H66.02c2.694 0 4.189-1.475 4.189-4.182v-4.436c0-22.414 44.093-22.663 44.093-63.55C114.298 19.228 92.369.02 58.378.02z" fill="#263238"/><path d="M35.717 116.042v-6.654c0-34.24 43.352-35.695 43.352-60.1 0-10.594-8.621-17.511-21.43-17.511-14.042 0-22.9 7.637-22.9 18.474v2.694c0 2.694-1.482 3.947-4.189 3.947l-26.36-.99c-2.458 0-4.182-1.232-4.182-2.957v-2.694C.008 20.442 23.654.002 58.386.002c33.991 0 55.9 19.208 55.9 48.033 0 40.887-44.093 41.137-44.093 63.55v4.438c0 2.694-1.482 4.182-4.189 4.182h-26.1c-2.714.019-4.187-1.456-4.187-4.163zM33.5 155.73c0-10.836 9.6-19.706 21.181-19.706 11.086 0 20.939 8.87 20.939 19.706s-9.873 19.673-21.181 19.673c-11.591 0-20.939-8.863-20.939-19.673z" fill="#e37ab0" stroke="#e37ab0" stroke-miterlimit="10"/><ellipse cx="36.779" cy="8.223" rx="36.779" ry="8.223" transform="translate(16.581 181.04)" fill="#263238"/></g><g transform="translate(106.455 .533)"><path d="M9.584 103.574l-1.408 3.071S0 107.527 0 108.145s.088 4.836.532 5.011a1.448 1.448 0 001.051 0l12.042-3.078 1.145-5.449z" fill="#fff" stroke="#263238" stroke-linecap="round" stroke-linejoin="round"/><path d="M7.294 109.063a29.264 29.264 0 01-4.815 3.206c-1.946.876-2.02 2.2-1.4 2.2a64.93 64.93 0 006.115-2.3s4.991-1.307 5.711-1.7.8-2.606.8-2.606" fill="#fff" stroke="#263238" stroke-linecap="round" stroke-linejoin="round"/><path d="M16.777 44.563l-5.02 38.51-3.5 20.851 7.759 1.832 5.785-24.663 2.741-15.524z" fill="#7d7d7d" stroke="#263238" stroke-linecap="round" stroke-linejoin="round"/><path d="M57.32 16.68l-3.064-.485-6.277-2.377-.229 7.456 9.732.9z" fill="#fff" stroke="#263238" stroke-linecap="round" stroke-linejoin="round"/><path d="M21.497 153.244a94.478 94.478 0 00-6.391 8.351c-2.593 3.96-1.677 8.217 1.522 9.287s7.3-1.832 8.371-4.115.761-3.5 2.431-5.779 3.044-4.566 2.438-7.61-6.727-2.263-8.371-.134z" fill="#7d7d7d" stroke="#263238" stroke-linecap="round" stroke-linejoin="round"/><path d="M24.69 167.34a20.895 20.895 0 00-.761-1.461c-2.445-4.3-6.735-3.96-9.429-3.159-1.771 3.617-.761 7.213 2.142 8.183s6.647-1.401 8.048-3.563z" fill="#fff" stroke="#263238" stroke-linecap="round" stroke-linejoin="round"/><path d="M23.929 165.878c-.909 1.347-2.128 5.024-6.849 3.5a6.506 6.506 0 01-3.368-2.12 4.438 4.438 0 002.943 3.644c3.192 1.064 7.3-1.832 8.371-4.115s.761-3.5 2.431-5.779 3.044-4.566 2.438-7.61c0 3.65-1.347 4.256-3.044 6.237s-2.006 4.869-2.922 6.243z" fill="#fff" stroke="#263238" stroke-linecap="round" stroke-linejoin="round"/><path d="M66.413 153.244a94.486 94.486 0 016.391 8.351c2.593 3.96 1.677 8.217-1.522 9.287s-7.3-1.832-8.371-4.115-.761-3.5-2.431-5.779-3.044-4.566-2.438-7.61 6.701-2.263 8.371-.134z" fill="#7d7d7d" stroke="#263238" stroke-linecap="round" stroke-linejoin="round"/><path d="M63.227 167.34c.209-.458.458-.943.754-1.461 2.445-4.3 6.735-3.96 9.429-3.159 1.771 3.617.761 7.213-2.142 8.183s-6.647-1.401-8.041-3.563z" fill="#fff" stroke="#263238" stroke-linecap="round" stroke-linejoin="round"/><path d="M63.981 165.878c.909 1.347 2.128 5.024 6.849 3.5a6.506 6.506 0 003.367-2.122 4.438 4.438 0 01-2.943 3.644c-3.192 1.064-7.3-1.832-8.371-4.115s-.761-3.5-2.431-5.779-3.044-4.566-2.438-7.61c0 3.65 1.347 4.256 3.044 6.237s2.007 4.871 2.923 6.245z" fill="#fff" stroke="#263238" stroke-linecap="round" stroke-linejoin="round"/><path d="M73.551 100.732c0-2.741-4.714-5.785-4.714-5.785-7.105-7.227-19.928-6.27-24.663-5.624-4.714-.673-17.551-1.6-24.656 5.624 0 0-4.714 3.044-4.714 5.785s5.94 52.209 5.94 52.209-.155 2.586 4.108 2.889 6.061-2.128 6.061-2.128l1.677-41.857s6.849-4.876 8.082-5.024c.444-.061 1.024-.155 1.67-.236v.081a8.958 8.958 0 013.657 0v-.081c.673.081 1.219.175 1.67.236 1.219.148 8.082 5.024 8.082 5.024l1.677 41.857s1.825 2.431 6.061 2.128 4.108-2.889 4.108-2.889 5.954-49.468 5.954-52.209z" fill="#263238" stroke="#263238" stroke-linecap="round" stroke-linejoin="round"/><path d="M55.745 111.845s-.916-10.048 3.5-13.854M32.61 111.845s.458-8.371-.458-11.416a8.925 8.925 0 00-2.438-4.263m8.527-4.264s4.869 5.63 5.785 10.351m4.869-10.027s-2.741 3.044-3.044 5.327" fill="none" stroke="#707070" stroke-linecap="round" stroke-linejoin="round"/><path d="M42.046 32.998s-4.411-.613-5.933.909-6.7 7.132-6.7 7.132l2.741 48.4s6.243 2.438 11.57 2.438 11.416-1.98 12.8-3.044.155-52.97.155-52.97-11.313-3.322-14.633-2.865z" fill="#e37ab0" stroke="#263238" stroke-linecap="round" stroke-linejoin="round"/><path d="M50.114 34.063a55.5 55.5 0 017-.613c3.044 0 6.061.155 6.061.155l7.61-7.307-15.315-3.5 1.219-7s11.261-.761 16.891.3 14.46 3.805 14.918 3.805 1.064 1.677.606 2.889-14.776 17.053-19.053 21.161a105 105 0 00-7.913 8.674l-1.953 33.944a53.968 53.968 0 015.94 3.65c.916.909 1.98 4.566 1.98 4.566s-9.287-3.805-11.725-4.108-3.953-.458-4.411-1.347-4.263-41.554-4.263-41.554l.155-12.938s-.028-.777 2.253-.777z" fill="#7d7d7d" stroke="#263238" stroke-linecap="round" stroke-linejoin="round"/><path d="M59.246 54.914l-8.223 1.064.761 3.044 4.115 1.064 3.953-1.825zm4.715-18.265l-1.825 15.982 4.721-13.544m3.953-12.789s3.805.761 9.59-1.522m-5.629 2.59a34.4 34.4 0 007.456-.606" fill="none" stroke="#263238" stroke-linecap="round" stroke-linejoin="round"/><path d="M36.873 32.844l.761 11.113a7.321 7.321 0 005.933 2.889c3.805-.148 4.263-2.889 4.263-2.889v-9.133z" fill="#fff" stroke="#263238" stroke-linecap="round" stroke-linejoin="round"/><path d="M47.979 38.63l-.3 9.146 3.2-5.024s3.5 4.411 4.411 4.263-.606-1.98-.909-3.65-2.9-7.617-3.2-9.287-3.2-1.98-3.367-1.219a7.773 7.773 0 000 1.98zM37.48 46.846s.606 42.618-.916 43.1-7.61.613-11.449 2.438-5.63 2.586-5.63 2.586 1.825-4.411 3.96-6.391a21.019 21.019 0 014.714-3.2l-3.953-20.393s-7.308-19.332-7.462-20.396 13.854-8.978 16.743-10.351 3.657-.148 3.657-.148z" fill="#7d7d7d" stroke="#263238" stroke-linecap="round" stroke-linejoin="round"/><path d="M33.675 32.083s-3.65 11.566-3.965 13.093 0 1.522 1.071.451 3.805-3.65 3.805-3.65l2.894 4.872-.155-8.978v-5.182s-.148-2.128-3.65-.606z" fill="#7d7d7d" stroke="#263238" stroke-linecap="round" stroke-linejoin="round"/><path d="M26.522 57.049H35.5l-.148 3.65-3.96 1.367-5.024-1.367z" fill="none" stroke="#263238" stroke-linecap="round" stroke-linejoin="round"/><path d="M51.179 17.017s2.128 9.281 2.586 10.776-2.431 7.462-3.367 8.829a4.431 4.431 0 01-3.367 2.128 33.312 33.312 0 01-8.223-2.889 51.357 51.357 0 01-2.734-1.98 3.657 3.657 0 01-3.96-.606c-1.825-1.677-4.263-3.657-3.657-5.024a3.576 3.576 0 013.5-2.128c1.677 0 1.071-.155 1.071-.155s-3.044-4.411-3.044-7.913 6.54-6.061 10.345-6.061a20.326 20.326 0 017.61 1.825z" fill="#fff" stroke="#263238" stroke-linecap="round" stroke-linejoin="round"/><path d="M45.851 20.513l2.741 5.18-2.741 1.825-1.219-1.525m6.243-.759s.148 1.219-1.677 3.2" fill="none" stroke="#263238" stroke-linecap="round" stroke-linejoin="round"/><path d="M42.962 22.419c0 .714-.31 1.293-.673 1.293s-.674-.579-.674-1.293.31-1.293.674-1.293.673.579.673 1.293z" fill="#263238"/><ellipse cx=".687" cy="1.293" rx=".687" ry="1.293" transform="translate(47.063 18.688)" fill="#263238"/><path d="M34.739 9.097s-9.577 3.5-9.894 7.92 8.526 10.5 8.984 11.261 1.825-.916 1.825-.916a3.536 3.536 0 01-.613-2.889c.458-1.522 2.438-3.367 2.438-4.108s-2.283.606-2.283-1.677 5.63-3.65 8.978-3.5 6.243 5.785 8.681 3.044-1.071-3.5-1.071-3.5 4.714-.613 4.714-3.044a4.442 4.442 0 00-3.5-4.115c-1.064 0-3.953 1.832-3.953-.148s2.889-2.9.148-6.061-6.236 0-6.236 1.219-.916 3.5-1.522 3.5-2.438-2.734-4.566-1.212A5.644 5.644 0 0034.741 9.1z" fill="#263238" stroke="#263238" stroke-linecap="round" stroke-linejoin="round"/><path fill="none" stroke="#263238" stroke-linecap="round" stroke-linejoin="round" d="M38.699 20.823l4.869-1.832m.761-2.128a2.1 2.1 0 01.216-1.4"/><path d="M44.544 15.448a5.18 5.18 0 012.829-2.249" fill="none" stroke="#fff" stroke-linecap="round" stroke-linejoin="round"/></g></svg>